<svg width="48" height="63" viewBox="0 0 48 63" fill="none" xmlns="http://www.w3.org/2000/svg">
<path d="M11.6058 0.2267C11.2249 0.532745 11.1017 1.14484 11.3369 1.51889C11.4377 1.66625 11.6842 1.89294 11.8858 2.01763C12.0874 2.13098 13.2634 2.83375 14.4954 3.57053C18.2811 5.8262 17.9227 5.53149 18.3147 6.74433L18.6619 7.78716L17.8891 8.55793C16.6123 9.83879 16.0074 11.4937 16.153 13.364C16.2763 14.9395 16.9931 16.4244 18.1803 17.5466L18.8859 18.2154L18.4267 18.7141C18.1691 18.9975 17.9115 19.3149 17.8443 19.4395C17.7435 19.6322 17.5419 19.5642 14.9994 18.4647L12.2778 17.2859L11.8858 16.4358C11.5386 15.665 10.3961 12.9333 9.44411 10.5642C8.72729 8.79597 8.59289 8.62594 7.90968 8.61461C7.59607 8.61461 7.40567 8.69395 7.19286 8.90932C6.77845 9.32871 6.87926 9.96347 7.58487 11.573C8.29048 13.1713 10.0825 17.4333 10.3513 18.17C10.5977 18.8501 10.8329 19.0315 11.9978 19.4962C12.513 19.7003 13.633 20.199 14.4954 20.5957C15.3578 21.0038 16.2426 21.4005 16.4555 21.4912L16.8475 21.6612L16.8027 22.5907C16.7915 23.1008 16.7467 23.5428 16.7131 23.5768C16.6907 23.5995 15.145 23.6448 13.2858 23.6675L9.90332 23.7128L6.29684 26.1385C4.3144 27.4761 2.54477 28.7343 2.35436 28.927C1.72715 29.573 1.96235 30.4458 2.82477 30.6499C3.20558 30.7406 3.17198 30.7632 5.75923 29.0403C6.93526 28.2582 8.52569 27.1927 9.30971 26.6713L10.7321 25.7305H14.081H17.4299L18.0459 26.5693L18.6619 27.3967L18.1467 27.5781C16.5003 28.1562 10.4745 29.9471 9.69051 30.1058C9.2201 30.1851 9.0521 30.4005 8.70489 31.3073C8.58169 31.636 8.39129 32.1121 8.27928 32.3615C8.17848 32.6108 7.94328 33.1662 7.78647 33.6083C7.61847 34.039 7.31606 34.8098 7.10326 35.3086C6.27444 37.3489 3.92239 43.3791 3.84399 43.6738C3.69839 44.2972 4.2584 45 4.90801 45C5.42323 45 5.68083 44.5353 7.05846 41.0894C7.79767 39.2191 8.60409 37.1788 8.8393 36.5554C9.0745 35.932 9.56731 34.6511 9.93692 33.7217L10.5977 32.0214L11.9306 31.67C12.6698 31.466 13.8346 31.16 14.529 30.9673C15.2122 30.7746 15.7834 30.6385 15.7834 30.6612C15.7834 30.6839 15.6042 31.0126 15.3914 31.3867C14.6186 32.7128 14.1034 34.6171 14.1034 36.1247C14.1034 36.9521 14.3946 38.301 14.7866 39.3438C15.8058 42.0302 18.3147 44.1159 21.1259 44.6146C25.27 45.3627 29.4365 42.5516 30.5901 38.2217C30.9262 36.9635 30.9262 34.9458 30.5901 33.7557C30.2877 32.6675 29.8957 31.7834 29.4365 31.1033L29.0893 30.5819L29.4589 30.6612C29.8061 30.7406 30.7582 31.0126 33.3454 31.806L34.2638 32.0894L34.5886 32.7355C34.7678 33.0869 35.1486 33.9937 35.4398 34.7418C35.731 35.4899 36.6383 37.8363 37.4671 39.9559C38.2959 42.0756 39.0351 43.9458 39.1023 44.1272C39.2591 44.5353 39.8079 45 40.1327 45C40.4576 45 40.9728 44.6033 41.1072 44.2406C41.2528 43.8438 41.0064 43.0957 39.6399 39.7292C39.4607 39.2872 38.8335 37.6889 38.2399 36.1587C36.5599 31.8514 36.0335 30.5592 35.8991 30.4232C35.8319 30.3552 34.6782 29.9811 33.3454 29.5957C30.9486 28.9043 29.5485 28.4622 27.4093 27.7481L26.3229 27.3854L26.7821 26.8753C27.0285 26.5919 27.2973 26.2179 27.3869 26.0365L27.5549 25.7305H30.9038H34.2638L35.2494 26.3652C35.7871 26.7053 37.4559 27.8388 38.9679 28.8589C41.488 30.5819 41.7456 30.7292 42.104 30.6725C42.608 30.5932 43 30.1511 43 29.6411C43 29.403 42.9104 29.1537 42.7536 28.9723C42.5296 28.7343 35.8207 24.1549 35.1934 23.8149C35.0254 23.7355 33.8942 23.6902 31.587 23.6902H28.2157V23.0214C28.2157 22.6587 28.1821 22.194 28.1485 22.0013C28.0813 21.6612 28.0925 21.6385 28.8989 21.2758C29.3581 21.0605 30.7357 20.471 31.9678 19.9496C33.1998 19.4282 34.2638 18.9295 34.3422 18.8275C34.4206 18.7254 34.6782 18.1587 34.9246 17.5693C35.171 16.9798 35.9663 15.0642 36.7055 13.3186C37.4447 11.573 38.0831 9.98615 38.1167 9.78212C38.2287 9.2607 37.9487 8.76197 37.4447 8.62595C36.7839 8.44459 36.2799 8.78463 35.9439 9.65743C35.8095 10.0088 34.443 13.262 33.2894 15.9824C33.0206 16.6398 32.7294 17.2292 32.6622 17.2972C32.5838 17.3652 31.9454 17.6713 31.2398 17.966C30.5341 18.2607 29.3469 18.7481 28.6077 19.0655L27.2749 19.6209L27.0397 19.3035C26.9165 19.1335 26.6365 18.7821 26.4237 18.5441C26.1213 18.204 26.0765 18.0907 26.1997 18.0453C26.2893 18.0227 26.7037 17.6486 27.1181 17.2292C28.3165 15.9937 28.8877 14.5995 28.8877 12.8539C28.8877 11.165 28.3277 9.83879 27.0397 8.50126L26.3229 7.76448L26.6925 6.71033L27.0509 5.65617L29.1789 4.37532C32.9534 2.09698 33.3006 1.87028 33.5246 1.46222C33.715 1.09949 33.715 1.04282 33.5582 0.646095C33.379 0.215366 33.0318 0 32.539 0C32.4046 0 31.7774 0.317379 31.1614 0.70277C30.5453 1.09949 29.2461 1.90429 28.2829 2.49371C27.3085 3.08313 26.3005 3.70655 26.0317 3.87657C25.4268 4.25063 25.27 4.5 24.7996 5.74685C24.4412 6.69899 24.4188 6.74433 24.1052 6.71033C23.4444 6.61965 21.2044 6.64231 20.8795 6.72166L20.5435 6.81234L20.1627 5.70151C19.9499 5.08942 19.6811 4.466 19.5467 4.32998C19.3451 4.10328 17.4411 2.83376 17.3067 2.83376C17.2619 2.83376 15.2346 1.62091 13.5546 0.578087C12.5018 -0.0680084 12.0762 -0.147358 11.6058 0.2267ZM24.1164 8.966C24.878 9.24937 25.4044 9.65743 25.886 10.2922C26.5805 11.2103 26.8045 11.8338 26.8045 12.8652C26.8045 14.1121 26.4797 14.9169 25.6508 15.767C24.6428 16.7758 23.7468 17.1272 22.3468 17.0592C19.7931 16.9345 17.8779 14.7128 18.2699 12.2985C18.4155 11.335 18.7067 10.7456 19.3787 10.0315C20.5883 8.72796 22.4252 8.3199 24.1164 8.966ZM23.7244 19.4282C24.2284 19.5529 25.158 20.267 25.5164 20.8111C26.7821 22.7494 26.1661 25.1864 24.1276 26.2746C23.646 26.5353 23.4332 26.5806 22.5596 26.5806C21.742 26.5806 21.4396 26.5239 20.9579 26.3086C19.7483 25.7531 18.8971 24.3589 18.9083 22.8967C18.9083 21.1398 19.9275 19.8023 21.574 19.3829C21.9996 19.2809 23.2204 19.3035 23.7244 19.4282ZM23.8364 29.1877C24.9004 29.4484 25.8188 29.9811 26.7149 30.8879C27.3533 31.5227 27.6109 31.8854 28.0253 32.7582C28.6637 34.1184 28.7757 34.6171 28.7757 36.034C28.7757 36.9068 28.7197 37.3489 28.5405 37.8816C27.7901 40.1259 26.2109 41.8035 24.318 42.3929C23.4332 42.6763 21.9772 42.6877 21.0027 42.4383C18.8747 41.8829 16.9819 39.9106 16.3995 37.6322C16.2538 37.0882 16.2202 36.5668 16.2538 35.5919C16.2875 34.4811 16.3435 34.1751 16.6235 33.495C17.9563 30.1851 20.8235 28.4736 23.8364 29.1877Z" fill="#00FF98"/>
<path d="M4.22561 53.0687C3.84146 53.1718 3.53415 53.5613 3.2378 54.3287C2.90854 55.1878 1.85488 57.6505 0.757317 60.1475C0.340244 61.0868 0 61.9917 0 62.152C0.0109756 62.6446 0.35122 62.9768 0.856098 62.9997C1.41585 63.0111 1.7122 62.7362 2.14024 61.8084L2.45854 61.1211H4.4561H6.46463L6.7939 61.8428C7.22195 62.7706 7.45244 62.9882 8.01219 62.9882C8.56098 62.9882 9 62.6102 9 62.1406C9 61.9688 8.65976 61.0639 8.24268 60.1246C7.83659 59.1968 7.09024 57.5016 6.59634 56.3676C5.19146 53.1718 5.27927 53.3207 4.87317 53.1489C4.67561 53.0573 4.48902 53 4.47805 53C4.4561 53.0115 4.34634 53.0344 4.22561 53.0687ZM4.60976 56.6883C4.60976 56.7685 4.82927 57.3183 5.10366 57.9139L5.59756 59.0021L4.5439 59.0364C3.9622 59.0479 3.46829 59.0479 3.43537 59.025C3.41341 59.0021 3.62195 58.4752 3.89634 57.8566C4.17073 57.2381 4.39024 56.6654 4.39024 56.5738C4.39024 56.4821 4.44512 56.4478 4.5 56.4821C4.56585 56.5165 4.60976 56.6196 4.60976 56.6883Z" fill="#00FF98"/>
<path d="M17.319 53.3066L16.9739 53.6149L16.9405 56.0469C16.9183 57.3827 16.8849 58.5016 16.8626 58.5245C16.8515 58.5473 16.4841 58.102 16.05 57.5311C12.5656 52.9299 12.7214 53.1011 12.0312 53.1011C11.6862 53.1011 11.5192 53.1696 11.3077 53.398C11.0627 53.672 11.0405 53.7976 11.0071 55.0193C10.9848 55.75 11.0182 57.7366 11.0627 59.415C11.1518 62.4521 11.1518 62.4863 11.419 62.7033C11.7752 63.0001 12.4431 62.9887 12.7214 62.6804C12.9107 62.4635 12.933 62.1895 12.9886 59.7461L13.0443 57.0402L13.9905 58.2961C15.6047 60.4312 15.7717 60.6595 16.5509 61.7442C17.3858 62.8745 17.7977 63.1486 18.3655 62.9316C19 62.6804 19 62.669 19 58.1477C19 53.5236 18.9777 53.3523 18.3098 53.1125C17.8089 52.9299 17.7087 52.9527 17.319 53.3066Z" fill="#00FF98"/>
<path d="M40.6477 53.0589C40.3583 53.1732 40.08 53.5045 40.0132 53.8244C39.9353 54.1214 40.1913 54.5555 41.0819 55.6751C41.4493 56.155 41.9725 56.8404 42.2397 57.206C42.8074 57.9943 42.9187 57.6858 41.1821 60.0507C40.2358 61.3531 40.0355 61.6844 40.0355 62.0271C40.0355 62.7355 40.7813 63.2039 41.3602 62.8726C41.5161 62.7812 42.1729 62.0271 42.8074 61.1932L43.9541 59.6737L44.366 60.1535C44.5886 60.4163 45.1118 61.1018 45.5349 61.673C46.5368 63.0553 46.8596 63.2267 47.561 62.7812C47.7947 62.6326 47.9283 62.4384 47.984 62.1985C48.0396 61.8786 47.9729 61.7073 47.4162 60.8961C47.0711 60.3934 46.5034 59.6051 46.1583 59.171C45.0339 57.743 45.0562 57.9257 45.8243 56.9432C46.1917 56.4748 46.8151 55.6865 47.2159 55.1953C48.0285 54.1899 48.1064 53.8472 47.6723 53.3217C47.4608 53.0703 47.316 53.0018 46.9487 53.0018C46.3921 53.0018 46.1137 53.2531 44.9782 54.7954C44.5218 55.4009 44.0988 55.9379 44.032 55.9836C43.9541 56.0293 43.8316 55.9722 43.7425 55.8465C43.3418 55.2638 42.2731 53.8929 41.928 53.5045C41.5272 53.0703 41.0485 52.899 40.6477 53.0589Z" fill="#00FF98"/>
<path d="M21.5997 53.1062C20.9537 53.3622 20.8037 54.1537 21.2767 54.7241L21.5766 55.0849H22.834H24.0914V58.6351C24.0914 62.9069 24.1145 63 25.1873 63C25.3949 63 25.6833 62.8952 25.8333 62.7788L26.1101 62.5577L26.1447 58.8213L26.1793 55.0849H27.3098C28.3249 55.0849 28.4518 55.0616 28.671 54.8172C29.0055 54.4447 29.0748 54.1654 28.9248 53.7231C28.7056 53.0363 28.4403 52.9898 24.9335 53.0014C23.2378 53.0014 21.7266 53.048 21.5997 53.1062Z" fill="#00FF98"/>
<path d="M31.7185 53.1077C31.5728 53.1659 31.3541 53.3521 31.2327 53.5383C31.0383 53.8292 31.014 54.2016 31.0019 57.7629C30.9897 59.9043 31.0383 61.8595 31.0869 62.0922C31.1476 62.325 31.342 62.6276 31.5242 62.7556C31.8157 62.9884 31.9979 63 34.5972 63H37.3544L37.6823 62.709C38.071 62.3715 38.1074 61.7547 37.7673 61.359C37.5365 61.0914 37.4637 61.0797 35.3624 61.0215L33.2004 60.9633V60.0905V59.2176L34.9373 59.1594C36.6134 59.1013 36.6863 59.0896 36.9049 58.8103C37.1843 58.4612 37.2086 58.1004 36.9657 57.6581C36.7228 57.1926 36.2248 57.0646 34.6458 57.0646H33.2611V56.0754V55.0861L35.3381 55.0629L37.4272 55.0279L37.6702 54.7021C38.0345 54.2482 37.986 53.5965 37.573 53.259C37.2693 53.0029 37.1965 52.9913 34.6215 53.0029C33.1761 53.0029 31.8643 53.0495 31.7185 53.1077Z" fill="#00FF98"/>
</svg>
