<svg xmlns="http://www.w3.org/2000/svg" width="256" height="256"><path fill="#1976D2" fill-opacity=".016" fill-rule="evenodd" d="M0 128.004v128.004l128.25-.254 128.25-.254.254-127.75L257.008 0H0v128.004m.485.496c0 70.4.119 99.053.265 63.672.146-35.38.146-92.98 0-128C.604 29.153.485 58.1.485 128.5"/><path fill="#1976D2" fill-opacity=".295" fill-rule="evenodd" d="M106.919 29.94c-17.627 3.254-34.71 11.026-47.37 21.551-13.223 10.993-21.066 20.933-27.719 35.13-13.274 28.327-12.6 61.914 1.827 91.026 16.227 32.743 50.853 54.362 87.051 54.35 27.739-.009 54.507-11.086 72.864-30.152 18.5-19.214 27.09-40.388 28.132-69.345.453-12.573.239-15.172-2.101-25.499-8.48-37.427-37.367-66.275-75.603-75.5-7.57-1.826-30.429-2.788-37.081-1.561m1.537 9.565C79.603 43.786 55.061 61.812 41.64 88.579c-4.18 8.336-8.1 21.396-9.058 30.171l-.681 6.25h2.876c2.849 0 2.895-.097 4.906-10.25 3.409-17.208 10.23-30.928 21.511-43.272 4.514-4.939 5.125-5.302 6.542-3.885 1.477 1.477 2.737 1.477 6.287.001.946-.394 3.975 1.172 8 4.136 6.172 4.546 6.849 4.794 14.374 5.27 10.161.643 11.302 2.003 6.593 7.863-2.599 3.234-3.423 5.315-3.772 9.525-.589 7.1 1.027 11.622 5.892 16.487l3.994 3.994 3.588-2.435c2.638-1.79 4.94-2.436 8.698-2.441 5.376-.007 9.501-1.965 12.173-5.779 1.306-1.865 1.265-2.134-.403-2.663-2.143-.68-4.16-4.572-4.16-8.027 0-2.824 2.706-5.851 4.586-5.129 1.035.397 1.115-.05.364-2.027-1.843-4.846.841-5.874 3.947-1.513 5.817 8.169 4.9 17.19-2.5 24.59-2.505 2.505-4.069 4.555-3.476 4.555s2.85-1.771 5.014-3.935c7.491-7.491 7.923-18.601 1.029-26.454-2.807-3.196-2.853-3.402-1.117-4.972 1.224-1.108 3.626-1.639 7.417-1.639 6.822 0 9.058-.801 15.893-5.696 4.427-3.17 6.133-3.804 10.231-3.804 6.106 0 7.187-1.944 2.232-4.014-5.578-2.331-7.69-1.836-15.147 3.549-6.778 4.894-7.152 5.029-13.373 4.837l-6.4-.197-4.35 4.604c-2.392 2.533-4.35 5.564-4.35 6.736 0 1.502-.517 2.024-1.75 1.769-1.21-.25-1.692-1.199-1.562-3.073.184-2.646.054-2.711-5.372-2.711-4.808 0-5.394.201-4.327 1.487 1.507 1.816.636 4.513-1.458 4.513-.898 0-1.531-.885-1.531-2.143 0-1.23-2.07-4.213-4.857-7C103.309 71.023 103.254 71 96.646 71c-6.298 0-6.956-.232-12.753-4.5-4.139-3.047-7.127-4.507-9.253-4.522l-3.14-.022 2.5-2.009C81.931 53.577 104.975 45 114.16 45c3.583 0 3.84-.197 3.84-2.941 0-1.618-.338-3.123-.75-3.344-.412-.222-4.37.133-8.794.79m-2.762 43.134c-.799.799.104 2.361 1.365 2.361.518 0 .941-.675.941-1.5 0-1.546-1.18-1.987-2.306-.861m1.096 6.419c-3.66 2.133-3.145 12.942.616 12.942 2.166 0 5.594-4.89 5.594-7.98 0-1.49-.823-3.455-1.829-4.365-2.114-1.913-2.122-1.914-4.381-.597m-44.123.609c-1.33 1.329-.622 4.286 1.267 5.298 1.064.569 5.107 1.035 8.983 1.035h7.049l2.534 5c1.394 2.75 2.953 5 3.465 5s1.697 2.728 2.633 6.063c1.692 6.033 1.734 6.079 8.526 9.5 3.755 1.89 7.01 3.437 7.234 3.437.225 0 .63-1.157.901-2.572.436-2.285-.108-2.866-4.872-5.202-5.034-2.47-5.46-2.971-6.954-8.178-.876-3.052-2.496-6.448-3.6-7.548-1.105-1.1-2.995-3.8-4.199-6l-2.19-4-7.969-.297c-4.382-.163-8.397-.725-8.922-1.25-1.108-1.108-2.93-1.242-3.886-.286m113.852.152c-.372.375-4.579.906-9.348 1.181l-8.671.5-2.563 4.753c-1.41 2.614-3.292 5.314-4.182 6-.891.686-2.33 3.743-3.199 6.795-1.494 5.246-1.881 5.695-7.129 8.269-4.85 2.378-5.463 3.003-4.864 4.952.377 1.227.809 2.373.96 2.546.483.555 12.056-5.6 13.132-6.983.569-.733 1.618-3.488 2.331-6.122.713-2.635 2.094-5.218 3.068-5.739.974-.521 2.41-2.866 3.189-5.21l1.418-4.261 7.891-.296c7.876-.296 11.448-1.778 11.448-4.752 0-1.451-2.498-2.623-3.481-1.633m-69.472 2.092c-.698 1.306-.715 2.176-.05 2.587 1.338.827 3.003-.28 3.003-1.998 0-2.312-1.834-2.678-2.953-.589m10.341 25.069c-6.089 2.46-8.48 12.091-4.315 17.385 3.717 4.726 9.004 2.976 12.09-4 1.43-3.234 1.764-5.345 1.212-7.664-.419-1.761-.787-3.606-.819-4.1-.057-.911-3.221-2.455-5.056-2.467-.55-.004-1.95.377-3.112.846m-41.585 15.27C74.327 133.418 67 151.908 67 154.463c0 .639-1.35 2.159-3 3.379-2.936 2.171-3 2.404-3 10.976v8.757l-4.923 4.849c-4.245 4.181-4.763 5.106-3.76 6.713.64 1.025 1.618 1.863 2.174 1.863.555 0 3.371-2.739 6.259-6.086l5.25-6.085v-8.021c0-7.201.237-8.207 2.323-9.848 1.472-1.157 3.902-6.086 6.631-13.45 3.486-9.409 4.616-11.504 5.926-10.995.891.347 6.345 1.745 12.12 3.109 5.775 1.364 11.019 2.65 11.653 2.859.634.209 1.984-.237 3-.991 3.419-2.536-.461-4.525-14.813-7.59-15.545-3.32-14.996-3.267-17.037-1.652m84.697-.512c-12.969 2.413-25.199 5.585-26.671 6.917-1.771 1.603-1.771 1.697-.005 2.934 1.528 1.071 4.003.724 15.25-2.132a4217.353 4217.353 0 0 1 13.566-3.434c.077-.013 2.042 4.815 4.366 10.727 2.775 7.059 5.216 11.633 7.11 13.323 2.687 2.397 2.884 3.079 2.891 10 .007 8.476 1.245 11.058 8.206 17.112 3.978 3.46 4.373 3.595 6.056 2.072 1.711-1.549 1.527-1.905-3.735-7.222L182 176.442v-8.149c0-7.741-.142-8.264-2.842-10.471-1.757-1.435-4.07-5.377-6.058-10.322-6.004-14.935-7.433-16.723-12.6-15.762m-45 11.88c-3.877.958-8.031 2.753-10.822 4.676-2.713 1.869-2.97 1.878-6.645.221-2.103-.948-6.217-1.79-9.142-1.87-6.274-.171-6.517.155-10.534 14.133-1.672 5.821-3.353 9.521-5.054 11.126-2.419 2.282-2.508 2.737-1.763 9 .431 3.628.852 10.989.935 16.359.152 9.807 1.304 13.358 3.592 11.07 1.682-1.682 2.256-15.058 1.021-23.788-1.093-7.726-1.059-8.017 1.182-10.094 1.491-1.384 3.32-5.64 5.174-12.045 1.578-5.448 3.192-10.278 3.589-10.733.731-.839 8.738 1.034 10.34 2.419.48.414-.004 2.026-1.075 3.581-3.774 5.475-4.798 9.606-4.798 19.348 0 8.739.269 10.068 3.281 16.185 7.905 16.057 23.616 22.734 37.196 15.806 17.941-9.153 24.733-34.898 13.552-51.374-1.754-2.584-2.139-3.832-1.272-4.123 4.842-1.622 10.107-2.528 10.68-1.838.375.453 1.978 5.098 3.562 10.323 1.584 5.225 3.923 10.654 5.199 12.063 2.266 2.505 2.295 2.795 1.279 12.693-.935 9.111-.186 21.369 1.403 22.957.247.247 1.335-.025 2.419-.605 1.779-.953 1.87-1.517.941-5.831-.73-3.393-.677-8.217.185-16.65l1.214-11.872-2.451-2.628c-1.476-1.58-3.698-6.685-5.58-12.816-3.893-12.68-4.835-13.738-11.453-12.86-2.745.364-6.48 1.285-8.3 2.045-3.086 1.29-3.698 1.185-9.082-1.552-5.638-2.867-14.37-4.414-18.773-3.326m.089 5.479c-5.819 1.397-10.089 4.433-13.521 9.614-3.464 5.229-3.997 7.44-1.18 4.891 5.306-4.803 20.999-7.216 30.048-4.62 4.235 1.214 5.029 2.415 5.049 7.633.014 3.787-2.353 8.447-5.354 10.539-4.446 3.099-22.984.863-29.703-3.583l-3.723-2.464-.558 2.134c-.306 1.173-.284 4.13.051 6.57.592 4.322.779 4.518 7.205 7.551 6.09 2.875 7.417 3.115 17.262 3.126 11.879.013 12.389.678 3.843 5.008-8.874 4.497-15.703 3.957-21.744-1.718-1.245-1.17-2.264-1.633-2.264-1.029 0 1.135 4.345 6.761 6.994 9.056 2.878 2.494 9.526 5.151 12.94 5.173 8.821.056 18.671-8.805 22.675-20.4 2.43-7.035 3.199-15.578 1.403-15.578-.544 0-1.284-1.851-1.646-4.114-1.295-8.096-11.149-17.138-19.866-18.228-2.2-.275-5.76-.078-7.911.439m-7.922 5.57c-1.268 1.267-.659 2.333 1.333 2.333 1.111 0 2-.667 2-1.5 0-1.522-2.115-2.051-3.333-.833"/><path fill="#1976D2" fill-opacity=".209" fill-rule="evenodd" d="M110.867 30.066c-10.98 1.178-19.1 3.486-29.49 8.385C50.851 52.845 31.5 77.275 24.453 110.315c-2.089 9.796-1.872 30.037.441 41.185 4.371 21.071 12.687 36.374 27.986 51.5 11.741 11.609 20.16 17.039 35.131 22.663 16.277 6.114 31.561 7.615 48.905 4.802 41.604-6.747 72.332-35.187 81.836-75.742 3.536-15.089 3.751-35.786.506-48.723-12.354-49.254-58.129-81.322-108.391-75.934m-7.225 9.941c-35.857 7.556-62.354 34.475-70.192 71.308-4.556 21.411 1.197 50.515 13.945 70.553l2.779 4.368 3.934-3.842c2.164-2.113 3.705-4.439 3.425-5.17-.281-.73-.104-1.077.393-.77.497.307 1.131-.007 1.41-.698.356-.884.53-.822.585.21.043.806-1.99 3.566-4.519 6.133-4.017 4.079-4.456 4.932-3.477 6.761.617 1.152 2.065 2.599 3.219 3.217 1.604.858 1.923.841 1.359-.073-.449-.725 1.031-3.025 3.763-5.85 6.073-6.278 6.734-7.865 6.734-16.178 0-5.984.333-7.427 2.034-8.816 1.118-.913 3.81-6.565 5.982-12.559 2.172-5.995 4.131-11.082 4.354-11.304.222-.222 5.067.702 10.767 2.054 15.64 3.709 16.158 3.77 18.282 2.147 1.844-1.408 1.85-1.544.139-3.434-.98-1.083-4.319-2.541-7.42-3.24-5.103-1.151-5.324-1.304-2.331-1.615l3.308-.344-6.776-7.183c-3.726-3.95-7.086-7.182-7.467-7.182-.38 0-5.933-5.122-12.339-11.382-7.341-7.173-10.794-11.153-9.34-10.763 1.269.34 4.885.624 8.037.631l5.729.014 2.151 4.25c1.183 2.338 2.735 4.592 3.451 5.011.715.418 1.861 3.266 2.546 6.328l1.246 5.566 7.75 3.897 7.749 3.896.669-3.045c.788-3.585 1.252-3.023-5.162-6.244-4.739-2.381-5.234-2.971-6.336-7.562-.703-2.932-2.393-6.233-4.109-8.029-1.603-1.677-2.898-3.616-2.878-4.309.021-.692 2.476 1.328 5.457 4.491 2.981 3.162 5.635 5.75 5.897 5.75.263 0 .285-1.238.049-2.75l-.429-2.75 1.595 2.879c1.211 2.187 1.304 3.059.388 3.625-.863.534-.892.941-.1 1.43.609.376 1.107.116 1.107-.578s1.697.395 3.771 2.421l3.772 3.682 4.898-2.479c6.905-3.496 12.771-3.125 16.97 1.074 1.629 1.629 1.932 1.517 5.623-2.087 5.049-4.93 6.971-9.115 6.944-15.118-.023-5.163-2.568-11.945-5.345-14.242-1.577-1.305-1.577-1.511-.003-3.25 1.319-1.458 3.123-1.857 8.395-1.857 6.477 0 6.959-.178 13.569-4.996 5.074-3.7 7.379-4.819 8.88-4.31 1.114.377 3.139.713 4.499.746 3.095.075 4.028-3.235 1.445-5.124-1.149-.84-1.325-1.316-.487-1.316 1.054 0 1.068-.296.07-1.499-1.076-1.297-.788-1.421 2.127-.92l3.372.579-3.5-3.028c-9.858-8.531-29.017-16.311-44.546-18.09-12.215-1.399-17.454-1.217-27.812.965M70.673 68.868l-2.826.632 5.804 5c3.193 2.75 6.093 4.907 6.444 4.794.352-.113 1.678.9 2.947 2.25C84.31 82.895 86.245 84 87.341 84c1.096 0 1.718.275 1.382.61-.335.336 1.39 2.43 3.834 4.654 3.587 3.265 4.467 4.736 4.568 7.64.105 3.033.243 2.783.884-1.598.748-5.119 3.568-10.88 6.528-13.337 1.345-1.116 1.327-1.462-.167-3.112-1.33-1.47-3.129-1.857-8.636-1.857-6.623 0-7.263-.215-13.393-4.5-3.54-2.475-6.978-4.447-7.639-4.382-.661.065-2.474.403-4.029.75m43.626 5.238c-4.024 1.164-4.909 2.552-3 4.707.822.928 1.653 2.55 1.848 3.604.194 1.055.984 2.127 1.755 2.384 1.084.361 1.26-.241.777-2.655-.546-2.729-.312-3.2 1.855-3.744 1.364-.342 4.056-.326 5.983.035 2.954.554 3.356.932 2.563 2.414-1.101 2.057.192 4.717 1.808 3.718.612-.378 1.112-1.351 1.112-2.163 0-.812.691-2.53 1.535-3.819 1.493-2.278 1.424-2.386-2.52-3.965-4.445-1.778-8.787-1.941-13.716-.516m-8.096 16.15c-3.552 4.279-1.335 12.955 2.751 10.769 2.664-1.426 4.484-7.337 3.072-9.976-1.227-2.294-4.238-2.704-5.823-.793m23.806.233c-1.767 2.129-.402 8.12 2.281 10.013 2.053 1.449 2.337 1.404 4.003-.636 1.858-2.274 1.599-6.972-.531-9.616-1.366-1.696-4.247-1.576-5.753.239m44.491-.501c-1.1.479-5.268.903-9.263.942l-7.263.07-2.237 4.75c-1.23 2.612-3.005 5.325-3.944 6.027-.939.702-2.497 3.781-3.462 6.842-1.646 5.222-2.111 5.746-7.52 8.476-5.509 2.781-5.715 3.022-4.628 5.408.626 1.373 1.403 2.474 1.728 2.445.324-.028 3.494-1.491 7.044-3.25 6.327-3.134 6.49-3.316 8.202-9.131.961-3.264 2.428-6.315 3.262-6.782.833-.466 2.405-2.858 3.492-5.316L161.888 96h7.365c7.994 0 11.205-1.381 10.594-4.555-.421-2.186-2.422-2.731-5.347-1.457M107.2 91.2c-1.791 1.791-1.456 3.995.55 3.613.963-.183 1.894-1.341 2.07-2.573.351-2.462-.758-2.902-2.62-1.04m8.153 26.675c-6.314 3.953-6.684 14.896-.638 18.858 7.238 4.742 16.285-.387 16.285-9.233 0-8.694-8.643-14.011-15.647-9.625m31.887 16.099c-14.633 3.34-18.102 5.424-13.305 7.991 1.451.777 5.095.285 14.564-1.965 6.945-1.65 12.986-3 13.423-3 .437 0 2.955 5.217 5.596 11.594 3.522 8.507 5.424 11.878 7.141 12.661 2.185.995 2.341 1.628 2.341 9.492v8.426l6.23 6.488 6.231 6.488 1.791-2.211c1.767-2.183 1.719-2.288-3.572-7.835l-5.363-5.622-.196-7.49c-.235-9.009-.681-10.717-2.992-11.45-1.128-.358-3.374-4.57-6.199-11.624-2.436-6.085-5.235-11.93-6.219-12.99-2.297-2.474-4.59-2.35-19.471 1.047m-35.358 10.407c-1.989.711-5.139 2.229-7 3.373-3.132 1.927-3.596 1.968-6.277.556-1.592-.839-5.417-1.753-8.5-2.031-7.183-.647-7.974.222-11.936 13.098-1.973 6.413-3.975 10.854-5.709 12.665l-2.671 2.787 1.18 8.836c.649 4.859 1.045 12.097.88 16.083-.271 6.596-.092 7.393 1.991 8.852 1.259.882 2.598 1.293 2.975.914.377-.38.695-8.04.707-17.022.02-14.165.256-16.589 1.782-18.276 1.267-1.4 7.696-20.557 7.696-22.933 0-.121.563-.032 1.25.199.688.231 3.088.889 5.335 1.463l4.085 1.043-3.226 6.409c-9.045 17.972-2.402 40.043 14.643 48.647 11.275 5.692 22.778 3.231 32.195-6.888 7.421-7.974 9.125-12.645 9.175-25.156.039-9.531-.216-11.028-2.766-16.221-3.627-7.385-3.595-7.028-.691-7.795 8.414-2.22 7.326-3.092 10.962 8.787 2.223 7.262 4.047 11.383 5.645 12.754 2.231 1.913 2.307 2.356 1.383 8-1.307 7.984-1.247 18.57.138 24.069 1.037 4.118 1.283 4.376 3.045 3.193 1.714-1.151 1.953-2.823 2.249-15.787.182-7.975.645-15.439 1.028-16.586.501-1.497-.083-3.012-2.067-5.37-1.586-1.886-4.135-7.51-5.981-13.201-4.256-13.116-4.366-13.229-12.114-12.505-3.444.321-7.498 1.232-9.01 2.024-2.479 1.299-3.012 1.252-5.447-.482-6.536-4.654-17.438-6.184-24.949-3.499m-.906 6.869c-2.446 1.238-5.916 4.197-7.712 6.578-3.528 4.678-4.377 7.489-1.464 4.853 5.866-5.309 23.695-6.854 32.663-2.831 2.73 1.224 5.843 2.997 6.918 3.938 1.683 1.474 1.618 1.104-.464-2.672-5.902-10.703-19.457-15.17-29.941-9.866m-3.02 3.303c-.903 1.089-.961 1.842-.201 2.602 1.282 1.282 3.245.28 3.245-1.655 0-2.137-1.635-2.645-3.044-.947M97 176.69c0 6.691.984 8.152 7.253 10.771 9.734 4.068 25.381 3.684 35.319-.865 4.71-2.157 5.188-2.692 5.795-6.491.364-2.277.387-5.235.052-6.573l-.611-2.433-3.654 2.412c-11.207 7.397-33.565 6.762-42.367-1.204C97.09 170.771 97 170.992 97 176.69m41.893 16.945c-6.103 7.377-26.602 8.463-33.965 1.8-3.401-3.078-3.042-.928.545 3.263 6.84 7.99 16.906 9.843 25.256 4.649 4.568-2.842 11.086-9.865 10.085-10.867-.291-.29-1.156.229-1.921 1.155"/><path fill="#1976D2" fill-opacity=".786" fill-rule="evenodd" d="M103.113 31.545c-21.177 4.594-38.614 14.613-53.858 30.946-8.642 9.26-12.782 15.593-17.836 27.282-6.52 15.08-7.816 21.794-7.766 40.227.04 14.587.353 17.657 2.696 26.477 9.716 36.568 35.845 62.686 72.151 72.119 24.418 6.345 54.149 1.536 76.5-12.374 9.547-5.942 22.367-18.221 28.92-27.701 16.235-23.484 21.688-56.897 14.034-85.991-9.479-36.032-40.859-64.476-78.454-71.115-9.986-1.763-27.957-1.699-36.387.13M107 38.693c-18.541 3.116-36.48 12.705-49.583 26.503-8.803 9.269-12.547 14.67-17.506 25.254-10.624 22.669-11.149 48.949-1.494 74.726 9.381 25.048 29.74 44.527 55.583 53.182 10.025 3.357 22.742 4.909 31 3.782 6.063-.827 6.192-.895 1.921-1.013-4.989-.138-11.027-3.487-16.389-9.09l-2.967-3.101 3.467 1.759c2.145 1.088 5.756 1.766 9.468 1.777 19.877.062 35.542-23.106 30.079-44.487-.911-3.567-2.739-8.125-4.063-10.13l-2.406-3.645 4.388-1.105c2.413-.608 4.8-1.105 5.305-1.105.505 0 2.205 4.358 3.778 9.685 1.573 5.327 3.897 10.918 5.165 12.425 2.258 2.683 2.284 2.968 1.261 13.816-.575 6.092-.877 12.088-.672 13.325.206 1.237.169 1.624-.081.86-.428-1.308-4.384 4.097-5.807 7.934-.315.85-2.624 2.784-5.129 4.298-2.506 1.513-4.352 2.957-4.101 3.207.619.62 10.125-2.726 16.464-5.794 14.969-7.248 33.391-27.456 40.045-43.929 7.51-18.593 9.566-41.445 5.383-59.827-7.797-34.259-35.763-61.086-71.317-68.412-7.117-1.466-25.342-1.98-31.792-.895m68.427 29.425c-.441.714-2.324.894-5.215.498-4.175-.573-4.937-.309-9.865 3.412-2.938 2.218-6.006 4.288-6.819 4.599-1.178.453-1.225.819-.232 1.812 3.852 3.852 11.004 4.721 15.36 1.867 1.423-.932 3.319-1.761 4.215-1.842.896-.081 3.654-.528 6.129-.992 2.475-.464 5.116-.728 5.87-.587.753.142-.555-2.024-2.907-4.814-4.441-5.266-5.375-5.831-6.536-3.953m-62.205 7.115c-1.253.604-2.124 1.361-1.935 1.682.189.322.92 2.048 1.626 3.835.705 1.787 1.689 3.25 2.185 3.25 1.275 0 1.121-2.381-.243-3.745-1.492-1.492 2.331-2.517 7.74-2.075 3.599.295 3.882.535 3.617 3.07-.409 3.91 1.488 3.404 3.275-.872.832-1.992 1.513-3.748 1.513-3.902 0-.154-1.417-.774-3.149-1.378-3.957-1.379-11.633-1.308-14.629.135M141.416 87.5c1.984 4.953 2.664 8.872 2.051 11.815-.972 4.67-4.824 10.856-8.397 13.486l-3.126 2.3-2.607-2.05c-3.752-2.952-12.541-2.849-17.018.199-1.818 1.237-3.308 2.588-3.312 3-.018 1.966-3.033.297-7.523-4.166-2.72-2.704-5.241-4.734-5.601-4.511-.361.222-.914-.583-1.23-1.791-.315-1.207-.797-1.971-1.07-1.698-.273.272.087 2.503.801 4.956 1.098 3.779 2.046 4.876 6.206 7.185 2.701 1.499 5.262 2.854 5.691 3.011.788.287-1.074 6.764-1.945 6.764-.257 0-1.45-.475-2.652-1.055-1.555-.752-1.392-.439.566 1.083 1.569 1.22 2.75 3.117 2.75 4.416 0 1.252 1.17 4.001 2.599 6.107 2.462 3.627 2.505 3.9.809 5.14-2.246 1.643-3.477 1.623-10.908-.171-3.3-.797-6.548-1.465-7.219-1.484-1.898-.056-.274 3.021 2.108 3.992 1.429.582.496.715-2.889.41l-5-.45 6.167 1.426c3.391.785 7.122 1.938 8.291 2.564 1.763.943 3.167.616 8.243-1.921 5.123-2.56 7.289-3.057 13.318-3.057 5.99 0 8.185.497 13.07 2.961 5.556 2.803 6.088 2.89 9.891 1.615 2.211-.741 5.873-1.654 8.138-2.027 6.105-1.008 8.447 1.625 12.413 13.951 1.867 5.802 4.26 11.12 5.702 12.668 2.445 2.626 2.467 2.802 1.376 10.909-1.253 9.307-1.297 18.214-.109 21.923.468 1.461.842 1.817.9.857.055-.904.704-1.875 1.442-2.158.739-.284 2.101-2.019 3.028-3.857s2.071-4.017 2.542-4.842c2.39-4.187 3.246-6.941 2.534-8.155-.434-.74.294-.445 1.618.655s.706.064-1.373-2.302c-4.887-5.562-5.691-7.86-5.691-16.263 0-3.814-.418-6.935-.929-6.935-2.014 0-3.976-3.317-8.099-13.686-2.365-5.947-4.352-10.903-4.417-11.012-.064-.108-5.662 1.129-12.44 2.75-14.21 3.399-15.414 3.497-17.16 1.393-2.449-2.951 1.614-5.101 15.045-7.96 15.354-3.268 15.268-3.242 14.504-4.478-.342-.554-.097-1.007.545-1.007.707 0 .951-.888.618-2.25-.482-1.975 1.353-6.115 2.432-5.484.22.128.306.064.191-.143-.361-.647 2.734-6.143 4.513-8.014.933-.981 2.218-2.645 2.854-3.697.636-1.051 1.649-1.8 2.25-1.662.601.137 1.093-.2 1.093-.75s.943-1 2.096-1c1.686 0 4.764-1.624 8.775-4.63.203-.153-1.076-2.103-2.843-4.335l-3.213-4.057-2.984 2.511C176.244 96.666 174.88 97 168.583 97h-7.263l-1.336 4.049c-.735 2.227-2.011 4.426-2.835 4.888-.825.461-2.433 3.477-3.574 6.701-1.995 5.636-2.345 6.004-9.075 9.549-3.85 2.027-7.306 3.377-7.679 3-.374-.378-.961-1.83-1.306-3.227-.571-2.316-.094-2.794 5.429-5.433 3.331-1.592 6.059-3.374 6.062-3.961.016-3.13 2.446-9.081 4.476-10.962l2.321-2.151-6.594-6.976c-3.627-3.838-6.234-6.077-5.793-4.977m-34.858 2.407c-.309.498.289.684 1.328.413 2.465-.645 3.487 1.114 2.125 3.659-1.415 2.644-2.858 2.561-3.98-.229-.755-1.879-.915-1.545-.968 2.031-.046 3.103.393 4.457 1.593 4.917 3.65 1.401 7.158-7.484 4.144-10.498-1.422-1.422-3.458-1.563-4.242-.293m23.424 1.641c-1.466 3.854 1.214 9.705 4.247 9.274 1.882-.267 2.323-1.029 2.572-4.449.477-6.525-4.763-10.233-6.819-4.825M96 111.882c0 .55.45 1.278 1 1.618.55.34 1 .168 1-.382s-.45-1.278-1-1.618c-.55-.34-1-.168-1 .382m17.766 7.036c-2.939 2.625-3.266 3.47-3.266 8.419 0 6.53 2.719 10.238 8.271 11.28 10.985 2.061 17.264-11.428 9.114-19.578-4.173-4.173-9.532-4.219-14.119-.121m59.363 26.77c2.356 5.662 5.222 10.771 6.942 12.378 2.76 2.578 2.929 3.192 2.929 10.623v7.886l5.143 4.963c2.828 2.729 4.767 4.304 4.309 3.499-1.41-2.475-1.577-7.904-.485-15.753l1.044-7.507-3.162-3.639c-1.739-2.001-7.115-7.79-11.947-12.865l-8.786-9.228 4.013 9.643m-87.316-6.005c.721.289 1.584.253 1.916-.079.332-.332-.258-.568-1.312-.525-1.165.048-1.402.285-.604.604m27.687 10.846c-2.2.792-4.199 1.448-4.441 1.456-.243.008.415.641 1.462 1.407 1.617 1.182 1.703 1.633.569 3-2.118 2.552-4.406 2.04-3.851-.862.26-1.358.093-2.235-.371-1.949-1.219.754-7.311 9.759-6.255 9.247.488-.237 3.137-1.505 5.887-2.82 9.251-4.421 24.244-3.707 31.949 1.522 5.174 3.511 4.344 1.128-1.699-4.879-7.399-7.355-14.58-9.246-23.25-6.122m-26.485 3.221c.013 1.496.157 1.532.985.25.533-.825 1.014-1.275 1.068-1 .054.275.218 1.602.363 2.949.145 1.347.783 2.622 1.417 2.834.633.211 1.188 1.359 1.231 2.55.054 1.478.258 1.69.643.667.31-.825 1.399-2.694 2.421-4.154 1.021-1.46 1.857-2.869 1.857-3.132 0-.419-7.984-2.714-9.443-2.714-.306 0-.55.787-.542 1.75M97 176.007c0 6.367 1.352 8.458 7.164 11.083 4.644 2.098 6.827 2.41 16.836 2.41 10.778 0 11.877-.188 17.5-3l6-3 .303-5.865.304-5.864-3.304 2.026c-10.286 6.309-28.059 6.983-38.749 1.47L97 172.145v3.862m39.715 19.56c-3.89 3.348-12.931 5.804-18.804 5.109-2.615-.31-7.144-1.774-10.065-3.254l-5.309-2.691 2.593 3.363c3.573 4.633 10.116 7.908 15.777 7.897 5.538-.012 13.799-4.365 17.112-9.017 2.791-3.92 2.27-4.483-1.304-1.407"/></svg>