<?xml version="1.0" encoding="UTF-8" standalone="no"?>
<!DOCTYPE svg PUBLIC "-//W3C//DTD SVG 1.1//EN" "http://www.w3.org/Graphics/SVG/1.1/DTD/svg11.dtd">
<svg xmlns="http://www.w3.org/2000/svg" version="1.1" viewBox="0.00 0.00 160.00 160.00">
<path fill="#aaaaaa" d="
  M 78.97 94.74
  Q 77.86 93.51 76.31 92.94
  Q 75.84 92.76 75.73 92.27
  Q 73.78 83.21 81.77 79.20
  Q 82.47 78.85 81.69 78.87
  Q 79.85 78.92 78.20 79.71
  A 0.76 0.75 -25.2 0 1 77.19 79.35
  C 71.88 68.02 77.85 52.98 91.68 53.25
  Q 92.20 53.26 91.94 52.80
  Q 85.81 42.27 95.39 35.17
  Q 95.85 34.83 95.56 34.33
  C 93.68 31.01 88.01 14.95 96.21 16.11
  Q 117.27 19.07 134.45 31.81
  A 1.47 1.46 -57.0 0 1 134.85 33.71
  L 134.65 34.06
  Q 133.63 35.87 131.97 34.63
  Q 116.27 22.91 96.86 19.82
  Q 95.73 19.64 95.74 20.79
  Q 95.80 27.50 98.93 33.38
  A 0.82 0.82 0.0 0 0 99.81 33.81
  Q 103.05 33.21 106.27 33.96
  Q 106.92 34.11 106.93 33.44
  Q 106.98 30.41 108.43 27.69
  A 1.95 1.93 27.8 0 1 111.04 26.89
  Q 124.56 33.92 134.35 45.60
  A 1.33 1.33 0.0 0 1 134.24 47.42
  L 134.04 47.60
  A 1.48 1.48 0.0 0 1 131.90 47.49
  Q 123.18 37.31 111.52 30.68
  Q 110.54 30.12 110.45 31.25
  L 110.23 34.00
  Q 110.15 34.95 111.01 35.35
  C 119.43 39.24 129.57 49.92 127.33 60.31
  A 0.39 0.39 0.0 0 1 126.70 60.52
  C 121.64 56.23 114.31 59.43 109.63 59.63
  C 104.52 59.85 101.83 58.79 97.70 57.41
  Q 96.96 57.16 97.46 57.76
  Q 102.87 64.20 101.42 72.63
  Q 101.32 73.25 101.89 73.00
  L 106.44 71.03
  Q 107.10 70.75 106.92 71.44
  L 104.98 79.00
  A 1.47 1.46 88.2 0 1 104.02 80.03
  L 99.48 81.55
  Q 98.97 81.73 98.71 82.20
  Q 97.51 84.40 94.90 84.39
  Q 94.23 84.39 94.27 85.06
  L 94.33 85.92
  Q 94.36 86.43 94.85 86.29
  Q 105.27 83.34 115.49 87.09
  Q 125.47 90.75 135.35 94.73
  Q 135.93 94.96 135.67 95.53
  Q 134.99 97.02 136.00 98.26
  A 2.34 2.34 0.0 0 0 139.31 98.57
  C 141.56 96.69 140.24 94.83 138.03 93.91
  Q 127.20 89.44 116.21 85.38
  Q 111.32 83.58 106.24 83.36
  A 0.31 0.30 9.2 0 1 105.96 82.98
  L 110.50 65.18
  A 4.29 4.28 -78.3 0 1 115.32 62.01
  L 152.20 67.85
  A 3.52 3.52 0.0 0 1 155.05 72.24
  Q 149.75 91.95 144.26 112.51
  C 143.60 114.98 142.44 114.98 140.19 115.34
  Q 139.69 115.42 139.39 115.82
  Q 137.73 117.99 135.86 117.17
  C 121.90 111.05 111.77 105.77 103.48 104.87
  Q 100.19 104.51 95.67 102.71
  Q 94.17 102.11 92.17 100.31
  Q 88.92 97.39 84.51 96.98
  Q 83.04 96.84 84.38 97.47
  C 96.68 103.27 101.46 115.32 107.24 129.33
  Q 107.55 130.09 106.85 129.66
  L 106.22 129.28
  A 0.42 0.42 0.0 0 0 105.63 129.84
  C 109.58 137.49 114.78 148.20 124.75 148.24
  Q 132.06 148.27 139.38 148.21
  Q 140.11 148.20 139.54 147.75
  Q 130.13 140.22 123.25 130.30
  A 0.49 0.48 -58.2 0 0 122.37 130.51
  L 122.16 132.02
  Q 122.14 132.17 121.99 132.17
  Q 121.78 132.16 121.70 132.01
  Q 115.73 120.76 110.29 109.23
  Q 110.06 108.76 110.58 108.86
  C 112.70 109.25 114.87 112.81 116.68 115.45
  Q 116.79 115.61 116.96 115.51
  L 116.96 115.51
  Q 117.08 115.44 117.01 115.27
  L 115.26 111.26
  Q 115.02 110.70 115.63 110.69
  Q 116.27 110.68 116.62 111.14
  Q 121.83 117.97 127.06 127.58
  Q 127.42 128.22 126.74 127.94
  L 125.84 127.57
  Q 125.24 127.31 125.37 127.95
  Q 125.41 128.17 125.59 128.42
  C 131.67 136.84 138.13 145.58 147.88 148.78
  A 1.50 1.49 11.7 0 1 148.91 150.34
  Q 148.86 150.86 147.75 150.87
  Q 82.24 151.03 17.00 151.05
  A 0.99 0.98 -2.9 0 1 16.02 150.17
  Q 15.93 149.33 16.89 148.89
  C 21.82 146.60 25.48 145.48 28.15 139.66
  Q 31.48 132.43 33.50 124.72
  Q 33.60 124.34 33.21 124.34
  Q 33.07 124.34 32.95 124.36
  Q 32.47 124.44 32.54 123.96
  Q 34.22 112.99 37.46 102.40
  C 38.26 99.78 39.84 98.63 42.23 97.73
  A 0.29 0.28 83.9 0 1 42.61 98.04
  L 38.48 125.75
  Q 38.37 126.48 37.77 126.04
  L 37.26 125.66
  Q 36.55 125.14 36.33 125.98
  C 34.26 133.62 30.95 141.98 25.33 147.77
  A 0.25 0.25 0.0 0 0 25.51 148.20
  L 92.76 148.20
  A 0.26 0.25 -7.7 0 0 93.01 147.88
  Q 90.49 138.65 91.05 128.99
  C 91.16 127.16 90.26 125.97 90.26 124.32
  Q 90.23 119.18 90.25 114.17
  Q 90.25 113.49 90.87 113.76
  C 91.81 114.16 92.62 114.65 92.99 115.71
  C 94.04 118.68 95.54 121.86 95.50 125.02
  Q 95.48 127.11 95.33 129.19
  Q 95.28 129.89 94.76 129.42
  L 94.29 129.00
  Q 93.80 128.56 93.75 129.22
  Q 92.96 138.45 95.08 147.45
  Q 95.25 148.20 96.02 148.20
  L 114.75 148.21
  Q 115.38 148.21 114.93 147.77
  Q 107.60 140.54 103.09 131.27
  A 0.42 0.42 0.0 0 0 102.31 131.33
  L 102.02 132.28
  Q 101.85 132.83 101.46 132.41
  Q 101.24 132.17 101.06 131.75
  Q 96.93 121.66 94.57 113.99
  A 1.39 1.37 -82.6 0 0 94.00 113.24
  C 88.45 109.61 85.20 107.49 82.22 100.91
  Q 81.83 100.04 81.90 100.99
  C 82.28 106.21 80.52 107.40 75.52 106.07
  C 66.01 103.55 57.60 99.01 48.82 94.71
  Q 46.78 93.71 45.08 94.06
  C 40.55 94.98 34.17 100.74 30.76 103.88
  Q 30.41 104.20 29.94 104.31
  C 28.96 104.54 28.26 104.72 27.69 105.63
  Q 19.76 118.08 13.55 129.97
  Q 12.30 132.37 13.07 129.78
  Q 16.79 117.36 23.80 105.88
  Q 25.99 102.29 29.21 99.53
  Q 36.23 93.51 44.11 88.63
  Q 44.87 88.16 45.72 88.25
  C 57.77 89.51 70.22 94.48 78.43 103.43
  Q 79.83 104.94 78.93 103.09
  Q 76.76 98.62 72.60 95.85
  A 0.53 0.53 0.0 0 1 72.67 94.93
  Q 75.72 93.48 78.63 95.17
  A 0.28 0.28 0.0 0 0 78.97 94.74
  Z
  M 124.07 51.61
  C 120.59 43.55 112.34 36.81 103.14 36.66
  Q 101.66 36.63 103.05 37.13
  Q 115.48 41.56 123.76 51.79
  Q 124.59 52.83 124.07 51.61
  Z
  M 104.83 41.36
  C 103.06 40.66 97.28 39.35 96.84 42.62
  Q 96.67 43.93 97.58 44.93
  Q 103.22 51.18 111.79 49.85
  A 0.69 0.69 0.0 0 0 112.33 48.92
  Q 110.30 43.49 104.83 41.36
  Z
  M 81.49 64.70
  C 84.09 59.98 89.45 58.91 92.69 63.33
  Q 96.82 68.95 96.28 75.27
  Q 96.11 77.36 96.74 75.36
  C 98.49 69.79 96.93 56.94 88.74 56.41
  C 83.84 56.09 81.04 60.12 81.37 64.67
  Q 81.38 64.89 81.49 64.70
  Z
  M 114.10 63.75
  Q 112.91 63.82 112.19 64.90
  A 1.54 1.54 0.0 0 0 112.95 67.21
  L 145.22 78.58
  A 2.00 1.99 -72.3 0 1 146.47 81.02
  L 143.67 90.73
  A 0.74 0.73 27.2 0 0 143.93 91.52
  L 144.21 91.73
  A 0.38 0.38 0.0 0 0 144.81 91.54
  L 147.82 81.29
  A 3.23 3.22 -72.2 0 0 145.79 77.33
  L 114.61 66.43
  A 1.25 1.25 0.0 0 1 113.95 64.63
  L 114.29 64.05
  A 0.20 0.20 0.0 0 0 114.10 63.75
  Z
  M 134.61 69.88
  L 148.23 71.90
  A 1.22 1.22 0.0 0 1 149.22 73.47
  L 148.28 76.48
  A 1.00 0.98 27.0 0 0 148.64 77.56
  L 148.88 77.73
  A 0.33 0.33 0.0 0 0 149.39 77.55
  L 150.89 72.31
  A 1.42 1.41 12.9 0 0 149.77 70.53
  Q 134.86 67.96 119.85 66.06
  Q 117.01 65.70 119.68 66.72
  Q 131.45 71.21 143.55 74.72
  Q 143.79 74.79 143.86 74.59
  L 143.86 74.59
  Q 143.91 74.44 143.71 74.35
  L 134.52 70.16
  Q 133.58 69.73 134.61 69.88
  Z
  M 87.19 71.86
  Q 87.76 70.25 88.16 71.91
  C 89.45 77.32 90.62 82.72 92.88 87.88
  Q 93.40 89.06 93.32 87.77
  C 92.89 81.30 91.93 73.87 87.94 68.34
  A 0.32 0.32 0.0 0 0 87.43 68.33
  C 82.30 75.13 83.14 92.08 94.13 92.81
  Q 94.80 92.86 94.75 93.52
  L 94.47 97.28
  Q 94.42 97.91 94.97 97.60
  Q 97.27 96.35 99.89 96.06
  Q 100.35 96.01 100.36 96.48
  Q 100.42 99.43 103.69 100.83
  Q 109.84 103.46 116.28 106.00
  A 0.30 0.30 0.0 0 0 116.69 105.76
  L 116.75 105.37
  Q 116.81 104.93 116.39 104.75
  L 103.84 99.42
  A 2.48 2.48 0.0 0 1 102.40 96.51
  L 103.68 91.50
  Q 103.81 91.00 103.29 91.00
  C 99.63 91.02 93.48 91.84 90.63 89.67
  C 85.76 85.97 85.47 76.76 87.19 71.86
  Z
  M 111.82 69.54
  C 113.31 70.93 116.22 72.13 117.84 72.56
  A 0.48 0.47 16.6 0 0 118.42 72.25
  L 118.53 71.90
  Q 118.57 71.78 118.45 71.74
  L 111.98 69.29
  Q 111.24 69.01 111.82 69.54
  Z
  M 125.1334 74.5031
  A 2.43 0.63 19.3 0 0 123.0482 73.1054
  A 2.43 0.63 19.3 0 0 120.5466 72.8969
  A 2.43 0.63 19.3 0 0 122.6318 74.2946
  A 2.43 0.63 19.3 0 0 125.1334 74.5031
  Z
  M 131.5945 76.8087
  A 2.32 0.62 20.4 0 0 129.6361 75.4189
  A 2.32 0.62 20.4 0 0 127.2455 75.1913
  A 2.32 0.62 20.4 0 0 129.2039 76.5811
  A 2.32 0.62 20.4 0 0 131.5945 76.8087
  Z
  M 133.85 77.34
  L 133.71 77.66
  Q 133.68 77.74 133.75 77.79
  Q 135.62 79.05 137.84 79.47
  A 0.34 0.33 28.7 0 0 138.15 79.38
  L 138.39 79.15
  A 0.29 0.29 0.0 0 0 138.30 78.67
  L 134.35 77.13
  Q 134.00 77.00 133.85 77.34
  Z
  M 144.3055 81.2579
  A 2.00 0.62 18.6 0 0 142.6078 80.0324
  A 2.00 0.62 18.6 0 0 140.5145 79.9821
  A 2.00 0.62 18.6 0 0 142.2122 81.2076
  A 2.00 0.62 18.6 0 0 144.3055 81.2579
  Z
  M 115.02 89.16
  L 115.07 88.41
  A 0.18 0.18 0.0 0 0 114.90 88.21
  L 114.70 88.20
  A 17.58 0.46 3.8 0 0 97.13 87.50
  L 97.11 87.69
  A 17.58 0.46 3.8 0 0 114.62 89.32
  L 114.82 89.33
  A 0.18 0.18 0.0 0 0 115.02 89.16
  Z
  M 115.85 89.68
  L 114.84 90.08
  Q 114.18 90.34 114.74 90.79
  C 119.49 94.61 124.78 95.18 130.35 97.46
  Q 131.14 97.78 131.31 96.94
  L 131.40 96.53
  A 0.83 0.82 -75.1 0 0 130.86 95.59
  C 126.24 93.98 120.65 92.95 116.79 89.82
  Q 116.36 89.48 115.85 89.68
  Z
  M 43.81 93.01
  C 45.72 92.21 46.97 92.05 49.06 92.68
  Q 54.92 94.44 60.63 96.63
  Q 60.86 96.72 60.96 96.48
  L 61.05 96.25
  Q 61.05 96.24 61.04 96.23
  Q 54.31 93.44 47.88 89.96
  Q 47.45 89.72 47.01 89.96
  Q 44.65 91.23 43.44 92.46
  Q 42.25 93.68 43.81 93.01
  Z
  M 99.66 117.96
  C 99.00 115.69 98.49 113.51 97.67 111.27
  C 97.26 110.16 96.64 110.05 95.91 109.41
  Q 90.27 104.46 85.11 99.86
  Q 83.80 98.69 84.76 100.16
  Q 88.17 105.38 93.09 109.71
  C 96.02 112.28 97.50 114.93 99.25 118.13
  Q 100.23 119.92 99.66 117.96
  Z
  M 136.63 113.21
  L 135.46 113.27
  A 0.43 0.43 0.0 0 0 135.17 114.01
  Q 135.59 114.42 136.17 114.65
  A 1.80 1.80 0.0 0 0 138.57 113.46
  L 141.12 104.30
  Q 141.21 103.99 140.88 103.96
  L 140.48 103.93
  A 0.67 0.66 10.2 0 0 139.79 104.40
  L 137.39 112.62
  A 0.84 0.83 6.9 0 1 136.63 113.21
  Z
  M 125.8131 109.3988
  A 0.58 0.58 0.0 0 0 125.5112 108.6362
  L 120.3534 106.4042
  A 0.58 0.58 0.0 0 0 119.5907 106.7061
  L 119.5669 106.7612
  A 0.58 0.58 0.0 0 0 119.8688 107.5238
  L 125.0266 109.7558
  A 0.58 0.58 0.0 0 0 125.7893 109.4539
  L 125.8131 109.3988
  Z
  M 132.9776 112.4040
  A 0.56 0.56 0.0 0 0 132.6783 111.6707
  L 128.7512 110.0199
  A 0.56 0.56 0.0 0 0 128.0179 110.3191
  L 128.0024 110.3560
  A 0.56 0.56 0.0 0 0 128.3017 111.0893
  L 132.2288 112.7401
  A 0.56 0.56 0.0 0 0 132.9621 112.4409
  L 132.9776 112.4040
  Z"
/>
<path fill="#aaaaaa" d="
  M 53.40 70.80
  A 0.32 0.32 0.0 0 0 52.83 70.83
  L 46.50 84.69
  Q 46.31 85.11 45.90 85.32
  L 37.65 89.63
  Q 37.32 89.80 37.48 89.47
  Q 43.45 77.08 52.76 66.98
  A 1.74 1.74 0.0 0 1 55.17 66.84
  Q 67.44 77.41 73.85 92.26
  A 0.48 0.48 0.0 0 1 73.46 92.93
  Q 72.06 93.09 71.00 93.98
  Q 70.57 94.35 70.08 94.07
  C 63.10 90.09 57.50 77.55 53.40 70.80
  Z"
/>
<path fill="#aaaaaa" d="
  M 60.83 139.01
  L 59.06 137.37
  Q 58.69 137.03 59.04 136.67
  L 66.44 129.17
  Q 66.79 128.82 67.22 129.06
  L 71.52 131.46
  Q 72.96 132.26 71.84 131.06
  Q 70.15 129.22 68.65 128.22
  Q 67.65 127.56 68.28 126.53
  L 72.15 120.31
  Q 72.73 119.38 73.66 119.95
  L 76.80 121.88
  Q 78.80 123.11 77.22 121.37
  C 69.98 113.41 58.12 107.03 47.44 105.92
  Q 46.77 105.85 47.25 105.37
  L 52.99 99.55
  Q 53.37 99.16 53.85 99.41
  C 58.96 102.09 77.96 111.99 82.54 106.96
  Q 82.91 106.55 83.26 106.97
  L 85.62 109.71
  Q 85.97 110.12 86.02 110.66
  C 87.74 130.76 68.28 147.64 48.76 145.29
  A 2.55 2.55 0.0 0 1 46.95 144.21
  Q 39.65 133.70 41.27 120.82
  Q 41.40 119.77 42.45 119.87
  Q 53.13 120.92 62.32 126.45
  Q 62.87 126.78 62.50 127.31
  L 57.00 134.93
  Q 56.68 135.38 56.19 135.11
  C 53.75 133.78 49.28 131.59 46.56 131.77
  Q 46.28 131.79 46.53 131.91
  L 55.15 135.93
  Q 55.98 136.32 55.34 136.97
  L 51.30 141.10
  Q 50.70 141.71 51.50 141.41
  C 53.65 140.58 55.42 139.08 57.30 137.81
  A 0.73 0.71 -41.9 0 1 58.16 137.85
  Q 59.33 138.80 60.62 139.33
  Q 61.63 139.74 60.83 139.01
  Z"
/>
<path fill="#aaaaaa" d="
  M 41.93 116.46
  L 44.86 109.23
  A 1.18 1.18 0.0 0 1 46.01 108.49
  C 53.87 108.86 62.02 112.83 68.35 116.94
  Q 68.57 117.08 68.44 117.30
  L 64.39 124.39
  Q 64.23 124.65 63.98 124.49
  Q 54.19 118.07 42.46 117.31
  Q 41.61 117.25 41.93 116.46
  Z"
/>
</svg>
