<?xml version="1.0" encoding="UTF-8" standalone="no"?>
<!DOCTYPE svg PUBLIC "-//W3C//DTD SVG 1.1//EN" "http://www.w3.org/Graphics/SVG/1.1/DTD/svg11.dtd">
<svg xmlns="http://www.w3.org/2000/svg" version="1.1" viewBox="0.00 0.00 160.00 160.00">
<path fill="#dbdbdb" d="
  M 45.11 119.53
  Q 45.62 119.94 45.62 119.28
  L 45.62 47.12
  Q 45.62 43.86 48.88 43.87
  L 61.98 43.91
  A 0.39 0.39 0.0 0 0 62.37 43.52
  L 62.39 26.55
  A 0.32 0.31 -90.0 0 1 62.70 26.23
  L 94.42 26.19
  Q 94.71 26.19 94.71 26.49
  L 94.74 32.01
  A 0.26 0.26 0.0 0 1 94.48 32.27
  L 68.48 32.28
  A 0.50 0.49 0.0 0 0 67.98 32.77
  L 67.99 44.98
  A 3.45 3.45 0.0 0 1 64.52 48.43
  L 50.08 48.36
  A 0.37 0.36 -0.0 0 0 49.71 48.72
  L 49.71 117.99
  Q 49.71 118.54 50.25 118.66
  Q 54.34 119.57 56.38 123.25
  A 1.58 1.56 75.4 0 0 57.75 124.06
  L 99.84 124.00
  A 1.45 1.44 -85.3 0 0 101.26 122.79
  L 101.61 120.71
  A 1.06 1.06 0.0 0 0 100.42 119.49
  L 98.31 119.79
  Q 97.62 119.89 97.66 119.19
  L 97.78 117.24
  Q 97.82 116.65 97.23 116.59
  L 95.25 116.37
  A 0.62 0.62 0.0 0 1 94.84 115.36
  L 96.19 113.74
  A 0.54 0.54 0.0 0 0 96.07 112.94
  L 93.92 111.53
  Q 93.14 111.02 93.99 110.63
  L 96.03 109.70
  A 0.60 0.60 0.0 0 0 96.19 108.72
  Q 95.18 107.79 94.73 106.51
  A 0.34 0.33 76.1 0 1 94.99 106.07
  L 97.51 105.72
  Q 97.95 105.66 97.90 105.23
  L 97.65 102.84
  Q 97.60 102.27 98.15 102.40
  L 99.88 102.79
  A 0.93 0.92 -76.1 0 0 100.98 102.12
  L 101.53 99.97
  Q 101.72 99.22 102.29 99.75
  L 103.83 101.20
  Q 104.29 101.64 104.62 101.10
  L 105.90 99.00
  Q 106.24 98.43 106.62 98.98
  L 108.03 101.07
  A 0.52 0.52 0.0 0 0 108.83 101.14
  L 110.05 99.88
  A 0.69 0.69 0.0 0 1 111.21 100.20
  L 111.77 102.48
  A 0.58 0.58 0.0 0 0 112.48 102.90
  L 114.76 102.29
  Q 115.41 102.12 115.27 102.77
  L 114.78 105.03
  Q 114.65 105.66 115.28 105.73
  L 117.57 106.02
  Q 118.24 106.10 118.24 105.42
  L 118.25 48.93
  Q 118.25 48.37 117.68 48.37
  L 105.15 48.39
  A 3.75 3.75 0.0 0 1 101.40 44.65
  L 101.36 32.81
  Q 101.35 32.28 100.81 32.27
  L 99.00 32.26
  Q 98.25 32.25 98.25 31.50
  L 98.23 26.99
  Q 98.22 26.21 99.01 26.21
  L 106.56 26.15
  A 1.09 1.09 0.0 0 1 107.33 26.47
  L 125.88 44.76
  Q 126.25 45.12 126.25 45.64
  L 126.25 106.97
  A 1.21 1.19 67.8 0 1 125.90 107.82
  L 104.04 129.68
  A 1.20 1.15 -66.6 0 1 103.21 130.03
  L 45.00 130.02
  A 5.28 5.27 0.1 0 1 39.73 124.75
  L 39.73 31.19
  Q 39.73 29.16 41.28 27.84
  L 42.41 26.89
  Q 43.86 25.67 43.86 27.56
  Q 43.89 71.04 43.87 115.33
  C 43.87 116.92 43.79 118.49 45.11 119.53
  Z
  M 116.81 41.75
  A 0.31 0.31 0.0 0 0 117.03 41.22
  L 107.48 31.81
  A 0.31 0.31 0.0 0 0 106.95 32.03
  L 107.08 41.45
  A 0.31 0.31 0.0 0 0 107.39 41.75
  L 116.81 41.75
  Z
  M 104.02 111.70
  L 102.28 109.59
  Q 101.48 108.62 100.42 109.29
  L 100.16 109.46
  A 0.70 0.69 -37.7 0 0 100.02 110.52
  L 104.06 114.80
  A 0.87 0.87 0.0 0 0 105.38 114.74
  L 112.54 105.58
  A 0.80 0.79 36.2 0 0 112.36 104.44
  L 112.14 104.28
  Q 111.36 103.73 110.75 104.48
  L 104.93 111.69
  Q 104.48 112.26 104.02 111.70
  Z
  M 114.06 110.77
  C 113.66 111.18 113.20 111.61 112.95 111.99
  Q 112.51 112.65 113.15 112.18
  Q 114.06 111.51 114.72 110.60
  Q 115.05 110.16 114.56 110.40
  Q 114.28 110.54 114.06 110.77
  Z
  M 104.79 120.11
  Q 104.02 120.92 104.95 120.30
  Q 106.12 119.52 107.01 118.30
  Q 107.80 117.23 106.81 118.10
  Q 106.18 118.66 104.79 120.11
  Z"
/>
<path fill="#dbdbdb" d="
  M 57.95 26.22
  A 0.34 0.34 0.0 0 1 58.29 26.56
  L 58.31 37.89
  A 3.09 3.01 -0.1 0 1 55.22 40.90
  L 48.72 40.92
  A 3.09 3.01 -0.1 0 1 45.63 37.91
  L 45.61 26.58
  A 0.34 0.34 0.0 0 1 45.95 26.24
  L 57.95 26.22
  Z"
/>
<path fill="#dbdbdb" d="
  M 121.55 31.34
  L 117.73 27.81
  Q 117.28 27.40 117.90 27.34
  C 126.97 26.52 126.67 30.76 126.19 38.14
  Q 126.14 38.83 125.65 38.35
  L 122.26 35.09
  Q 121.88 34.72 121.88 34.18
  L 121.86 32.06
  A 0.99 0.98 -68.8 0 0 121.55 31.34
  Z"
/>
<path fill="#dbdbdb" d="
  M 96.46 50.89
  A 12.08 12.08 0.0 0 1 84.38 62.97
  A 12.08 12.08 0.0 0 1 72.30 50.89
  A 12.08 12.08 0.0 0 1 84.38 38.81
  A 12.08 12.08 0.0 0 1 96.46 50.89
  Z
  M 85.52 56.07
  L 85.36 52.07
  Q 85.34 51.58 84.88 51.39
  C 83.56 50.86 81.62 50.48 80.86 49.40
  C 79.68 47.70 80.95 45.24 83.03 44.93
  Q 83.47 44.86 83.47 45.31
  L 83.44 47.99
  Q 83.44 48.54 83.99 48.60
  L 84.69 48.68
  A 0.61 0.61 0.0 0 0 85.37 48.06
  L 85.37 45.26
  A 0.49 0.48 -73.3 0 1 86.12 44.85
  Q 87.38 45.68 88.90 45.56
  A 0.57 0.56 83.7 0 0 89.41 44.92
  L 89.30 44.05
  Q 89.24 43.61 88.81 43.49
  L 85.96 42.73
  Q 85.55 42.62 85.50 42.20
  L 85.44 41.55
  Q 85.38 40.96 84.79 40.92
  L 84.09 40.87
  Q 83.52 40.84 83.45 41.41
  L 83.35 42.11
  Q 83.27 42.75 82.63 42.85
  C 76.53 43.73 76.76 52.17 82.97 52.97
  Q 83.47 53.04 83.46 53.54
  L 83.43 56.41
  Q 83.42 57.01 82.89 56.73
  Q 81.32 55.90 80.23 55.94
  Q 77.52 56.04 79.69 57.62
  Q 81.09 58.64 82.91 58.78
  Q 83.56 58.83 83.48 59.48
  Q 83.40 60.10 83.54 60.69
  A 0.59 0.58 78.3 0 0 84.20 61.13
  L 84.69 61.06
  Q 85.33 60.95 85.36 60.31
  L 85.39 59.52
  Q 85.41 58.94 85.99 58.87
  Q 90.82 58.22 90.69 53.44
  Q 90.67 52.72 89.96 52.84
  L 89.23 52.96
  A 0.60 0.59 85.5 0 0 88.73 53.55
  Q 88.74 56.14 86.26 56.64
  Q 85.55 56.78 85.52 56.07
  Z"
/>
<rect fill="#dbdbdb" x="-7.47" y="-1.35" transform="translate(60.64,57.41) rotate(-0.1)" width="14.94" height="2.70" rx="1.31"/>
<rect fill="#dbdbdb" x="101.25" y="56.05" width="13.36" height="2.72" rx="1.32"/>
<rect fill="#dbdbdb" x="-9.10" y="-1.36" transform="translate(62.26,62.66) rotate(-0.2)" width="18.20" height="2.72" rx="1.32"/>
<rect fill="#dbdbdb" x="-8.88" y="-1.38" transform="translate(105.74,62.66) rotate(0.1)" width="17.76" height="2.76" rx="1.34"/>
<rect fill="#dbdbdb" x="53.16" y="66.50" width="61.44" height="3.06" rx="1.48"/>
<rect fill="#dbdbdb" x="53.21" y="71.74" width="61.44" height="3.04" rx="1.50"/>
<rect fill="#dbdbdb" x="53.23" y="77.09" width="61.36" height="3.06" rx="1.51"/>
<rect fill="#dbdbdb" x="53.26" y="82.50" width="61.36" height="2.94" rx="1.43"/>
<rect fill="#dbdbdb" x="53.26" y="87.72" width="61.36" height="2.86" rx="1.42"/>
<rect fill="#dbdbdb" x="53.15" y="92.97" width="61.52" height="3.14" rx="1.55"/>
<rect fill="#dbdbdb" x="-20.82" y="-1.53" transform="translate(73.97,99.93) rotate(-0.1)" width="41.64" height="3.06" rx="1.50"/>
<rect fill="#dbdbdb" x="53.23" y="106.17" width="35.92" height="3.06" rx="1.48"/>
<rect fill="#dbdbdb" x="53.25" y="111.51" width="24.92" height="3.22" rx="1.58"/>
<path fill="#dbdbdb" d="
  M 114.03 124.23
  C 120.21 124.51 122.56 124.80 121.89 117.20
  Q 121.79 116.10 122.52 115.27
  L 125.43 111.95
  Q 126.25 111.01 126.25 112.25
  L 126.24 125.13
  A 4.88 4.87 -90.0 0 1 121.37 130.01
  L 109.00 130.03
  Q 108.28 130.03 108.74 129.49
  L 112.75 124.78
  A 1.60 1.57 -67.8 0 1 114.03 124.23
  Z"
/>
<rect fill="#dbdbdb" x="-11.31" y="-1.56" transform="translate(76.66,119.55) rotate(0.1)" width="22.62" height="3.12" rx="1.53"/>
</svg>
