<?xml version="1.0" encoding="UTF-8" standalone="no"?>
<!DOCTYPE svg PUBLIC "-//W3C//DTD SVG 1.1//EN" "http://www.w3.org/Graphics/SVG/1.1/DTD/svg11.dtd">
<svg xmlns="http://www.w3.org/2000/svg" version="1.1" viewBox="0.00 0.00 160.00 160.00">
<path fill="#d5d5d5" d="
  M 98.74 43.47
  A 0.29 0.29 0.0 0 0 99.23 43.26
  L 99.24 35.73
  Q 99.25 33.17 101.80 33.13
  Q 104.53 33.07 107.50 33.14
  C 110.93 33.21 110.49 35.46 110.48 38.32
  Q 110.44 45.97 110.50 53.62
  Q 110.51 54.21 110.93 54.62
  L 133.88 76.37
  A 2.84 2.84 0.0 0 1 133.71 80.65
  L 132.86 81.33
  Q 129.69 83.89 126.71 81.11
  L 80.87 38.19
  A 0.63 0.62 -45.3 0 0 80.01 38.20
  L 33.62 81.80
  A 3.79 3.78 44.6 0 1 28.48 81.83
  L 27.98 81.37
  Q 24.80 78.47 27.94 75.53
  L 78.02 28.56
  A 3.56 3.56 0.0 0 1 82.91 28.57
  L 98.74 43.47
  Z"
/>
<path fill="#aaaaaa" d="
  M 82.93 65.53
  C 83.24 62.49 87.84 63.19 90.26 62.39
  Q 90.72 62.24 90.65 61.76
  L 89.55 54.29
  A 0.55 0.54 -11.2 0 1 89.96 53.69
  L 90.29 53.60
  Q 90.84 53.47 90.91 54.02
  L 91.92 62.37
  A 0.93 0.93 0.0 0 1 91.15 63.40
  L 84.72 64.48
  A 0.48 0.48 0.0 0 0 84.49 65.31
  C 87.52 67.95 91.92 77.81 84.00 77.66
  Q 83.23 77.65 83.82 78.14
  Q 87.80 81.41 86.09 85.96
  C 85.56 87.39 83.81 88.23 83.86 89.92
  Q 83.92 91.97 84.43 93.98
  Q 84.58 94.57 84.00 94.37
  Q 80.51 93.16 77.01 94.45
  A 0.33 0.32 -88.3 0 1 76.60 94.01
  Q 77.59 91.75 77.19 89.24
  A 1.18 1.15 20.2 0 0 76.89 88.61
  Q 71.97 83.23 77.22 78.21
  Q 77.86 77.60 76.98 77.61
  C 69.23 77.70 73.70 67.87 76.67 65.22
  A 0.35 0.35 0.0 0 0 76.50 64.62
  L 70.02 63.38
  A 0.99 0.99 0.0 0 1 69.22 62.30
  L 70.14 54.13
  A 0.66 0.66 0.0 0 1 71.11 53.62
  L 71.37 53.76
  A 0.32 0.31 -72.6 0 1 71.53 54.08
  L 70.50 61.73
  Q 70.43 62.25 70.93 62.40
  Q 73.91 63.24 75.67 63.35
  Q 77.94 63.50 78.00 65.45
  A 0.31 0.31 0.0 0 0 78.58 65.59
  Q 78.85 65.10 78.67 64.49
  A 0.76 0.75 -26.1 0 1 78.95 63.68
  Q 80.32 62.72 81.77 63.48
  Q 82.32 63.78 82.30 64.40
  Q 82.28 65.06 82.60 65.60
  Q 82.88 66.08 82.93 65.53
  Z
  M 74.6534 72.4584
  A 2.05 1.01 117.5 0 0 76.4959 71.1064
  A 2.05 1.01 117.5 0 0 76.5466 68.8216
  A 2.05 1.01 117.5 0 0 74.7041 70.1736
  A 2.05 1.01 117.5 0 0 74.6534 72.4584
  Z
  M 86.4465 72.4660
  A 2.07 1.04 63.1 0 0 86.4375 70.1495
  A 2.07 1.04 63.1 0 0 84.5735 68.7740
  A 2.07 1.04 63.1 0 0 84.5825 71.0905
  A 2.07 1.04 63.1 0 0 86.4465 72.4660
  Z
  M 77.00 84.03
  Q 77.24 83.86 77.32 82.80
  C 77.43 81.15 79.49 79.57 80.80 79.26
  A 0.40 0.40 0.0 0 0 80.71 78.47
  Q 75.90 78.42 75.94 83.23
  Q 75.95 84.74 77.00 84.03
  Z"
/>
<path fill="#aaaaaa" d="
  M 63.07 73.12
  L 57.86 67.37
  A 0.24 0.23 -42.4 0 1 57.88 67.04
  L 58.08 66.85
  A 0.42 0.42 0.0 0 1 58.63 66.83
  Q 64.51 71.72 67.14 78.87
  A 0.83 0.83 0.0 0 0 67.84 79.41
  Q 71.69 79.81 73.42 81.31
  Q 74.24 82.02 73.57 82.77
  Q 73.26 83.12 72.80 83.01
  C 67.06 81.57 65.92 79.16 63.08 74.44
  A 0.87 0.85 37.9 0 1 62.99 73.79
  Q 63.06 73.58 63.12 73.36
  Q 63.16 73.22 63.07 73.12
  Z"
/>
<path fill="#aaaaaa" d="
  M 97.53 72.44
  Q 99.48 69.14 102.50 66.77
  A 0.49 0.48 -41.2 0 1 103.14 66.81
  L 103.36 67.02
  Q 103.57 67.23 103.35 67.43
  Q 101.35 69.29 99.67 71.33
  Q 98.71 72.50 97.40 75.55
  Q 94.92 81.36 88.37 82.99
  Q 87.85 83.12 87.54 82.68
  L 87.37 82.46
  A 0.82 0.81 56.8 0 1 87.61 81.29
  Q 90.33 79.69 93.45 79.28
  Q 93.86 79.23 93.99 78.84
  Q 94.61 76.96 96.10 73.84
  Q 96.40 73.20 96.86 73.01
  Q 97.29 72.84 97.53 72.44
  Z"
/>
<path fill="#d5d5d5" d="
  M 114.97 121.96
  A 0.43 0.42 -90.0 0 0 115.39 121.53
  L 115.46 75.55
  A 0.11 0.11 0.0 0 1 115.64 75.47
  L 122.70 82.22
  A 0.54 0.53 20.9 0 1 122.88 82.62
  L 122.88 126.29
  A 2.92 2.92 0.0 0 1 119.96 129.21
  L 40.97 129.21
  A 2.50 2.49 -0.0 0 1 38.47 126.72
  L 38.48 82.47
  A 0.51 0.51 0.0 0 1 38.63 82.11
  L 45.61 75.33
  A 0.10 0.10 0.0 0 1 45.78 75.40
  L 45.76 121.48
  A 0.48 0.47 90.0 0 0 46.23 121.96
  L 114.97 121.96
  Z"
/>
<path fill="#aaaaaa" d="
  M 59.61 94.85
  A 0.48 0.47 53.7 0 1 59.69 94.31
  C 64.27 89.80 69.91 85.14 75.39 88.42
  Q 76.76 89.23 75.24 89.69
  C 72.86 90.39 71.34 88.93 69.16 88.78
  Q 68.69 88.75 68.35 89.07
  L 61.03 95.79
  Q 60.41 96.36 60.02 95.62
  L 59.61 94.85
  Z"
/>
<path fill="#aaaaaa" d="
  M 91.80 88.74
  Q 88.43 90.07 86.10 89.70
  Q 84.26 89.41 85.85 88.43
  C 91.39 85.00 96.96 90.35 101.38 94.24
  A 0.65 0.64 -48.9 0 1 101.44 95.14
  L 101.16 95.48
  Q 100.57 96.19 99.88 95.56
  L 92.61 88.89
  A 0.78 0.77 55.2 0 0 91.80 88.74
  Z"
/>
<path fill="#aaaaaa" d="
  M 64.24 105.17
  Q 61.88 111.28 57.54 116.16
  Q 57.21 116.54 56.80 116.24
  L 56.52 116.03
  Q 56.18 115.78 56.46 115.46
  C 58.15 113.61 63.26 106.93 63.01 104.50
  C 62.77 102.16 65.26 96.63 66.23 94.32
  A 1.64 1.64 0.0 0 1 67.47 93.34
  L 75.60 92.01
  Q 76.48 91.86 76.09 92.66
  C 75.08 94.73 69.45 95.32 67.43 95.44
  Q 66.91 95.46 66.82 95.98
  Q 66.07 100.07 65.63 104.13
  Q 65.57 104.72 64.88 104.73
  Q 64.41 104.73 64.24 105.17
  Z"
/>
<path fill="#aaaaaa" d="
  M 96.93 104.69
  Q 96.54 104.74 96.15 104.67
  Q 95.61 104.58 95.53 104.04
  L 94.40 95.84
  A 0.58 0.58 0.0 0 0 93.81 95.34
  C 91.60 95.37 86.63 94.77 85.10 92.80
  Q 84.31 91.78 85.58 92.00
  L 93.95 93.40
  A 1.01 0.99 -7.5 0 1 94.68 93.95
  Q 96.78 98.51 98.22 103.48
  Q 98.32 103.85 98.21 104.17
  Q 98.03 104.65 98.21 105.13
  Q 100.41 110.89 104.60 115.39
  Q 104.89 115.70 104.56 115.97
  L 104.33 116.16
  Q 103.91 116.49 103.56 116.10
  C 102.25 114.61 96.80 107.52 97.18 104.93
  Q 97.22 104.64 96.93 104.69
  Z"
/>
<path fill="#aaaaaa" d="
  M 70.95 105.09
  C 70.84 89.50 94.25 92.43 89.80 107.93
  Q 88.52 112.38 84.68 115.19
  C 77.82 120.19 71.00 111.20 70.95 105.09
  Z
  M 73.01 101.17
  C 74.41 99.07 76.87 97.24 79.46 96.70
  Q 81.12 96.36 79.46 96.25
  Q 74.17 95.91 72.73 101.04
  Q 72.47 101.97 73.01 101.17
  Z"
/>
<rect fill="#aaaaaa" x="-4.33" y="-0.60" transform="translate(55.88,98.18) rotate(-30.3)" width="8.66" height="1.20" rx="0.48"/>
<rect fill="#aaaaaa" x="-4.30" y="-0.58" transform="translate(105.24,98.21) rotate(30.3)" width="8.60" height="1.16" rx="0.50"/>
</svg>
