<?xml version="1.0" encoding="UTF-8" standalone="no"?>
<!DOCTYPE svg PUBLIC "-//W3C//DTD SVG 1.1//EN" "http://www.w3.org/Graphics/SVG/1.1/DTD/svg11.dtd">
<svg xmlns="http://www.w3.org/2000/svg" version="1.1" viewBox="0.00 0.00 160.00 160.00">
<path fill="#e9e9e9" d="
  M 70.79 116.72
  Q 62.61 114.95 55.69 110.25
  Q 55.19 109.91 54.73 110.30
  L 48.25 115.91
  A 2.91 2.90 47.2 0 1 44.29 115.75
  L 36.92 108.30
  Q 34.62 105.97 36.75 103.48
  L 42.15 97.15
  Q 42.56 96.67 42.24 96.13
  Q 38.61 90.08 37.04 83.20
  A 0.92 0.91 86.4 0 0 36.25 82.50
  L 26.61 81.42
  Q 24.89 81.23 24.90 79.49
  L 24.98 68.22
  A 1.78 1.77 86.5 0 1 26.52 66.47
  L 36.25 65.21
  Q 36.86 65.13 36.99 64.52
  Q 38.51 57.36 42.27 51.05
  Q 42.60 50.51 42.18 50.02
  L 36.24 43.03
  A 2.34 2.34 0.0 0 1 36.35 39.87
  L 44.50 31.53
  A 2.41 2.40 41.1 0 1 47.70 31.32
  L 54.60 36.73
  A 1.12 1.11 -42.1 0 0 55.89 36.79
  Q 62.86 32.24 70.94 30.27
  A 0.63 0.61 -2.9 0 0 71.41 29.76
  L 72.81 19.98
  A 1.73 1.73 0.0 0 1 74.52 18.49
  L 86.03 18.48
  A 1.80 1.79 -4.1 0 1 87.81 20.02
  L 89.19 29.76
  Q 89.25 30.24 89.73 30.35
  Q 97.59 32.18 104.37 36.57
  A 1.71 1.71 0.0 0 0 106.38 36.47
  L 112.68 31.33
  A 2.53 2.53 0.0 0 1 116.09 31.54
  L 124.01 39.71
  Q 125.72 41.47 124.12 43.32
  L 118.35 50.05
  A 0.73 0.72 -40.0 0 0 118.27 50.90
  Q 122.06 57.32 123.57 64.63
  Q 123.68 65.14 124.19 65.20
  L 133.96 66.45
  A 1.79 1.79 0.0 0 1 135.52 68.21
  L 135.53 79.72
  A 1.68 1.67 -3.3 0 1 134.04 81.38
  L 124.22 82.49
  Q 123.66 82.56 123.53 83.11
  Q 121.99 90.00 118.44 96.10
  Q 118.10 96.69 118.54 97.21
  L 124.32 104.17
  Q 125.83 105.99 124.17 107.66
  L 116.22 115.74
  A 2.87 2.87 0.0 0 1 112.31 115.90
  L 105.77 110.30
  A 0.80 0.79 -41.9 0 0 104.81 110.25
  Q 97.87 114.86 89.74 116.72
  Q 89.30 116.82 89.24 117.26
  L 87.86 127.07
  A 1.70 1.69 3.7 0 1 86.19 128.53
  L 74.58 128.59
  A 1.79 1.79 0.0 0 1 72.81 127.07
  L 71.32 117.27
  Q 71.25 116.82 70.79 116.72
  Z
  M 78.2357 33.2741
  A 0.43 0.43 0.0 0 0 77.7552 32.9014
  L 74.2034 33.3501
  A 0.43 0.43 0.0 0 0 73.8307 33.8306
  L 74.2243 36.9459
  A 0.43 0.43 0.0 0 0 74.7048 37.3186
  L 78.2566 36.8699
  A 0.43 0.43 0.0 0 0 78.6293 36.3894
  L 78.2357 33.2741
  Z
  M 86.8101 33.8022
  A 0.33 0.33 0.0 0 0 86.5319 33.4276
  L 82.7924 32.8754
  A 0.33 0.33 0.0 0 0 82.4178 33.1536
  L 81.9299 36.4578
  A 0.33 0.33 0.0 0 0 82.2081 36.8324
  L 85.9476 37.3846
  A 0.33 0.33 0.0 0 0 86.3222 37.1064
  L 86.8101 33.8022
  Z
  M 66.4995 35.8862
  A 0.43 0.43 0.0 0 0 65.9310 35.6702
  L 62.6657 37.1378
  A 0.43 0.43 0.0 0 0 62.4497 37.7062
  L 63.7205 40.5338
  A 0.43 0.43 0.0 0 0 64.2890 40.7498
  L 67.5543 39.2822
  A 0.43 0.43 0.0 0 0 67.7703 38.7138
  L 66.4995 35.8862
  Z
  M 98.1329 37.5858
  A 0.26 0.26 0.0 0 0 98.0084 37.2399
  L 94.6062 35.6389
  A 0.26 0.26 0.0 0 0 94.2603 35.7635
  L 92.7871 38.8942
  A 0.26 0.26 0.0 0 0 92.9116 39.2401
  L 96.3138 40.8411
  A 0.26 0.26 0.0 0 0 96.6597 40.7165
  L 98.1329 37.5858
  Z
  M 52.32 43.79
  A 0.31 0.31 0.0 0 0 52.29 44.24
  L 54.89 47.01
  A 0.31 0.31 0.0 0 0 55.34 47.02
  L 57.89 44.39
  A 0.31 0.31 0.0 0 0 57.92 43.99
  L 55.89 41.30
  A 0.31 0.31 0.0 0 0 55.45 41.24
  L 52.32 43.79
  Z
  M 105.31 47.01
  A 0.31 0.31 0.0 0 0 105.75 46.99
  L 108.27 44.27
  A 0.31 0.31 0.0 0 0 108.24 43.82
  L 105.10 41.27
  A 0.31 0.31 0.0 0 0 104.66 41.31
  L 102.46 44.06
  A 0.31 0.31 0.0 0 0 102.50 44.49
  L 105.31 47.01
  Z
  M 112.15 73.50
  A 31.85 31.85 0.0 0 0 80.30 41.65
  A 31.85 31.85 0.0 0 0 48.45 73.50
  A 31.85 31.85 0.0 0 0 80.30 105.35
  A 31.85 31.85 0.0 0 0 112.15 73.50
  Z
  M 113.50 50.28
  A 0.31 0.31 0.0 0 0 113.56 49.85
  L 111.23 46.71
  A 0.31 0.31 0.0 0 0 110.77 46.67
  L 108.07 49.28
  A 0.31 0.31 0.0 0 0 108.04 49.69
  L 110.11 52.39
  A 0.31 0.31 0.0 0 0 110.53 52.45
  L 113.50 50.28
  Z
  M 52.56 49.60
  A 0.31 0.31 0.0 0 0 52.51 49.18
  L 49.82 46.77
  A 0.31 0.31 0.0 0 0 49.37 46.81
  L 47.03 49.93
  A 0.31 0.31 0.0 0 0 47.09 50.36
  L 50.00 52.59
  A 0.31 0.31 0.0 0 0 50.44 52.53
  L 52.56 49.60
  Z
  M 46.71 59.58
  A 0.34 0.34 0.0 0 0 46.51 59.16
  L 43.30 57.83
  A 0.34 0.34 0.0 0 0 42.85 58.03
  L 41.57 61.64
  A 0.34 0.34 0.0 0 0 41.79 62.08
  L 45.13 63.14
  A 0.34 0.34 0.0 0 0 45.56 62.93
  L 46.71 59.58
  Z
  M 117.7827 58.1734
  A 0.54 0.54 0.0 0 0 117.0883 57.8555
  L 114.1640 58.9430
  A 0.54 0.54 0.0 0 0 113.8461 59.6374
  L 115.0173 62.7866
  A 0.54 0.54 0.0 0 0 115.7117 63.1045
  L 118.6360 62.0170
  A 0.54 0.54 0.0 0 0 118.9539 61.3226
  L 117.7827 58.1734
  Z
  M 43.7568 71.7655
  A 0.34 0.34 0.0 0 0 43.4144 71.4278
  L 39.9145 71.4523
  A 0.34 0.34 0.0 0 0 39.5769 71.7946
  L 39.6032 75.5745
  A 0.34 0.34 0.0 0 0 39.9456 75.9122
  L 43.4455 75.8877
  A 0.34 0.34 0.0 0 0 43.7831 75.5454
  L 43.7568 71.7655
  Z
  M 120.8700 71.7790
  A 0.34 0.34 0.0 0 0 120.5282 71.4408
  L 117.0083 71.4592
  A 0.34 0.34 0.0 0 0 116.6701 71.8010
  L 116.6900 75.6010
  A 0.34 0.34 0.0 0 0 117.0318 75.9392
  L 120.5517 75.9208
  A 0.34 0.34 0.0 0 0 120.8899 75.5790
  L 120.8700 71.7790
  Z
  M 45.5166 84.3175
  A 0.45 0.45 0.0 0 0 44.9343 84.0607
  L 41.8017 85.2757
  A 0.45 0.45 0.0 0 0 41.5449 85.8580
  L 42.8034 89.1025
  A 0.45 0.45 0.0 0 0 43.3857 89.3593
  L 46.5183 88.1443
  A 0.45 0.45 0.0 0 0 46.7751 87.5620
  L 45.5166 84.3175
  Z
  M 119.0121 86.0028
  A 0.47 0.47 0.0 0 0 118.7631 85.3865
  L 115.7439 84.1049
  A 0.47 0.47 0.0 0 0 115.1276 84.3539
  L 113.7679 87.5572
  A 0.47 0.47 0.0 0 0 114.0169 88.1735
  L 117.0361 89.4551
  A 0.47 0.47 0.0 0 0 117.6524 89.2061
  L 119.0121 86.0028
  Z
  M 113.5783 97.2782
  A 0.27 0.27 0.0 0 0 113.5291 96.8995
  L 110.5501 94.6054
  A 0.27 0.27 0.0 0 0 110.1714 94.6545
  L 107.9017 97.6018
  A 0.27 0.27 0.0 0 0 107.9509 97.9805
  L 110.9299 100.2746
  A 0.27 0.27 0.0 0 0 111.3086 100.2255
  L 113.5783 97.2782
  Z
  M 49.30 100.30
  A 0.34 0.34 0.0 0 0 49.80 100.33
  L 52.48 97.75
  A 0.34 0.34 0.0 0 0 52.51 97.30
  L 50.54 94.77
  A 0.34 0.34 0.0 0 0 50.07 94.70
  L 47.09 96.82
  A 0.34 0.34 0.0 0 0 47.01 97.30
  L 49.30 100.30
  Z
  M 55.25 105.81
  A 0.41 0.41 0.0 0 0 55.86 105.73
  L 57.75 102.97
  A 0.41 0.41 0.0 0 0 57.71 102.46
  L 55.42 100.01
  A 0.41 0.41 0.0 0 0 54.82 100.02
  L 52.38 102.67
  A 0.41 0.41 0.0 0 0 52.41 103.26
  L 55.25 105.81
  Z
  M 102.79 102.40
  A 0.46 0.46 0.0 0 0 102.73 103.02
  L 104.69 105.67
  A 0.46 0.46 0.0 0 0 105.35 105.75
  L 108.22 103.35
  A 0.46 0.46 0.0 0 0 108.25 102.67
  L 105.88 100.24
  A 0.46 0.46 0.0 0 0 105.24 100.22
  L 102.79 102.40
  Z
  M 67.7559 108.3000
  A 0.34 0.34 0.0 0 0 67.5970 107.8462
  L 64.2630 106.2416
  A 0.34 0.34 0.0 0 0 63.8092 106.4005
  L 62.4041 109.3200
  A 0.34 0.34 0.0 0 0 62.5630 109.7738
  L 65.8970 111.3784
  A 0.34 0.34 0.0 0 0 66.3508 111.2195
  L 67.7559 108.3000
  Z
  M 96.7866 106.2634
  A 0.26 0.26 0.0 0 0 96.4387 106.1443
  L 92.9543 107.8513
  A 0.26 0.26 0.0 0 0 92.8352 108.1992
  L 94.3134 111.2166
  A 0.26 0.26 0.0 0 0 94.6613 111.3357
  L 98.1457 109.6287
  A 0.26 0.26 0.0 0 0 98.2648 109.2808
  L 96.7866 106.2634
  Z
  M 74.69 109.68
  A 0.37 0.37 0.0 0 0 74.29 109.99
  L 73.74 113.24
  A 0.37 0.37 0.0 0 0 74.06 113.67
  L 77.81 114.15
  A 0.37 0.37 0.0 0 0 78.23 113.82
  L 78.56 110.45
  A 0.37 0.37 0.0 0 0 78.23 110.04
  L 74.69 109.68
  Z
  M 86.3497 109.8390
  A 0.27 0.27 0.0 0 0 86.0504 109.6018
  L 82.2160 110.0455
  A 0.27 0.27 0.0 0 0 81.9788 110.3447
  L 82.3903 113.9010
  A 0.27 0.27 0.0 0 0 82.6896 114.1382
  L 86.5240 113.6945
  A 0.27 0.27 0.0 0 0 86.7612 113.3953
  L 86.3497 109.8390
  Z"
/>
<path fill="#e9e9e9" d="
  M 77.89 52.66
  Q 76.96 52.62 76.34 53.31
  A 1.65 1.65 0.0 0 1 73.50 52.57
  C 72.76 49.38 75.47 49.61 77.28 50.51
  A 1.08 1.08 0.0 0 0 78.80 49.23
  L 78.36 47.79
  A 1.76 1.76 0.0 0 1 80.02 45.52
  Q 81.39 45.50 81.92 46.63
  Q 82.15 47.11 82.00 47.62
  L 81.53 49.20
  A 1.03 1.02 -88.5 0 0 82.75 50.49
  C 83.66 50.27 84.53 49.68 85.43 49.89
  Q 87.10 50.27 86.80 52.24
  A 1.82 1.82 0.0 0 1 83.84 53.37
  L 83.35 52.96
  A 1.10 1.10 0.0 0 0 81.56 53.60
  Q 81.40 54.39 81.85 55.15
  A 1.56 1.56 0.0 0 1 80.92 57.45
  Q 79.16 57.94 78.28 56.30
  A 0.90 0.88 48.7 0 1 78.33 55.40
  Q 78.99 54.41 78.65 53.25
  Q 78.49 52.68 77.89 52.66
  Z"
/>
<path fill="#e9e9e9" d="
  M 68.11 63.07
  C 70.35 61.77 73.16 60.18 76.23 60.13
  Q 77.09 60.12 76.46 60.70
  Q 75.11 61.94 72.19 64.66
  C 69.43 67.21 69.43 71.57 72.98 73.29
  C 77.45 75.44 80.74 70.59 83.48 67.80
  Q 83.86 67.41 84.27 67.78
  L 99.61 81.83
  Q 100.97 83.07 99.68 84.38
  L 99.34 84.73
  A 1.44 1.44 0.0 0 1 97.35 84.78
  L 89.52 77.62
  Q 89.00 77.15 88.48 77.61
  L 87.79 78.22
  A 0.66 0.65 -44.1 0 0 87.77 79.19
  L 95.67 86.56
  A 1.83 1.83 0.0 0 1 95.58 89.32
  L 95.33 89.53
  A 1.84 1.83 -42.5 0 1 92.91 89.43
  L 85.39 82.20
  Q 84.74 81.58 84.12 82.23
  L 83.58 82.80
  Q 83.05 83.35 83.61 83.87
  L 90.79 90.66
  Q 92.29 92.08 90.72 93.42
  L 90.40 93.68
  A 1.52 1.51 -43.9 0 1 88.40 93.65
  C 86.39 91.81 82.91 87.71 80.25 87.08
  Q 79.78 86.97 79.73 86.50
  Q 79.37 83.19 75.95 83.02
  Q 75.42 83.00 75.32 82.47
  Q 74.65 78.74 70.83 78.69
  Q 70.39 78.68 70.32 78.25
  Q 69.82 75.51 66.96 74.87
  Q 64.87 74.41 61.81 77.36
  Q 61.33 77.82 60.85 77.35
  L 60.19 76.70
  A 0.42 0.42 0.0 0 0 59.49 76.89
  L 59.25 77.79
  A 0.54 0.54 0.0 0 1 58.48 78.14
  L 52.40 75.19
  Q 51.91 74.96 52.12 74.46
  L 60.19 55.51
  Q 60.65 54.44 61.68 54.98
  L 68.26 58.40
  Q 69.18 58.88 68.78 59.83
  L 67.61 62.63
  Q 67.20 63.60 68.11 63.07
  Z"
/>
<path fill="#e9e9e9" d="
  M 92.83 62.49
  L 91.76 59.79
  Q 91.44 58.97 92.21 58.55
  L 99.08 54.83
  Q 99.92 54.38 100.30 55.25
  L 108.65 74.73
  A 0.32 0.31 -24.1 0 1 108.49 75.14
  L 102.10 78.11
  Q 101.54 78.37 101.35 77.78
  L 101.10 77.01
  Q 100.92 76.44 100.42 76.76
  Q 99.81 77.15 99.39 77.74
  A 0.42 0.41 -50.2 0 1 98.77 77.80
  L 85.74 65.65
  A 2.62 2.61 -45.9 0 0 82.11 65.71
  L 77.17 70.63
  Q 75.29 72.50 73.47 70.58
  L 73.09 70.18
  A 2.01 2.01 0.0 0 1 73.08 67.43
  Q 75.83 64.46 78.20 62.09
  Q 79.91 60.39 81.92 60.08
  C 85.90 59.47 89.20 61.04 92.34 62.91
  Q 93.20 63.42 92.83 62.49
  Z"
/>
<rect fill="#e9e9e9" x="-4.79" y="-1.91" transform="translate(64.15,81.09) rotate(-44.9)" width="9.58" height="3.82" rx="1.78"/>
<rect fill="#e9e9e9" x="-1.97" y="-5.36" transform="translate(68.58,85.44) rotate(44.5)" width="3.94" height="10.72" rx="1.89"/>
<rect fill="#e9e9e9" x="-1.91" y="-5.21" transform="translate(73.28,89.43) rotate(44.4)" width="3.82" height="10.42" rx="1.83"/>
<rect fill="#e9e9e9" x="-1.93" y="-4.92" transform="translate(77.69,93.62) rotate(44.4)" width="3.86" height="9.84" rx="1.85"/>
<path fill="#e9e9e9" d="
  M 84.56 93.64
  Q 86.18 94.54 86.60 96.24
  A 1.80 1.80 0.0 0 1 83.67 98.02
  L 81.81 96.38
  A 0.52 0.52 0.0 0 1 81.87 95.56
  Q 83.16 94.69 83.55 93.21
  Q 83.72 92.54 84.11 93.11
  L 84.33 93.43
  Q 84.42 93.56 84.56 93.64
  Z"
/>
</svg>
