<?xml version="1.0" encoding="UTF-8" standalone="no"?>
<!DOCTYPE svg PUBLIC "-//W3C//DTD SVG 1.1//EN" "http://www.w3.org/Graphics/SVG/1.1/DTD/svg11.dtd">
<svg xmlns="http://www.w3.org/2000/svg" version="1.1" viewBox="0.00 0.00 160.00 160.00">
<path fill="#bcbcbc" d="
  M 64.66 64.05
  L 67.95 56.95
  A 0.29 0.29 0.0 0 1 68.07 56.82
  L 75.63 52.30
  A 0.29 0.29 0.0 0 1 76.04 52.42
  L 76.58 53.55
  A 0.29 0.29 0.0 0 1 76.46 53.92
  L 69.14 58.11
  A 0.29 0.29 0.0 0 0 69.02 58.23
  L 65.86 64.63
  A 0.29 0.29 0.0 0 1 65.47 64.76
  L 64.80 64.43
  A 0.29 0.29 0.0 0 1 64.66 64.05
  Z"
/>
<path fill="#bcbcbc" d="
  M 102.85 63.98
  A 0.40 0.40 0.0 0 1 102.63 64.52
  L 102.35 64.62
  Q 101.77 64.83 101.52 64.28
  C 100.28 61.55 99.41 58.69 96.67 57.04
  Q 94.13 55.52 91.50 54.00
  A 0.70 0.70 0.0 0 1 91.27 53.01
  L 91.50 52.68
  Q 91.86 52.13 92.42 52.48
  L 99.12 56.66
  Q 99.57 56.94 99.79 57.42
  L 102.85 63.98
  Z"
/>
<path fill="#bcbcbc" d="
  M 95.26 60.13
  L 87.08 60.23
  A 0.30 0.30 0.0 0 1 86.78 59.96
  L 86.65 58.79
  A 0.30 0.30 0.0 0 1 86.94 58.46
  L 96.03 58.41
  A 0.30 0.30 0.0 0 1 96.29 58.57
  L 100.09 65.79
  A 0.30 0.30 0.0 0 1 99.95 66.20
  L 99.24 66.55
  A 0.30 0.30 0.0 0 1 98.84 66.43
  L 95.53 60.29
  A 0.30 0.30 0.0 0 0 95.26 60.13
  Z"
/>
<path fill="#bcbcbc" d="
  M 67.40 66.58
  L 71.34 59.00
  Q 71.62 58.47 72.21 58.47
  L 80.22 58.45
  A 0.55 0.54 -1.6 0 1 80.78 58.97
  L 80.79 59.42
  Q 80.82 60.17 80.08 60.17
  L 72.76 60.17
  A 1.07 1.05 13.0 0 0 71.81 60.75
  Q 70.47 63.41 68.82 66.06
  Q 68.49 66.58 67.40 66.58
  Z"
/>
<path fill="#bcbcbc" d="
  M 67.40 66.58
  C 69.62 68.22 74.84 75.13 69.79 76.41
  Q 64.47 77.76 58.01 75.99
  C 55.28 75.24 53.94 79.31 55.55 81.26
  Q 56.31 82.19 56.78 82.71
  Q 57.14 83.11 56.93 83.59
  Q 55.26 87.64 50.94 88.37
  Q 50.28 88.48 50.32 89.16
  L 50.34 89.47
  A 0.45 0.44 86.1 0 0 50.81 89.89
  C 54.29 89.63 61.48 90.43 62.08 94.88
  Q 63.19 103.14 64.20 111.40
  Q 64.25 111.87 64.73 111.88
  L 66.29 111.91
  A 1.62 1.62 0.0 0 1 67.64 112.66
  L 68.15 113.45
  A 0.53 0.53 0.0 0 1 67.70 114.27
  L 60.58 114.29
  A 2.91 2.91 0.0 0 1 57.69 111.74
  L 56.25 100.48
  Q 56.18 99.95 55.70 99.74
  L 51.44 97.90
  Q 49.74 97.15 49.22 95.36
  L 48.84 94.03
  Q 48.43 92.61 49.81 93.11
  Q 54.27 94.70 57.81 97.77
  A 2.97 2.93 18.9 0 1 58.82 99.80
  L 59.54 111.33
  Q 59.57 111.83 60.08 111.84
  L 62.21 111.89
  Q 62.81 111.90 62.69 111.32
  L 59.23 94.93
  Q 59.13 94.44 58.64 94.39
  Q 53.27 93.88 48.82 90.73
  Q 48.42 90.45 48.24 89.98
  Q 47.56 88.14 46.32 86.63
  Q 45.98 86.21 46.09 85.69
  C 46.21 85.13 46.35 85.09 46.29 84.44
  Q 45.56 75.70 53.80 73.74
  Q 54.30 73.63 54.12 73.14
  Q 52.46 68.68 55.96 66.14
  Q 61.37 62.22 67.40 66.58
  Z
  M 55.90 70.14
  C 57.38 67.59 59.05 67.44 61.56 66.58
  Q 62.25 66.34 61.52 66.28
  Q 57.03 65.94 55.55 69.97
  Q 55.49 70.14 55.67 70.21
  L 55.67 70.22
  Q 55.82 70.28 55.90 70.14
  Z
  M 67.3534 72.1517
  A 1.85 1.18 39.7 0 0 66.6837 70.0621
  A 1.85 1.18 39.7 0 0 64.5066 69.7883
  A 1.85 1.18 39.7 0 0 65.1763 71.8779
  A 1.85 1.18 39.7 0 0 67.3534 72.1517
  Z
  M 53.33 75.39
  A 0.18 0.17 31.9 0 0 53.25 75.05
  Q 49.28 75.63 48.26 79.50
  Q 48.22 79.65 48.39 79.71
  L 48.40 79.71
  Q 48.54 79.76 48.61 79.61
  Q 50.03 76.45 53.33 75.39
  Z"
/>
<path fill="#bcbcbc" d="
  M 113.74 73.92
  Q 122.40 75.55 121.50 84.82
  Q 121.45 85.34 121.53 86.06
  Q 121.58 86.57 121.24 86.95
  Q 120.07 88.27 119.43 89.92
  A 1.73 1.72 83.2 0 1 118.81 90.71
  Q 114.33 93.82 108.94 94.37
  Q 108.46 94.42 108.36 94.89
  L 104.88 111.20
  Q 104.73 111.87 105.42 111.87
  L 107.31 111.87
  Q 108.14 111.87 108.18 111.04
  Q 108.44 105.74 108.76 100.00
  C 108.93 97.03 115.67 93.81 117.90 93.07
  Q 119.55 92.52 118.81 94.09
  L 117.95 95.93
  Q 117.18 97.57 115.52 98.26
  L 111.83 99.81
  A 0.75 0.73 83.1 0 0 111.39 100.39
  L 109.89 112.00
  A 2.63 2.63 0.0 0 1 107.27 114.29
  L 99.81 114.27
  Q 98.75 114.27 99.29 113.35
  L 99.44 113.10
  Q 99.80 112.50 100.44 112.22
  Q 101.59 111.72 102.75 111.84
  Q 103.31 111.90 103.38 111.34
  Q 104.42 103.03 105.50 94.75
  C 106.05 90.55 113.42 89.56 116.58 89.81
  Q 117.13 89.86 117.33 89.35
  L 117.45 89.05
  A 0.35 0.35 0.0 0 0 117.18 88.57
  Q 112.64 87.90 110.74 83.72
  Q 110.51 83.19 110.89 82.75
  C 113.85 79.33 113.72 74.98 107.90 76.47
  Q 102.34 77.90 96.93 75.96
  A 1.74 1.74 0.0 0 1 95.78 74.46
  C 95.38 69.70 101.11 64.99 105.01 64.54
  C 110.04 63.96 115.82 67.77 113.45 73.38
  Q 113.26 73.83 113.74 73.92
  Z
  M 101.93 67.99
  C 104.66 66.57 107.25 66.83 109.96 68.08
  Q 110.40 68.28 110.17 67.85
  C 108.86 65.32 103.84 66.16 101.79 67.33
  A 0.29 0.28 -29.4 0 0 101.68 67.71
  L 101.80 67.95
  A 0.10 0.10 0.0 0 0 101.93 67.99
  Z
  M 103.1491 69.7734
  A 1.89 1.13 -38.5 0 0 100.9666 70.0657
  A 1.89 1.13 -38.5 0 0 100.1909 72.1266
  A 1.89 1.13 -38.5 0 0 102.3734 71.8343
  A 1.89 1.13 -38.5 0 0 103.1491 69.7734
  Z"
/>
<path fill="#bcbcbc" d="
  M 90.07 78.69
  A 6.32 6.32 0.0 0 1 83.75 85.01
  A 6.32 6.32 0.0 0 1 77.43 78.69
  A 6.32 6.32 0.0 0 1 83.75 72.37
  A 6.32 6.32 0.0 0 1 90.07 78.69
  Z
  M 82.75 81.20
  Q 84.72 80.39 85.46 82.03
  Q 85.67 82.49 86.15 82.35
  Q 86.59 82.23 86.46 81.75
  Q 85.41 77.99 84.46 75.24
  Q 83.66 72.92 82.93 75.27
  L 80.92 81.75
  A 0.48 0.48 0.0 0 0 81.65 82.29
  Q 81.87 82.14 81.99 81.90
  Q 82.24 81.40 82.75 81.20
  Z"
/>
<path fill="#bcbcbc" d="
  M 64.15 86.03
  Q 59.27 84.23 56.57 79.76
  A 1.41 1.41 0.0 0 1 57.90 77.62
  C 60.93 77.89 64.41 82.61 65.27 84.91
  Q 65.94 86.70 64.15 86.03
  Z"
/>
<path fill="#bcbcbc" d="
  M 84.39 79.27
  A 0.42 0.42 0.0 0 1 83.98 79.75
  L 83.55 79.76
  Q 83.20 79.76 83.15 79.41
  Q 83.06 78.77 83.19 78.16
  Q 83.40 77.17 83.93 78.03
  Q 84.28 78.60 84.39 79.27
  Z"
/>
<path fill="#bcbcbc" d="
  M 101.98 85.63
  C 102.64 83.09 107.30 77.26 110.25 77.78
  A 1.26 1.26 0.0 0 1 111.14 79.62
  Q 108.30 84.80 102.58 86.24
  A 0.50 0.50 0.0 0 1 101.98 85.63
  Z"
/>
<path fill="#bcbcbc" d="
  M 34.76 111.80
  L 51.44 111.79
  Q 51.93 111.79 51.96 111.30
  L 52.60 100.56
  Q 52.63 99.97 53.18 100.19
  L 54.49 100.69
  Q 55.41 101.05 55.22 102.01
  L 53.36 111.31
  A 0.45 0.45 0.0 0 0 53.88 111.85
  Q 55.22 111.62 55.57 111.91
  Q 58.40 114.28 54.75 114.28
  L 21.74 114.28
  A 0.76 0.76 0.0 0 1 20.98 113.49
  L 20.99 113.16
  A 1.36 1.36 0.0 0 1 22.33 111.85
  L 25.77 111.79
  Q 26.33 111.78 26.06 111.29
  Q 25.60 110.44 25.10 109.69
  Q 19.74 101.76 23.49 92.95
  Q 23.65 92.56 23.92 92.88
  L 26.67 96.18
  Q 26.95 96.52 26.88 96.96
  Q 26.85 97.14 26.75 97.32
  Q 26.30 98.10 27.20 98.06
  Q 27.61 98.05 27.79 97.77
  C 31.11 92.70 34.32 91.88 39.71 90.04
  Q 42.04 89.25 39.67 88.60
  Q 37.86 88.10 35.91 88.66
  A 1.11 1.10 -20.7 0 1 34.63 88.09
  L 33.22 85.26
  Q 32.83 84.48 33.69 84.31
  Q 42.24 82.64 45.87 88.64
  C 51.35 97.70 42.93 108.25 34.64 111.13
  A 0.35 0.34 35.1 0 0 34.76 111.80
  Z"
/>
<path fill="#bcbcbc" d="
  M 132.88 111.40
  Q 130.88 110.09 128.86 108.86
  Q 123.01 105.30 120.98 99.76
  C 118.43 92.84 121.52 84.34 129.72 83.95
  Q 130.27 83.92 130.23 84.48
  Q 130.00 88.46 128.51 92.15
  Q 128.13 93.10 128.90 92.42
  Q 132.46 89.25 133.22 84.51
  A 0.43 0.42 14.6 0 1 133.79 84.18
  L 138.03 85.74
  A 0.67 0.67 0.0 0 1 138.45 86.50
  Q 137.04 93.13 132.65 98.22
  Q 131.63 99.40 132.98 98.63
  Q 138.50 95.45 140.72 89.45
  Q 141.29 87.89 142.29 89.22
  L 144.13 91.67
  Q 145.29 93.21 144.44 94.94
  L 141.89 100.13
  Q 140.48 102.99 143.12 101.31
  Q 144.09 100.70 145.64 98.78
  Q 146.22 98.07 146.26 98.99
  Q 146.58 106.11 141.78 111.31
  A 0.31 0.31 0.0 0 0 142.01 111.83
  L 145.67 111.82
  Q 147.02 111.82 147.11 113.16
  L 147.14 113.54
  Q 147.19 114.28 146.46 114.28
  L 111.49 114.27
  A 0.55 0.54 1.0 0 1 110.94 113.71
  Q 111.06 111.38 113.38 111.85
  A 0.68 0.68 0.0 0 0 114.19 111.06
  L 112.46 101.81
  Q 112.33 101.13 112.96 100.83
  L 114.49 100.09
  A 0.46 0.46 0.0 0 1 115.15 100.49
  L 115.59 111.34
  A 0.50 0.50 0.0 0 0 116.09 111.82
  L 132.76 111.81
  Q 133.50 111.81 132.88 111.40
  Z"
/>
<path fill="#bcbcbc" d="
  M 76.06 86.83
  Q 78.03 86.10 80.11 86.05
  Q 80.60 86.04 80.79 86.49
  Q 81.19 87.42 80.43 87.67
  C 76.40 89.02 66.94 91.79 63.92 88.26
  Q 63.60 87.89 64.09 87.79
  C 68.10 87.00 70.44 84.95 75.04 86.82
  Q 75.55 87.02 76.06 86.83
  Z"
/>
<path fill="#bcbcbc" d="
  M 31.66 90.31
  L 28.87 92.89
  A 0.36 0.36 0.0 0 1 28.34 92.85
  L 25.85 89.62
  A 0.36 0.36 0.0 0 1 25.90 89.13
  L 29.24 86.21
  A 0.36 0.36 0.0 0 1 29.79 86.31
  L 31.74 89.87
  A 0.36 0.36 0.0 0 1 31.66 90.31
  Z"
/>
<path fill="#bcbcbc" d="
  M 103.91 87.73
  Q 104.04 87.74 103.99 87.86
  C 101.82 92.74 90.56 89.61 86.90 88.46
  Q 86.11 88.22 86.30 87.42
  L 86.38 87.08
  Q 86.51 86.52 87.07 86.65
  L 91.67 87.64
  Q 92.15 87.74 92.60 87.54
  C 96.75 85.68 99.67 87.58 103.91 87.73
  Z"
/>
<path fill="#bcbcbc" d="
  M 18.78 113.76
  A 0.35 0.34 -13.6 0 1 18.47 114.26
  L 16.79 114.24
  A 0.43 0.43 0.0 0 1 16.42 113.61
  Q 16.83 112.81 17.50 112.79
  Q 18.27 112.76 18.78 113.76
  Z"
/>
<rect fill="#bcbcbc" x="-2.65" y="-0.76" transform="translate(73.46,113.51) rotate(0.1)" width="5.30" height="1.52" rx="0.64"/>
<rect fill="#bcbcbc" x="-3.25" y="-0.76" transform="translate(93.38,113.52) rotate(-0.2)" width="6.50" height="1.52" rx="0.70"/>
<path fill="#bcbcbc" d="
  M 151.30 113.19
  A 0.59 0.59 0.0 0 1 150.96 114.26
  L 149.70 114.27
  Q 148.89 114.28 149.27 113.56
  Q 149.97 112.22 151.30 113.19
  Z"
/>
</svg>
