<?xml version="1.0" encoding="UTF-8" standalone="no"?>
<!DOCTYPE svg PUBLIC "-//W3C//DTD SVG 1.1//EN" "http://www.w3.org/Graphics/SVG/1.1/DTD/svg11.dtd">
<svg xmlns="http://www.w3.org/2000/svg" version="1.1" viewBox="0.00 0.00 160.00 160.00">
<path fill="#aaaaaa" d="
  M 23.38 0.00
  L 90.24 0.00
  Q 106.87 2.66 111.85 17.35
  C 113.79 23.07 113.05 30.61 113.09 37.00
  C 113.14 43.93 104.31 46.48 101.38 40.30
  Q 100.67 38.80 100.66 35.59
  C 100.63 27.63 102.34 18.05 93.81 13.96
  Q 90.74 12.48 83.47 12.49
  Q 56.50 12.51 29.54 12.49
  Q 22.74 12.49 19.68 13.92
  Q 12.81 17.14 12.81 26.00
  Q 12.83 80.12 12.81 134.24
  Q 12.81 142.92 19.47 146.05
  Q 22.63 147.54 30.25 147.52
  Q 57.62 147.48 85.00 147.51
  Q 90.93 147.51 93.78 146.13
  C 102.52 141.88 100.74 131.61 100.55 123.50
  C 100.40 117.17 108.11 113.29 111.94 118.93
  Q 113.06 120.58 113.06 123.82
  C 113.07 130.09 113.72 137.30 111.79 142.90
  Q 106.83 157.24 90.63 160.00
  L 22.79 160.00
  C 9.89 158.13 0.30 147.91 0.32 134.75
  Q 0.43 80.83 0.44 26.91
  C 0.44 12.28 8.44 2.31 23.38 0.00
  Z"
/>
<path fill="#aaaaaa" d="
  M 160.00 76.88
  L 160.00 83.96
  Q 158.50 88.63 155.94 91.18
  Q 148.91 98.17 141.93 105.18
  C 135.84 111.32 127.11 102.38 133.11 96.37
  Q 137.82 91.65 142.15 87.33
  Q 142.91 86.58 141.84 86.57
  Q 105.25 86.54 69.01 86.63
  C 59.30 86.65 59.00 74.16 68.87 74.17
  Q 105.68 74.21 142.05 74.15
  Q 143.04 74.15 142.33 73.46
  C 139.45 70.61 132.14 64.59 131.20 60.88
  C 130.14 56.68 134.95 52.26 139.04 53.69
  Q 140.71 54.27 143.45 57.00
  Q 148.79 62.31 154.10 67.65
  Q 158.67 72.26 160.00 76.88
  Z"
/>
</svg>
