<?xml version="1.0" encoding="UTF-8" standalone="no"?>
<!DOCTYPE svg PUBLIC "-//W3C//DTD SVG 1.1//EN" "http://www.w3.org/Graphics/SVG/1.1/DTD/svg11.dtd">
<svg xmlns="http://www.w3.org/2000/svg" version="1.1" viewBox="0.00 0.00 160.00 164.00">
<path fill="#eeeeee" d="
  M 65.67 29.56
  L 57.96 24.79
  A 0.53 0.53 0.0 0 1 58.02 23.86
  Q 82.06 12.73 106.77 22.55
  A 0.31 0.31 0.0 0 1 106.83 23.10
  Q 99.06 28.36 96.08 37.24
  A 1.32 1.32 0.0 0 1 94.53 38.11
  Q 76.87 34.08 60.75 42.04
  Q 59.20 42.80 60.01 41.28
  L 65.85 30.23
  A 0.51 0.51 0.0 0 0 65.67 29.56
  Z"
/>
<path fill="#eeeeee" d="
  M 121.40 25.90
  Q 128.25 28.52 130.84 32.94
  C 137.09 43.61 133.56 56.74 121.49 60.90
  Q 120.73 61.17 121.50 61.36
  C 124.28 62.07 126.24 57.97 130.51 58.93
  Q 131.11 59.06 130.62 59.43
  Q 129.15 60.56 127.35 61.08
  Q 126.90 61.22 126.58 61.56
  Q 125.84 62.36 124.32 62.62
  C 117.44 63.76 107.59 61.79 103.48 55.51
  C 97.04 45.69 98.94 30.69 110.55 25.67
  C 113.43 24.43 121.46 23.24 124.50 24.67
  Q 124.80 24.81 124.57 25.05
  L 123.90 25.78
  Q 123.78 25.91 123.60 25.87
  Q 122.55 25.61 121.49 25.52
  Q 120.02 25.38 121.40 25.90
  Z
  M 116.30 36.11
  Q 116.00 36.11 116.03 35.81
  L 116.48 31.54
  Q 116.62 30.32 115.38 30.25
  L 114.95 30.23
  Q 113.65 30.17 113.42 31.45
  L 110.81 46.16
  A 0.95 0.95 0.0 0 1 109.86 46.95
  L 106.78 46.93
  A 1.02 1.01 -72.3 0 0 105.92 47.38
  Q 105.38 48.17 105.65 49.06
  Q 105.79 49.54 106.27 49.64
  C 108.99 50.22 112.98 50.46 113.72 47.17
  Q 113.82 46.74 114.26 46.74
  L 120.01 46.73
  A 0.79 0.77 79.7 0 1 120.74 47.25
  C 121.92 50.39 124.60 50.13 127.75 49.78
  A 1.06 1.06 0.0 0 0 128.68 48.57
  L 128.61 48.04
  A 1.31 1.31 0.0 0 0 127.30 46.91
  L 124.87 46.91
  Q 123.83 46.91 123.65 45.89
  L 121.05 31.27
  A 1.39 1.38 77.3 0 0 119.32 30.17
  L 118.88 30.29
  A 1.20 1.19 -12.0 0 0 118.01 31.62
  L 118.62 35.74
  Q 118.68 36.15 118.27 36.15
  L 116.30 36.11
  Z
  M 114.9783 52.0777
  A 1.17 1.17 0.0 0 0 113.8144 50.9016
  L 113.2144 50.8985
  A 1.17 1.17 0.0 0 0 112.0383 52.0623
  L 112.0217 55.2223
  A 1.17 1.17 0.0 0 0 113.1856 56.3984
  L 113.7856 56.4015
  A 1.17 1.17 0.0 0 0 114.9617 55.2377
  L 114.9783 52.0777
  Z
  M 122.4556 52.1851
  A 1.28 1.28 0.0 0 0 121.1891 50.8917
  L 120.8891 50.8886
  A 1.28 1.28 0.0 0 0 119.5958 52.1551
  L 119.5644 55.1549
  A 1.28 1.28 0.0 0 0 120.8309 56.4483
  L 121.1309 56.4514
  A 1.28 1.28 0.0 0 0 122.4242 55.1849
  L 122.4556 52.1851
  Z"
/>
<path fill="#eeeeee" d="
  M 48.96 29.05
  L 47.06 25.55
  A 0.71 0.70 73.0 0 1 47.61 24.51
  Q 48.21 24.46 48.74 24.75
  Q 54.47 27.93 59.95 31.07
  A 0.73 0.73 0.0 0 1 60.23 32.05
  L 55.95 39.82
  A 1.09 1.09 0.0 0 1 54.38 40.19
  L 53.30 39.45
  Q 52.93 39.20 52.59 39.50
  Q 48.47 43.23 45.59 47.99
  A 0.94 0.93 27.4 0 0 46.02 49.33
  L 46.50 49.53
  A 1.34 1.34 0.0 0 0 48.22 48.94
  Q 49.77 46.08 52.16 43.88
  Q 53.47 42.67 54.76 43.89
  L 55.22 44.33
  A 1.83 1.81 -50.0 0 1 55.42 46.75
  L 50.45 53.34
  Q 50.20 53.68 49.83 53.47
  C 43.83 50.15 34.73 49.69 28.48 52.46
  A 0.33 0.33 0.0 0 1 28.05 52.01
  Q 34.92 37.74 48.70 29.97
  Q 49.28 29.64 48.96 29.05
  Z
  M 53.4742 32.9504
  A 1.15 1.15 0.0 0 0 51.8658 32.7100
  L 49.0201 34.8157
  A 1.15 1.15 0.0 0 0 48.7797 36.4241
  L 49.0058 36.7296
  A 1.15 1.15 0.0 0 0 50.6142 36.9700
  L 53.4599 34.8643
  A 1.15 1.15 0.0 0 0 53.7003 33.2559
  L 53.4742 32.9504
  Z
  M 46.6626 38.0662
  A 2.94 1.44 -43.5 0 0 43.5388 39.0455
  A 2.94 1.44 -43.5 0 0 42.3974 42.1138
  A 2.94 1.44 -43.5 0 0 45.5212 41.1345
  A 2.94 1.44 -43.5 0 0 46.6626 38.0662
  Z
  M 41.0920 46.0024
  A 1.15 1.15 0.0 0 0 40.7483 44.4128
  L 40.4794 44.2394
  A 1.15 1.15 0.0 0 0 38.8898 44.5831
  L 37.3080 47.0376
  A 1.15 1.15 0.0 0 0 37.6517 48.6272
  L 37.9206 48.8006
  A 1.15 1.15 0.0 0 0 39.5102 48.4569
  L 41.0920 46.0024
  Z"
/>
<path fill="#eeeeee" d="
  M 127.96 26.33
  L 130.31 27.67
  A 0.30 0.30 0.0 0 1 130.22 28.22
  L 127.79 28.68
  A 0.30 0.30 0.0 0 1 127.56 28.63
  L 124.95 26.78
  A 0.30 0.30 0.0 0 1 125.13 26.23
  L 127.81 26.29
  A 0.30 0.30 0.0 0 1 127.96 26.33
  Z"
/>
<path fill="#eeeeee" d="
  M 130.39 31.46
  L 128.89 29.72
  A 0.32 0.32 0.0 0 1 129.14 29.19
  L 131.77 29.26
  A 0.32 0.32 0.0 0 1 131.98 29.35
  L 133.63 30.95
  A 0.32 0.32 0.0 0 1 133.42 31.50
  L 130.64 31.58
  A 0.32 0.32 0.0 0 1 130.39 31.46
  Z"
/>
<path fill="#eeeeee" d="
  M 135.08 32.96
  L 136.52 35.53
  A 0.33 0.33 0.0 0 1 136.23 36.02
  L 133.30 36.04
  A 0.33 0.33 0.0 0 1 133.00 35.85
  L 131.72 33.21
  A 0.33 0.33 0.0 0 1 132.02 32.73
  L 134.80 32.80
  A 0.33 0.33 0.0 0 1 135.08 32.96
  Z"
/>
<path fill="#eeeeee" d="
  M 134.17 37.52
  L 136.99 37.51
  A 0.31 0.31 0.0 0 1 137.29 37.75
  L 137.93 40.34
  A 0.31 0.31 0.0 0 1 137.63 40.73
  L 134.80 40.72
  A 0.31 0.31 0.0 0 1 134.50 40.48
  L 133.87 37.90
  A 0.31 0.31 0.0 0 1 134.17 37.52
  Z"
/>
<path fill="#eeeeee" d="
  M 118.89 39.14
  L 119.92 43.75
  A 0.44 0.44 0.0 0 1 119.49 44.29
  L 115.12 44.28
  A 0.44 0.44 0.0 0 1 114.69 43.77
  L 115.49 39.15
  A 0.44 0.44 0.0 0 1 115.92 38.78
  L 118.46 38.80
  A 0.44 0.44 0.0 0 1 118.89 39.14
  Z"
/>
<rect fill="#eeeeee" x="-1.76" y="-1.63" transform="translate(136.28,44.10) rotate(0.1)" width="3.52" height="3.26" rx="0.47"/>
<path fill="#eeeeee" d="
  M 137.75 48.00
  L 137.07 50.62
  A 0.40 0.40 0.0 0 1 136.69 50.92
  L 133.66 50.97
  A 0.40 0.40 0.0 0 1 133.28 50.43
  L 134.28 47.75
  A 0.40 0.40 0.0 0 1 134.66 47.49
  L 137.36 47.50
  A 0.40 0.40 0.0 0 1 137.75 48.00
  Z"
/>
<path fill="#eeeeee" d="
  M 136.13 52.64
  L 134.90 54.77
  A 0.42 0.42 0.0 0 1 134.56 54.98
  L 131.67 55.15
  A 0.42 0.42 0.0 0 1 131.29 54.52
  L 132.69 52.17
  A 0.42 0.42 0.0 0 1 133.05 51.96
  L 135.78 52.01
  A 0.42 0.42 0.0 0 1 136.13 52.64
  Z"
/>
<path fill="#eeeeee" d="
  M 65.57 67.13
  C 63.63 62.20 61.68 58.44 56.74 55.92
  A 1.51 1.51 0.0 0 1 56.08 53.87
  L 56.21 53.61
  A 1.05 1.05 0.0 0 1 57.64 53.17
  Q 65.38 57.35 67.99 65.84
  Q 68.32 66.89 67.34 67.39
  L 66.89 67.62
  A 0.96 0.94 -24.3 0 1 65.57 67.13
  Z"
/>
<path fill="#eeeeee" d="
  M 40.19 78.30
  A 0.49 0.48 -85.0 0 0 39.63 78.78
  L 39.63 80.46
  A 0.94 0.94 0.0 0 0 40.27 81.34
  Q 42.30 82.00 42.97 83.73
  C 45.29 89.67 36.03 91.27 33.46 86.54
  Q 32.04 83.93 32.01 83.90
  C 29.57 81.11 25.78 84.79 27.25 88.22
  C 28.76 91.74 31.95 93.07 35.78 93.58
  Q 36.35 93.66 36.27 94.22
  C 35.81 97.42 40.22 98.44 40.62 95.03
  Q 40.67 94.58 40.71 94.12
  Q 40.77 93.52 41.37 93.47
  Q 46.77 93.03 49.11 88.23
  Q 49.23 87.99 49.49 88.06
  L 58.38 90.60
  Q 58.55 90.65 58.46 90.81
  C 50.18 105.01 27.88 105.35 18.66 92.08
  Q 15.05 86.87 14.75 79.78
  C 13.94 60.55 34.00 49.37 50.18 59.02
  Q 50.60 59.27 50.61 59.76
  L 50.65 60.98
  A 1.05 1.04 -69.2 0 0 50.98 61.72
  C 54.24 64.77 56.05 66.47 57.06 70.42
  Q 57.18 70.92 56.77 71.21
  Q 50.00 75.95 47.05 83.68
  Q 46.55 84.97 46.18 83.64
  Q 44.91 79.11 40.19 78.30
  Z
  M 41.28 63.43
  Q 40.73 63.33 40.70 62.77
  C 40.43 58.42 35.67 59.50 36.30 62.28
  Q 36.50 63.16 35.61 63.33
  Q 29.71 64.45 27.76 68.71
  C 24.52 75.74 30.70 79.56 36.50 81.02
  Q 37.13 81.18 37.13 80.52
  L 37.12 77.26
  Q 37.12 76.74 36.67 76.47
  C 28.12 71.45 36.80 64.86 42.26 69.32
  Q 42.62 69.62 42.74 70.07
  C 43.07 71.34 43.35 73.21 44.30 74.05
  C 46.43 75.92 49.00 74.15 49.12 71.62
  C 49.35 66.88 45.42 64.22 41.28 63.43
  Z"
/>
<path fill="#eeeeee" d="
  M 129.62 58.16
  A 0.70 0.69 -58.1 0 1 129.35 56.97
  Q 131.02 55.46 133.44 56.14
  Q 133.82 56.25 133.62 56.58
  Q 132.25 58.91 129.62 58.16
  Z"
/>
<path fill="#eeeeee" d="
  M 60.05 68.92
  C 58.38 65.52 57.73 63.55 54.74 60.89
  A 1.10 1.09 -51.1 0 1 54.59 59.42
  L 54.74 59.21
  A 1.33 1.33 0.0 0 1 56.63 58.95
  Q 60.96 62.33 62.46 67.61
  A 1.43 1.42 71.0 0 1 61.63 69.32
  L 61.37 69.42
  A 1.04 1.03 65.5 0 1 60.05 68.92
  Z"
/>
<path fill="#eeeeee" d="
  M 136.07 71.88
  Q 135.01 71.43 134.34 72.22
  C 133.81 72.84 134.00 73.87 134.11 74.61
  Q 134.22 75.32 133.49 75.29
  L 130.67 75.18
  A 0.60 0.59 -4.3 0 1 130.11 74.70
  L 128.18 65.51
  Q 128.10 65.14 128.41 64.93
  C 129.11 64.45 130.10 64.21 130.73 63.76
  Q 133.71 61.61 136.40 59.09
  Q 136.81 58.71 137.01 59.23
  Q 140.11 67.08 140.71 75.48
  A 0.77 0.77 0.0 0 1 139.73 76.27
  L 137.69 75.69
  Q 136.79 75.43 136.87 74.50
  Q 136.95 73.52 136.70 72.59
  Q 136.56 72.08 136.07 71.88
  Z
  M 135.0205 65.1723
  A 1.30 1.30 0.0 0 0 133.4821 64.1656
  L 133.2863 64.2065
  A 1.30 1.30 0.0 0 0 132.2796 65.7449
  L 132.6395 67.4677
  A 1.30 1.30 0.0 0 0 134.1779 68.4744
  L 134.3737 68.4335
  A 1.30 1.30 0.0 0 0 135.3804 66.8951
  L 135.0205 65.1723
  Z"
/>
<path fill="#eeeeee" d="
  M 87.73 80.52
  Q 86.94 82.20 85.58 83.49
  A 1.11 1.10 -24.7 0 0 85.23 84.42
  L 85.83 91.07
  A 1.09 1.07 -74.3 0 0 86.26 91.85
  C 88.54 93.58 91.95 95.57 91.67 98.74
  Q 91.33 102.63 90.98 106.51
  Q 90.93 107.07 91.29 107.51
  Q 91.95 108.31 92.23 109.29
  A 1.72 1.72 0.0 0 1 89.55 111.16
  C 86.38 108.81 87.56 103.66 88.18 99.20
  Q 88.25 98.69 87.88 98.32
  C 85.37 95.83 82.13 94.29 81.95 90.26
  Q 81.86 88.22 81.75 86.66
  Q 81.73 86.40 81.48 86.40
  L 78.21 86.36
  Q 77.90 86.36 77.88 86.68
  C 77.61 93.52 76.12 94.49 70.88 98.17
  Q 70.46 98.46 70.48 98.98
  C 70.59 102.93 72.12 107.36 69.33 110.70
  C 68.51 111.67 67.12 111.68 66.41 110.67
  C 65.64 109.58 66.28 108.38 67.01 107.44
  Q 67.32 107.04 67.31 106.54
  Q 67.19 102.12 66.87 99.25
  C 66.46 95.63 70.52 93.57 73.16 91.84
  Q 73.61 91.55 73.67 91.03
  L 74.49 84.73
  Q 74.52 84.46 74.28 84.58
  L 70.48 86.41
  Q 70.25 86.52 70.20 86.78
  C 69.23 91.96 68.82 92.26 64.36 94.65
  A 1.17 1.17 0.0 0 0 63.78 95.41
  C 62.77 99.59 61.80 102.39 57.58 103.44
  Q 56.05 103.82 55.59 102.40
  A 2.19 2.18 68.7 0 1 56.76 99.73
  L 58.18 99.08
  Q 58.78 98.81 59.00 98.18
  L 61.11 92.26
  A 0.81 0.78 87.4 0 1 61.50 91.82
  L 65.31 89.90
  A 0.84 0.79 -6.1 0 0 65.72 89.42
  L 66.34 87.53
  Q 66.54 86.91 65.89 86.93
  Q 58.37 87.20 51.27 84.79
  Q 50.53 84.54 50.86 83.83
  C 54.17 76.60 61.80 69.70 70.36 70.87
  Q 74.79 71.47 76.77 75.41
  Q 76.98 75.83 77.32 75.50
  Q 81.50 71.45 86.37 74.87
  Q 86.77 75.15 86.98 74.71
  Q 89.39 69.76 94.98 69.34
  A 0.81 0.80 -80.9 0 0 95.66 68.84
  Q 97.68 63.95 102.43 63.10
  C 106.19 62.43 111.92 65.75 115.55 67.29
  A 1.79 1.78 18.2 0 1 116.60 69.36
  L 116.46 69.90
  A 1.96 1.95 19.9 0 1 113.69 71.19
  L 105.39 67.10
  Q 103.42 66.13 101.61 67.36
  L 100.59 68.06
  Q 98.79 69.27 100.83 70.01
  C 103.68 71.05 114.55 78.83 107.93 82.10
  C 102.43 84.81 92.38 86.45 88.32 80.47
  Q 87.98 79.97 87.73 80.52
  Z
  M 63.43 75.52
  C 66.08 74.40 69.35 74.20 71.91 75.44
  A 0.68 0.68 0.0 0 0 72.83 75.12
  L 72.99 74.77
  A 0.96 0.94 24.7 0 0 72.51 73.50
  Q 67.88 71.46 63.20 73.42
  Q 62.37 73.77 62.52 74.66
  L 62.59 75.06
  A 0.61 0.61 0.0 0 0 63.43 75.52
  Z
  M 101.38 77.01
  A 3.18 3.18 0.0 0 0 98.20 73.83
  A 3.18 3.18 0.0 0 0 95.02 77.01
  A 3.18 3.18 0.0 0 0 98.20 80.19
  A 3.18 3.18 0.0 0 0 101.38 77.01
  Z"
/>
<path fill="#eeeeee" d="
  M 124.53 75.87
  A 0.35 0.35 0.0 0 1 124.12 75.61
  L 122.42 67.88
  A 1.64 1.37 77.6 0 1 123.40 65.98
  L 123.85 65.89
  A 1.64 1.37 77.6 0 1 125.54 67.19
  L 127.24 74.92
  A 0.35 0.35 0.0 0 1 126.97 75.34
  L 124.53 75.87
  Z"
/>
<path fill="#eeeeee" d="
  M 132.28 118.44
  C 133.63 118.88 136.14 117.78 137.55 117.40
  Q 138.06 117.27 138.43 117.64
  Q 138.85 118.08 139.26 117.45
  Q 139.52 117.06 139.06 117.12
  Q 138.89 117.14 138.73 117.14
  Q 138.31 117.16 138.60 116.85
  Q 141.02 114.30 144.47 115.04
  Q 145.10 115.17 144.67 115.65
  Q 143.25 117.24 141.14 117.40
  Q 140.66 117.44 140.51 117.89
  Q 140.45 118.06 140.40 118.24
  Q 140.37 118.33 140.29 118.36
  C 135.98 120.04 132.70 119.17 128.34 118.92
  C 124.57 118.70 120.38 116.00 118.08 113.43
  C 108.51 102.74 110.51 84.49 125.58 79.63
  C 128.13 78.81 136.10 78.21 138.77 79.54
  Q 139.24 79.78 138.76 79.99
  L 137.48 80.54
  Q 136.93 80.79 137.44 81.11
  C 143.40 84.91 147.77 88.89 148.38 96.25
  C 149.28 107.06 143.01 116.12 132.31 118.04
  Q 131.48 118.19 132.28 118.44
  Z
  M 137.10 97.96
  Q 139.13 93.11 134.36 91.20
  Q 133.82 90.98 133.79 90.39
  C 133.74 89.47 134.09 88.46 133.46 87.77
  Q 132.89 87.14 131.79 87.61
  Q 131.36 87.79 131.22 88.24
  Q 130.92 89.22 131.14 90.22
  Q 131.32 91.03 130.49 91.03
  L 128.30 91.02
  Q 127.57 91.02 127.53 90.30
  L 127.39 88.19
  Q 127.35 87.54 126.69 87.52
  L 125.33 87.50
  Q 124.64 87.49 124.61 88.17
  L 124.52 90.52
  Q 124.49 91.26 123.78 91.06
  Q 122.07 90.58 121.45 91.88
  A 1.13 1.13 0.0 0 0 122.46 93.49
  L 132.81 93.51
  A 1.74 1.73 86.6 0 1 134.53 95.05
  L 134.61 95.80
  A 2.32 2.32 0.0 0 1 132.31 98.38
  L 121.26 98.43
  Q 120.00 98.43 119.99 99.70
  L 119.98 100.07
  A 0.78 0.78 0.0 0 0 120.76 100.85
  L 131.97 100.89
  A 2.87 2.86 -5.2 0 1 134.78 103.22
  L 134.92 103.95
  A 1.68 1.67 84.6 0 1 133.28 105.94
  L 122.67 105.94
  A 1.17 1.17 0.0 0 0 121.50 107.08
  L 121.48 107.55
  A 0.89 0.88 2.4 0 0 122.32 108.45
  L 123.90 108.53
  A 0.66 0.66 0.0 0 1 124.52 109.14
  L 124.62 111.14
  Q 124.65 111.68 125.13 111.95
  Q 126.05 112.46 126.96 111.95
  Q 127.46 111.67 127.47 111.09
  L 127.50 109.17
  Q 127.51 108.60 128.08 108.58
  L 130.70 108.52
  Q 131.17 108.51 131.10 108.98
  Q 130.91 110.20 131.23 111.41
  Q 131.37 111.95 131.90 112.10
  Q 132.54 112.28 133.16 112.05
  Q 133.77 111.82 133.79 111.17
  L 133.84 109.15
  A 0.71 0.71 0.0 0 1 134.30 108.50
  Q 139.39 106.53 137.13 101.34
  A 0.42 0.42 0.0 0 1 137.64 100.77
  Q 139.25 101.25 139.67 100.98
  Q 142.95 98.87 139.07 98.43
  Q 138.58 98.38 137.41 98.42
  Q 136.90 98.44 137.10 97.96
  Z"
/>
<path fill="#eeeeee" d="
  M 143.69 82.76
  Q 141.31 83.08 139.40 81.59
  Q 139.05 81.32 139.49 81.24
  C 141.22 80.94 143.63 80.96 144.57 82.58
  A 0.25 0.25 0.0 0 1 144.26 82.93
  L 143.93 82.79
  A 0.46 0.41 48.6 0 0 143.69 82.76
  Z"
/>
<path fill="#eeeeee" d="
  M 143.54 83.60
  C 145.30 83.66 146.49 83.38 147.63 85.08
  Q 147.86 85.42 147.45 85.48
  C 145.72 85.71 143.73 85.90 143.19 84.04
  Q 143.06 83.58 143.54 83.60
  Z"
/>
<path fill="#eeeeee" d="
  M 96.72 90.96
  C 92.32 89.76 89.91 90.34 87.57 85.73
  Q 87.34 85.29 87.70 84.94
  L 88.58 84.08
  A 0.60 0.59 -46.1 0 1 89.39 84.06
  C 92.11 86.46 95.63 86.77 98.98 87.56
  A 2.22 2.21 -89.6 0 1 100.63 89.24
  C 101.51 93.24 101.18 97.98 105.52 100.32
  A 1.43 1.43 0.0 0 1 106.06 102.32
  L 105.80 102.73
  Q 104.80 104.38 103.15 103.37
  C 98.51 100.56 98.12 96.57 97.29 91.59
  Q 97.21 91.09 96.72 90.96
  Z"
/>
<path fill="#eeeeee" d="
  M 149.32 87.07
  L 151.05 89.96
  A 0.33 0.33 0.0 0 1 150.77 90.46
  L 147.81 90.50
  A 0.33 0.33 0.0 0 1 147.51 90.33
  L 145.81 87.28
  A 0.33 0.33 0.0 0 1 146.11 86.79
  L 149.05 86.91
  A 0.33 0.33 0.0 0 1 149.32 87.07
  Z"
/>
<path fill="#eeeeee" d="
  M 151.87 94.88
  L 149.08 94.87
  A 0.36 0.36 0.0 0 1 148.73 94.59
  L 148.22 92.45
  A 0.36 0.36 0.0 0 1 148.57 92.00
  L 151.46 92.02
  A 0.36 0.36 0.0 0 1 151.81 92.31
  L 152.23 94.45
  A 0.36 0.36 0.0 0 1 151.87 94.88
  Z"
/>
<rect fill="#eeeeee" x="-1.73" y="-1.56" transform="translate(150.95,98.32) rotate(-0.1)" width="3.46" height="3.12" rx="0.44"/>
<path fill="#eeeeee" d="
  M 152.32 102.16
  L 151.79 104.77
  A 0.45 0.45 0.0 0 1 151.35 105.13
  L 148.74 105.13
  A 0.45 0.45 0.0 0 1 148.29 104.62
  L 148.67 102.01
  A 0.45 0.45 0.0 0 1 149.12 101.62
  L 151.88 101.62
  A 0.45 0.45 0.0 0 1 152.32 102.16
  Z"
/>
<path fill="#eeeeee" d="
  M 51.53 134.62
  Q 32.09 124.23 24.16 103.63
  Q 23.90 102.94 24.55 103.30
  Q 34.50 108.69 45.51 105.60
  A 1.37 1.36 65.5 0 1 47.02 106.17
  Q 51.01 112.34 56.65 117.08
  Q 57.97 118.19 56.75 119.41
  L 56.03 120.13
  A 1.66 1.65 42.9 0 1 53.79 120.21
  L 49.04 116.11
  A 0.76 0.75 43.5 0 0 48.03 116.13
  L 47.69 116.44
  Q 46.54 117.52 47.74 118.53
  L 54.94 124.63
  Q 55.33 124.96 55.76 124.68
  L 57.21 123.74
  A 0.95 0.94 56.6 0 1 58.51 124.01
  L 63.49 131.64
  A 0.72 0.72 0.0 0 1 63.27 132.64
  Q 57.97 135.91 52.75 139.44
  Q 51.65 140.18 50.71 140.20
  A 0.84 0.83 13.1 0 1 49.95 138.98
  L 51.79 135.45
  Q 52.07 134.91 51.53 134.62
  Z
  M 35.4397 112.5726
  A 2.68 1.39 60.5 0 0 35.3298 109.5555
  A 2.68 1.39 60.5 0 0 32.8003 107.9074
  A 2.68 1.39 60.5 0 0 32.9102 110.9245
  A 2.68 1.39 60.5 0 0 35.4397 112.5726
  Z
  M 42.9351 108.7919
  A 1.11 1.11 0.0 0 0 41.3754 108.6142
  L 41.1093 108.8258
  A 1.11 1.11 0.0 0 0 40.9316 110.3855
  L 43.8449 114.0481
  A 1.11 1.11 0.0 0 0 45.4046 114.2258
  L 45.6707 114.0142
  A 1.11 1.11 0.0 0 0 45.8484 112.4545
  L 42.9351 108.7919
  Z
  M 39.9159 118.7830
  A 2.59 1.41 52.8 0 0 39.4731 115.8675
  A 2.59 1.41 52.8 0 0 36.7841 114.6570
  A 2.59 1.41 52.8 0 0 37.2269 117.5725
  A 2.59 1.41 52.8 0 0 39.9159 118.7830
  Z
  M 45.4775 123.5034
  A 1.16 1.16 0.0 0 0 45.3260 121.8699
  L 43.4948 120.3496
  A 1.16 1.16 0.0 0 0 41.8613 120.5012
  L 41.6825 120.7166
  A 1.16 1.16 0.0 0 0 41.8340 122.3501
  L 43.6652 123.8704
  A 1.16 1.16 0.0 0 0 45.2987 123.7188
  L 45.4775 123.5034
  Z
  M 52.7475 128.5731
  A 1.08 1.08 0.0 0 0 52.4352 127.0780
  L 49.4228 125.1068
  A 1.08 1.08 0.0 0 0 47.9277 125.4191
  L 47.7525 125.6869
  A 1.08 1.08 0.0 0 0 48.0648 127.1820
  L 51.0772 129.1532
  A 1.08 1.08 0.0 0 0 52.5723 128.8409
  L 52.7475 128.5731
  Z
  M 57.79 130.69
  A 1.57 1.57 0.0 0 0 56.22 129.12
  A 1.57 1.57 0.0 0 0 54.65 130.69
  A 1.57 1.57 0.0 0 0 56.22 132.26
  A 1.57 1.57 0.0 0 0 57.79 130.69
  Z"
/>
<path fill="#eeeeee" d="
  M 145.95 111.23
  Q 146.73 111.50 147.49 111.30
  A 0.54 0.54 0.0 0 1 148.09 112.11
  Q 146.38 114.91 143.00 114.18
  A 0.38 0.37 28.7 0 1 142.81 113.55
  L 145.16 111.22
  Q 145.55 110.83 145.73 110.32
  Q 146.33 108.67 147.33 107.20
  Q 147.65 106.72 148.22 106.73
  L 150.30 106.73
  Q 151.27 106.74 150.83 107.60
  L 149.68 109.88
  Q 149.29 110.65 148.43 110.54
  Q 147.11 110.37 145.94 110.86
  A 0.20 0.20 0.0 0 0 145.95 111.23
  Z"
/>
<path fill="#eeeeee" d="
  M 115.68 116.21
  A 0.24 0.24 0.0 0 1 115.68 116.54
  L 114.37 117.85
  A 3.49 1.86 -44.8 0 1 110.58 118.99
  L 110.30 118.70
  A 3.49 1.86 -44.8 0 1 111.47 114.93
  L 112.78 113.62
  A 0.24 0.24 0.0 0 1 113.12 113.62
  L 115.68 116.21
  Z"
/>
<path fill="#eeeeee" d="
  M 115.92 133.03
  Q 117.30 134.59 117.98 136.56
  A 0.74 0.74 0.0 0 1 117.34 137.54
  Q 116.86 137.58 116.24 137.26
  Q 110.25 134.19 104.72 131.22
  Q 103.73 130.69 104.29 129.71
  L 108.47 122.47
  Q 108.77 121.95 109.34 122.15
  Q 110.40 122.53 110.98 123.49
  A 0.64 0.63 54.2 0 0 111.94 123.65
  L 117.74 118.68
  A 0.36 0.35 40.4 0 1 118.17 118.65
  L 120.41 120.09
  Q 120.63 120.23 120.44 120.42
  L 116.21 124.42
  A 0.95 0.94 -42.6 0 0 116.15 125.73
  L 116.40 126.02
  Q 117.27 127.00 118.24 126.12
  L 123.27 121.53
  A 0.36 0.35 30.4 0 1 123.60 121.45
  L 127.03 122.25
  A 0.25 0.24 27.7 0 1 127.16 122.65
  Q 122.23 128.09 116.05 132.09
  Q 115.44 132.48 115.92 133.03
  Z
  M 113.84 128.06
  A 1.70 1.70 0.0 0 0 112.14 126.36
  A 1.70 1.70 0.0 0 0 110.44 128.06
  A 1.70 1.70 0.0 0 0 112.14 129.76
  A 1.70 1.70 0.0 0 0 113.84 128.06
  Z"
/>
<path fill="#eeeeee" d="
  M 98.83 131.58
  A 0.90 0.90 0.0 0 0 99.17 132.80
  L 108.07 137.89
  A 0.52 0.52 0.0 0 1 108.00 138.83
  Q 84.91 147.72 61.45 139.67
  A 0.37 0.36 -53.2 0 1 61.36 139.03
  L 68.37 134.00
  A 1.37 1.36 -33.6 0 0 68.74 132.18
  L 61.84 120.85
  Q 60.87 119.27 62.54 120.08
  Q 83.69 130.35 104.54 119.74
  Q 105.63 119.18 105.04 120.26
  L 98.83 131.58
  Z"
/>
<ellipse fill="#eeeeee" cx="0.00" cy="0.00" transform="translate(36.45,150.39) rotate(-9.0)" rx="1.76" ry="1.55"/>
<ellipse fill="#eeeeee" cx="0.00" cy="0.00" transform="translate(43.05,150.35) rotate(2.0)" rx="1.83" ry="1.58"/>
<rect fill="#eeeeee" x="47.88" y="148.90" width="78.08" height="3.06" rx="1.52"/>
<ellipse fill="#eeeeee" cx="0.00" cy="0.00" transform="translate(130.71,150.41) rotate(-6.6)" rx="1.78" ry="1.55"/>
</svg>
