<?xml version="1.0" encoding="UTF-8" standalone="no"?>
<!DOCTYPE svg PUBLIC "-//W3C//DTD SVG 1.1//EN" "http://www.w3.org/Graphics/SVG/1.1/DTD/svg11.dtd">
<svg xmlns="http://www.w3.org/2000/svg" version="1.1" viewBox="0.00 0.00 160.00 160.00">
<path fill="#e8e8e8" d="
  M 39.74 67.61
  L 42.88 58.90
  A 1.12 1.11 33.4 0 0 42.64 57.76
  L 37.31 52.24
  A 2.77 2.77 0.0 0 1 37.33 48.38
  L 48.16 37.34
  A 2.50 2.50 0.0 0 1 51.60 37.22
  L 57.31 42.26
  A 2.15 2.15 0.0 0 0 59.59 42.61
  L 68.37 38.77
  A 0.84 0.83 83.2 0 0 68.87 38.12
  L 70.15 29.80
  Q 70.52 27.37 72.97 27.37
  L 86.86 27.37
  A 2.60 2.60 0.0 0 1 89.43 29.60
  L 90.59 37.83
  A 1.45 1.44 7.6 0 0 91.47 38.97
  L 100.01 42.59
  A 2.45 2.44 -55.3 0 0 102.64 42.11
  L 107.75 37.26
  A 2.47 2.47 0.0 0 1 111.20 37.31
  L 122.33 48.52
  Q 124.14 50.35 122.35 52.19
  L 117.27 57.46
  A 2.10 2.09 56.6 0 0 116.82 59.67
  L 119.76 67.29
  A 1.72 1.71 83.7 0 0 121.10 68.37
  L 129.17 69.60
  A 1.71 1.71 0.0 0 1 130.62 71.28
  L 130.63 85.47
  Q 130.63 87.32 128.79 87.59
  L 121.37 88.67
  A 2.41 2.40 6.2 0 0 119.45 90.21
  L 116.82 97.24
  A 2.05 2.04 -55.8 0 0 117.22 99.35
  Q 119.67 102.03 122.13 104.36
  C 124.94 107.01 121.56 109.15 119.96 110.81
  Q 115.66 115.24 111.31 119.28
  A 2.79 2.79 0.0 0 1 107.58 119.33
  L 102.40 114.78
  A 2.29 2.29 0.0 0 0 100.05 114.37
  L 92.32 117.40
  A 3.22 3.20 -6.9 0 0 90.32 119.93
  L 89.36 126.91
  A 2.29 2.29 0.0 0 1 87.10 128.89
  L 72.77 128.96
  A 2.65 2.65 0.0 0 1 70.11 126.57
  C 69.86 124.02 69.68 120.43 68.56 118.08
  A 0.87 0.86 87.0 0 0 68.10 117.66
  L 59.29 114.26
  A 1.69 1.69 0.0 0 0 57.57 114.56
  C 55.04 116.76 50.72 122.33 47.18 118.56
  Q 42.13 113.19 37.41 108.46
  A 2.89 2.89 0.0 0 1 37.38 104.41
  L 42.55 99.07
  A 1.38 1.38 0.0 0 0 42.85 97.62
  L 40.02 90.04
  A 2.03 2.02 83.8 0 0 38.41 88.74
  L 30.88 87.66
  A 2.40 2.40 0.0 0 1 28.82 85.27
  L 28.84 71.75
  A 2.26 2.25 -4.5 0 1 30.75 69.53
  L 38.95 68.27
  A 1.01 0.99 -84.5 0 0 39.74 67.61
  Z
  M 107.78 78.43
  A 28.00 28.00 0.0 0 0 79.78 50.43
  A 28.00 28.00 0.0 0 0 51.78 78.43
  A 28.00 28.00 0.0 0 0 79.78 106.43
  A 28.00 28.00 0.0 0 0 107.78 78.43
  Z"
/>
<path fill="#e8e8e8" d="
  M 93.90 65.34
  L 94.13 65.16
  Q 94.39 64.96 94.62 65.20
  C 100.26 71.03 94.51 78.74 86.92 77.45
  Q 86.37 77.36 86.32 77.91
  Q 85.79 83.14 80.45 82.97
  Q 79.94 82.95 79.99 83.46
  Q 80.84 91.81 74.75 95.78
  C 71.13 98.15 62.11 100.21 60.74 94.34
  C 58.53 84.85 66.66 77.10 76.15 79.58
  Q 76.79 79.75 76.69 79.09
  Q 76.17 75.55 79.05 73.54
  Q 79.66 73.11 80.04 73.75
  L 80.17 73.97
  A 0.85 0.84 -37.7 0 1 80.03 75.01
  L 79.05 75.96
  A 0.34 0.34 0.0 0 0 79.48 76.49
  Q 80.51 75.79 81.76 75.76
  A 0.14 0.14 0.0 0 0 81.88 75.57
  Q 78.65 68.05 84.01 63.78
  Q 84.41 63.46 84.18 63.00
  C 82.47 59.54 83.41 57.53 85.37 54.57
  A 0.84 0.83 32.9 0 1 86.52 54.33
  L 86.75 54.47
  Q 87.57 55.00 87.14 55.87
  L 85.44 59.31
  Q 85.19 59.82 85.42 60.33
  L 86.65 63.03
  Q 86.91 63.61 87.42 63.24
  Q 88.61 62.38 90.07 62.94
  A 0.63 0.62 -72.1 0 1 90.45 63.69
  Q 90.10 64.98 90.76 65.37
  Q 91.42 65.74 91.33 64.99
  Q 90.97 62.04 92.35 59.42
  Q 92.57 59.00 93.03 58.92
  L 96.87 58.29
  A 0.68 0.68 0.0 0 1 97.64 58.82
  L 97.73 59.23
  A 1.01 1.00 -11.3 0 1 96.93 60.42
  L 94.46 60.88
  Q 93.70 61.02 93.64 61.78
  L 93.36 65.04
  Q 93.30 65.80 93.90 65.34
  Z
  M 82.75 69.18
  Q 82.68 70.00 83.23 69.38
  Q 83.91 68.60 84.39 67.14
  A 0.39 0.39 0.0 0 0 83.71 66.77
  Q 82.86 67.81 82.75 69.18
  Z
  M 93.76 71.08
  A 2.38 2.38 0.0 0 0 91.38 68.70
  A 2.38 2.38 0.0 0 0 89.00 71.08
  A 2.38 2.38 0.0 0 0 91.38 73.46
  A 2.38 2.38 0.0 0 0 93.76 71.08
  Z
  M 63.17 92.06
  C 64.63 87.21 67.42 82.70 73.48 82.29
  Q 76.49 82.08 73.56 81.35
  Q 71.76 80.91 69.36 81.83
  Q 62.37 84.51 62.79 92.02
  Q 62.85 93.12 63.17 92.06
  Z"
/>
<path fill="#e8e8e8" d="
  M 69.70 63.00
  L 72.84 63.65
  A 1.02 1.02 0.0 0 1 72.84 65.65
  L 69.70 66.30
  A 1.02 1.02 0.0 0 0 68.91 67.09
  L 68.26 70.23
  A 1.02 1.02 0.0 0 1 66.26 70.23
  L 65.61 67.09
  A 1.02 1.02 0.0 0 0 64.82 66.30
  L 61.68 65.65
  A 1.02 1.02 0.0 0 1 61.68 63.65
  L 64.82 63.00
  A 1.02 1.02 0.0 0 0 65.61 62.21
  L 66.26 59.07
  A 1.02 1.02 0.0 0 1 68.26 59.07
  L 68.91 62.21
  A 1.02 1.02 0.0 0 0 69.70 63.00
  Z"
/>
<path fill="#e8e8e8" d="
  M 70.07 74.61
  Q 68.61 74.12 69.69 73.02
  L 70.67 72.01
  A 1.40 1.39 48.2 0 1 72.76 72.13
  L 75.28 75.33
  A 1.55 1.55 0.0 0 1 75.08 77.46
  L 74.76 77.75
  A 0.74 0.74 0.0 0 1 73.63 77.56
  Q 72.40 75.40 70.07 74.61
  Z"
/>
<path fill="#e8e8e8" d="
  M 65.16 77.30
  L 57.91 85.81
  Q 57.23 86.61 56.49 85.86
  L 56.24 85.61
  Q 55.36 84.72 56.17 83.77
  L 64.19 74.33
  A 1.08 1.07 33.7 0 1 65.50 74.07
  L 71.04 76.96
  Q 71.59 77.24 71.00 77.40
  L 68.01 78.20
  A 1.28 1.26 58.1 0 1 66.85 77.92
  L 66.07 77.23
  A 0.65 0.63 -48.7 0 0 65.16 77.30
  Z"
/>
<path fill="#e8e8e8" d="
  M 92.28 82.28
  L 88.02 81.43
  Q 87.49 81.32 87.55 80.78
  L 87.63 80.02
  A 0.76 0.76 0.0 0 1 88.44 79.34
  C 90.43 79.48 94.67 78.94 95.47 81.34
  Q 97.09 86.21 98.84 90.76
  Q 99.34 92.05 98.01 92.41
  L 97.72 92.49
  Q 96.86 92.73 96.53 91.90
  L 92.97 82.87
  A 0.96 0.93 84.5 0 0 92.28 82.28
  Z"
/>
<path fill="#e8e8e8" d="
  M 88.74 86.35
  L 85.20 84.17
  A 0.46 0.46 0.0 0 1 85.15 83.42
  L 86.16 82.59
  A 0.46 0.46 0.0 0 1 86.62 82.52
  L 90.78 84.23
  A 0.46 0.46 0.0 0 1 91.06 84.56
  L 93.80 97.48
  A 0.46 0.46 0.0 0 1 93.37 98.03
  L 91.48 98.11
  A 0.46 0.46 0.0 0 1 91.01 97.74
  L 88.95 86.66
  A 0.46 0.46 0.0 0 0 88.74 86.35
  Z"
/>
<path fill="#e8e8e8" d="
  M 84.18 88.99
  L 82.40 87.03
  Q 81.66 86.21 81.77 85.12
  L 81.81 84.67
  A 0.71 0.70 -65.8 0 1 82.99 84.22
  L 86.84 87.78
  Q 87.23 88.13 87.23 88.66
  L 87.23 101.25
  A 1.00 1.00 0.0 0 1 86.24 102.25
  L 85.77 102.25
  Q 84.53 102.26 84.53 101.02
  L 84.52 89.89
  A 1.37 1.33 -66.5 0 0 84.18 88.99
  Z"
/>
<path fill="#e8e8e8" d="
  M 46.01 139.72
  C 69.41 138.49 93.44 138.37 116.72 139.83
  Q 118.55 139.94 116.77 140.37
  Q 114.11 141.01 110.25 141.14
  Q 80.25 142.15 50.25 141.19
  Q 45.64 141.05 41.13 140.13
  A 0.02 0.01 46.8 0 1 41.13 140.10
  Q 43.56 139.85 46.01 139.72
  Z"
/>
</svg>
