<?xml version="1.0" encoding="UTF-8" standalone="no"?>
<!DOCTYPE svg PUBLIC "-//W3C//DTD SVG 1.1//EN" "http://www.w3.org/Graphics/SVG/1.1/DTD/svg11.dtd">
<svg xmlns="http://www.w3.org/2000/svg" version="1.1" viewBox="0.00 0.00 160.00 160.00">
<path fill="#d1d1d1" d="
  M 108.24 40.25
  Q 107.09 40.18 106.22 39.31
  A 0.27 0.26 -42.5 0 0 105.86 39.30
  L 105.65 39.48
  Q 105.61 39.52 105.65 39.56
  L 107.20 41.49
  Q 107.56 41.94 107.84 41.43
  Q 108.13 40.89 108.24 40.25
  Q 108.52 40.22 108.74 40.10
  Q 108.92 39.99 109.02 39.71
  Q 109.48 38.37 109.88 37.84
  Q 111.92 35.17 111.18 38.44
  C 110.79 40.19 107.92 41.63 109.47 44.16
  Q 109.71 44.56 110.09 44.29
  L 110.97 43.66
  Q 111.37 43.36 111.87 43.43
  C 115.85 43.97 118.14 42.52 120.90 46.75
  Q 125.50 53.82 120.31 61.75
  Q 119.28 63.33 117.77 62.21
  Q 115.30 60.37 113.69 57.33
  Q 113.57 57.11 113.44 57.07
  Q 113.31 57.03 113.14 57.10
  A 0.29 0.28 72.4 0 0 112.98 57.42
  Q 113.59 60.40 110.75 60.78
  A 0.77 0.77 0.0 0 0 110.10 61.37
  Q 109.84 62.51 109.00 63.29
  A 0.35 0.35 0.0 0 1 108.42 63.11
  L 108.31 62.64
  A 0.12 0.12 0.0 0 1 108.37 62.52
  Q 108.98 62.20 109.13 61.67
  Q 109.26 61.22 108.80 61.11
  Q 107.86 60.90 107.89 61.75
  C 107.95 63.62 108.71 67.54 106.88 68.66
  A 1.01 1.00 -15.7 0 0 106.41 69.49
  L 106.39 75.00
  A 0.62 0.62 0.0 0 0 106.99 75.62
  Q 110.14 75.72 113.07 76.80
  A 1.00 0.98 10.2 0 1 113.73 77.73
  L 113.76 80.21
  Q 113.77 80.52 114.07 80.62
  Q 118.05 81.86 121.20 84.57
  Q 121.81 85.09 122.03 84.33
  Q 122.54 82.58 123.61 81.14
  Q 124.14 80.43 123.26 80.45
  Q 119.42 80.54 116.80 77.77
  Q 116.46 77.40 115.96 77.48
  Q 115.37 77.57 114.77 77.43
  A 0.49 0.49 0.0 0 1 114.47 76.69
  Q 116.67 73.37 120.38 73.10
  Q 120.88 73.06 121.03 72.88
  Q 121.14 72.75 121.15 72.58
  Q 121.16 72.23 120.85 72.06
  L 117.44 70.22
  Q 117.05 70.01 116.62 70.07
  L 110.56 70.89
  Q 110.34 70.92 110.32 70.70
  L 110.29 70.30
  Q 110.27 70.13 110.45 70.12
  L 117.44 69.63
  Q 118.00 69.59 118.46 69.92
  Q 118.94 70.26 119.45 70.51
  Q 120.58 71.07 119.68 70.19
  C 117.13 67.71 113.73 68.59 110.55 67.88
  Q 110.35 67.84 110.39 67.64
  L 110.44 67.39
  Q 110.47 67.21 110.64 67.23
  L 117.47 67.91
  Q 117.88 67.95 118.21 68.18
  L 122.56 71.17
  Q 122.97 71.45 123.08 71.95
  C 123.48 73.77 124.94 73.42 125.71 74.53
  Q 126.81 76.10 125.87 79.51
  Q 125.64 80.36 126.49 80.60
  Q 127.63 80.91 127.84 82.74
  Q 127.96 83.83 128.19 84.54
  Q 128.53 85.55 128.80 84.53
  Q 129.77 80.95 126.53 79.59
  Q 126.13 79.42 126.37 79.07
  L 126.53 78.84
  A 0.41 0.40 -56.9 0 1 127.07 78.72
  C 132.52 81.95 127.70 85.71 129.93 87.99
  Q 130.30 88.38 130.76 88.09
  Q 132.08 87.23 132.89 87.17
  Q 135.98 86.96 133.31 88.54
  Q 132.50 89.02 130.81 89.30
  Q 130.27 89.39 129.90 89.79
  L 128.07 91.80
  A 0.34 0.33 -64.5 0 0 128.26 92.36
  Q 128.51 92.40 128.74 92.33
  Q 129.26 92.16 129.64 92.55
  C 132.27 95.24 135.97 96.64 133.64 101.28
  A 1.26 1.25 -65.7 0 0 134.29 103.00
  Q 136.88 104.06 136.57 106.22
  C 135.54 113.28 134.70 117.48 135.74 122.77
  Q 135.83 123.24 136.32 123.24
  Q 138.71 123.22 140.93 124.08
  Q 141.44 124.28 141.44 124.82
  L 141.52 129.81
  A 0.77 0.75 -79.4 0 0 141.98 130.50
  Q 142.45 130.71 142.74 131.07
  Q 143.00 131.40 143.02 131.99
  Q 143.13 135.06 142.86 138.10
  Q 142.82 138.58 143.30 138.51
  Q 145.56 138.18 147.81 138.61
  Q 147.99 138.64 147.97 138.82
  L 147.89 139.35
  Q 147.86 139.56 147.65 139.56
  C 116.48 139.55 85.32 140.18 54.24 139.55
  C 53.34 139.53 52.14 139.81 51.38 140.03
  Q 49.84 140.46 51.43 140.49
  L 75.21 140.94
  A 0.17 0.17 0.0 0 1 75.38 141.12
  Q 75.31 142.37 75.38 141.23
  Q 75.38 141.20 75.35 141.20
  C 60.65 142.32 45.74 142.08 31.00 142.01
  Q 22.42 141.98 13.88 141.15
  Q 13.83 141.15 13.88 141.14
  Q 21.40 140.25 28.92 141.10
  Q 29.04 141.11 29.07 140.99
  L 29.07 140.99
  Q 29.09 140.87 28.97 140.83
  C 23.65 139.33 19.02 139.68 13.52 139.49
  Q 13.05 139.47 13.05 139.00
  L 13.06 138.72
  Q 13.06 138.58 13.20 138.58
  L 19.76 138.47
  A 0.36 0.36 0.0 0 0 19.96 137.81
  L 18.91 137.10
  Q 18.51 136.83 18.42 136.35
  L 17.37 130.79
  Q 17.25 130.15 17.72 129.71
  L 19.93 127.64
  Q 20.09 127.50 19.94 127.34
  C 16.96 124.01 15.93 120.52 14.00 117.30
  Q 12.64 115.03 11.58 112.60
  Q 11.38 112.12 11.75 111.76
  Q 12.83 110.72 14.29 110.51
  A 0.81 0.80 -68.2 0 0 14.70 110.33
  C 16.79 108.63 20.49 106.59 22.89 108.93
  A 0.57 0.56 -74.6 0 0 23.83 108.39
  L 23.27 106.00
  A 1.02 1.00 8.8 0 0 22.79 105.36
  Q 21.17 104.43 20.27 102.83
  A 0.35 0.35 0.0 0 1 20.69 102.32
  Q 22.52 102.91 23.39 104.59
  Q 23.65 105.09 24.08 104.73
  C 26.80 102.42 23.80 98.53 29.44 97.55
  Q 29.50 97.54 29.52 97.61
  L 29.57 97.93
  Q 29.62 98.22 29.34 98.27
  Q 26.30 98.84 26.17 101.99
  Q 26.11 103.37 26.72 102.13
  C 27.93 99.66 30.55 99.04 30.86 96.58
  Q 30.92 96.09 31.28 95.75
  Q 32.47 94.62 34.30 94.85
  Q 34.80 94.92 34.98 94.45
  L 35.27 93.70
  A 0.78 0.78 0.0 0 1 35.94 93.19
  Q 37.92 93.01 39.86 92.78
  C 42.43 92.47 44.32 93.40 46.82 93.87
  Q 47.06 93.92 46.99 94.16
  L 46.88 94.54
  Q 46.81 94.78 46.58 94.69
  Q 42.13 92.96 39.60 93.76
  Q 38.27 94.18 39.61 94.58
  L 45.18 96.25
  Q 45.29 96.29 45.26 96.40
  L 45.15 96.73
  A 0.26 0.25 15.9 0 1 44.83 96.90
  Q 41.34 96.00 37.95 94.89
  Q 37.25 94.66 37.17 94.68
  Q 35.66 94.99 36.94 95.82
  Q 39.82 97.69 40.78 100.98
  Q 41.47 103.35 39.64 101.61
  Q 39.24 101.23 38.55 101.92
  Q 38.17 102.31 38.71 102.40
  Q 41.50 102.88 42.98 105.13
  Q 44.21 106.98 44.13 104.77
  L 44.06 102.86
  A 2.00 1.99 -3.8 0 1 45.87 100.80
  L 52.81 100.15
  Q 53.47 100.09 53.47 99.43
  L 53.48 96.92
  A 0.77 0.76 8.8 0 0 52.94 96.19
  L 51.08 95.61
  A 2.26 2.26 0.0 0 1 49.48 93.45
  L 49.47 90.43
  Q 49.47 89.57 48.63 89.38
  C 45.74 88.71 44.09 88.38 44.06 84.90
  Q 44.04 81.62 44.05 78.36
  A 1.25 1.21 -25.5 0 1 44.35 77.56
  Q 45.24 76.54 43.89 76.02
  Q 43.32 75.80 43.31 75.18
  L 43.29 67.15
  A 0.89 0.88 -4.5 0 1 44.05 66.27
  L 53.12 64.98
  A 0.61 0.60 86.2 0 0 53.64 64.38
  L 53.63 60.90
  Q 53.62 60.35 54.05 60.01
  L 54.43 59.70
  Q 55.02 59.23 54.30 59.02
  Q 53.00 58.65 52.14 57.65
  Q 51.80 57.25 51.80 56.72
  L 51.81 48.85
  Q 51.81 47.24 53.38 46.89
  L 56.94 46.09
  A 0.90 0.88 2.9 0 0 57.59 45.51
  L 59.56 39.92
  Q 59.79 39.29 59.25 39.70
  Q 54.87 43.09 49.24 42.49
  Q 48.77 42.44 48.69 41.98
  C 47.51 35.56 50.69 28.30 57.76 27.51
  C 59.33 27.34 60.87 28.14 62.69 28.04
  A 0.89 0.89 0.0 0 1 63.51 28.49
  Q 64.26 29.81 65.53 30.67
  Q 65.83 30.87 65.57 31.12
  Q 65.42 31.27 65.28 31.43
  A 0.08 0.08 0.0 0 0 65.39 31.54
  Q 65.91 31.07 66.53 31.07
  Q 67.14 31.08 67.20 30.47
  Q 67.30 29.44 67.80 28.53
  A 1.09 1.06 -42.9 0 0 67.85 27.58
  L 66.71 25.02
  A 1.92 1.50 60.6 0 1 67.03 22.94
  Q 67.21 22.80 67.65 23.16
  Q 67.88 23.35 68.01 23.68
  Q 68.61 25.17 68.87 26.01
  Q 69.79 29.06 70.20 25.91
  C 70.46 23.87 74.03 21.18 76.65 22.39
  Q 77.19 22.64 77.27 22.06
  Q 77.83 17.89 81.99 18.77
  Q 82.49 18.88 82.74 18.44
  Q 83.62 16.98 86.24 17.13
  Q 90.56 17.39 94.95 17.77
  Q 95.15 17.79 95.13 17.99
  L 95.12 18.26
  Q 95.10 18.49 94.87 18.48
  L 87.53 18.03
  Q 85.18 17.88 87.36 18.79
  Q 90.08 19.91 93.99 20.86
  Q 94.44 20.97 94.16 21.34
  L 93.90 21.69
  A 0.27 0.27 0.0 0 1 93.59 21.78
  L 84.89 18.70
  Q 84.37 18.51 84.13 19.00
  Q 83.98 19.30 84.03 19.66
  Q 84.07 19.98 84.42 20.35
  C 86.29 22.29 88.40 24.50 88.03 27.39
  Q 87.97 27.85 87.53 27.70
  Q 86.10 27.21 83.63 27.43
  Q 80.88 27.67 78.23 24.94
  A 0.34 0.34 0.0 0 0 77.65 25.22
  Q 78.10 28.08 76.56 30.44
  Q 76.41 30.66 76.60 30.85
  L 76.94 31.19
  Q 77.13 31.38 77.27 31.15
  L 77.56 30.67
  Q 77.63 30.56 77.76 30.55
  C 79.83 30.51 81.41 29.24 83.33 30.15
  A 1.61 1.61 0.0 0 0 84.27 30.28
  L 92.93 28.72
  A 1.45 1.44 75.5 0 1 94.55 29.68
  L 94.66 30.01
  Q 94.87 30.63 95.52 30.56
  Q 98.83 30.18 99.39 33.21
  Q 99.50 33.75 100.01 33.56
  C 103.34 32.33 105.66 35.16 106.37 38.04
  A 1.35 1.32 10.8 0 0 106.91 38.82
  Q 107.81 39.42 108.24 40.25
  Z
  M 83.93 21.83
  Q 82.55 18.99 79.50 19.74
  Q 78.81 19.91 79.37 20.34
  Q 80.85 21.51 82.73 21.60
  A 0.85 0.83 76.2 0 1 83.42 22.03
  Q 83.63 22.41 83.98 22.29
  A 0.20 0.17 -1.8 0 0 84.09 22.19
  Q 84.25 21.79 83.99 21.86
  Q 83.95 21.87 83.93 21.83
  Z
  M 71.49 25.51
  Q 71.00 27.20 72.09 25.82
  Q 73.27 24.32 75.11 23.81
  Q 76.72 23.37 75.08 23.08
  Q 72.33 22.60 71.49 25.51
  Z
  M 69.62 28.95
  Q 70.00 28.75 70.26 28.39
  Q 70.62 27.88 70.00 27.99
  Q 68.20 28.31 67.83 30.05
  Q 67.60 31.16 68.34 30.30
  L 69.25 29.25
  A 1.36 1.14 0.8 0 1 69.62 28.95
  Z
  M 59.50 30.60
  A 0.45 0.45 0.0 0 1 60.25 30.97
  Q 60.15 32.09 60.62 33.13
  A 0.22 0.22 0.0 0 0 61.04 33.00
  Q 60.81 31.73 61.23 30.49
  A 1.18 1.18 0.0 0 0 60.52 29.00
  Q 56.88 27.68 53.94 30.18
  Q 53.01 30.97 54.21 30.72
  L 57.04 30.14
  A 0.68 0.68 0.0 0 1 57.80 30.53
  L 58.24 31.52
  A 0.39 0.39 0.0 0 0 58.97 31.47
  Q 59.11 30.96 59.50 30.60
  Z
  M 84.87 31.17
  L 85.06 31.95
  A 0.21 0.21 0.0 0 0 85.32 32.10
  L 85.47 32.07
  A 6.81 0.51 -13.9 0 0 91.96 29.93
  L 91.91 29.74
  A 6.81 0.51 -13.9 0 0 85.18 30.88
  L 85.02 30.92
  A 0.21 0.21 0.0 0 0 84.87 31.17
  Z
  M 75.35 33.64
  C 76.34 34.72 77.87 34.33 78.89 34.64
  C 82.01 35.56 82.78 40.72 83.50 43.15
  Q 84.94 47.98 87.04 43.40
  Q 88.15 40.96 92.47 39.41
  Q 93.19 39.15 94.34 39.68
  Q 99.10 41.87 100.53 42.80
  A 0.32 0.31 36.4 0 0 100.95 42.74
  L 101.12 42.53
  Q 101.50 42.05 101.05 41.63
  Q 98.92 39.69 99.30 36.74
  A 0.36 0.36 0.0 0 0 98.69 36.43
  L 97.66 37.41
  Q 97.24 37.80 96.71 38.03
  C 94.20 39.13 91.38 38.40 89.98 39.26
  A 0.50 0.50 0.0 0 1 89.21 38.82
  Q 89.31 34.86 92.22 32.30
  Q 94.43 30.35 91.56 31.02
  Q 89.74 31.45 86.83 32.73
  Q 86.08 33.06 86.57 33.71
  Q 88.15 35.86 87.42 36.36
  Q 86.84 36.76 86.73 36.07
  Q 86.26 33.08 83.34 33.47
  Q 82.80 33.54 82.74 32.99
  Q 82.73 32.84 83.29 32.76
  A 0.45 0.45 0.0 0 0 83.51 31.96
  L 82.40 31.07
  A 0.78 0.78 0.0 0 0 81.46 31.04
  Q 79.26 32.58 76.62 33.18
  Q 76.07 33.31 75.80 32.82
  L 74.78 31.00
  Q 74.48 30.46 74.30 31.05
  L 73.77 32.74
  Q 73.58 33.37 74.24 33.37
  L 74.73 33.37
  Q 75.10 33.37 75.35 33.64
  Z
  M 54.02 36.00
  A 0.26 0.26 0.0 0 0 54.47 35.77
  L 53.08 31.29
  Q 52.97 30.93 52.72 31.21
  L 51.96 32.05
  Q 51.50 32.57 51.91 33.14
  L 54.02 36.00
  Z
  M 93.39 32.46
  Q 92.82 33.37 93.89 33.28
  Q 95.33 33.15 96.61 32.36
  Q 98.19 31.39 96.34 31.33
  Q 94.14 31.26 93.39 32.46
  Z
  M 70.75 32.51
  C 70.05 34.68 69.65 36.77 71.12 38.78
  Q 73.23 41.68 73.56 44.93
  Q 73.60 45.35 74.01 45.35
  L 78.77 45.36
  A 0.27 0.27 0.0 0 0 79.02 44.98
  Q 77.50 41.28 77.63 37.25
  A 1.06 1.05 0.5 0 0 76.55 36.16
  Q 72.03 36.27 71.51 32.25
  Q 71.44 31.71 71.03 32.05
  Q 70.85 32.20 70.75 32.51
  Z
  M 64.12 32.63
  Q 63.80 32.20 63.16 32.24
  Q 62.18 32.31 63.04 32.78
  L 65.54 34.18
  Q 66.60 34.77 65.80 33.85
  Q 65.09 33.03 64.12 32.63
  Z
  M 67.26 36.27
  Q 65.61 36.59 64.54 35.32
  Q 63.49 34.09 63.40 35.70
  Q 63.31 37.53 62.96 39.75
  C 62.65 41.77 61.26 43.23 60.89 45.43
  A 0.31 0.31 0.0 0 0 61.21 45.79
  L 71.66 45.37
  Q 72.26 45.35 72.00 44.81
  Q 69.98 40.73 68.94 36.28
  Q 68.81 35.74 68.82 35.18
  L 68.83 34.27
  A 0.37 0.36 72.0 0 0 68.25 33.97
  Q 67.53 34.51 67.76 35.49
  A 0.64 0.64 0.0 0 1 67.26 36.27
  Z
  M 100.13 34.68
  A 0.20 0.19 -73.1 0 0 100.29 34.99
  Q 102.70 34.92 104.16 36.78
  Q 105.20 38.10 104.86 36.46
  Q 104.45 34.49 101.03 33.84
  A 0.44 0.44 0.0 0 0 100.59 34.02
  L 100.13 34.68
  Z
  M 62.87 35.36
  Q 63.35 34.74 62.47 34.32
  Q 62.17 34.17 62.19 34.50
  L 62.28 36.69
  Q 62.32 37.70 62.73 36.78
  Q 63.03 36.09 62.87 35.36
  Z
  M 80.54 45.29
  L 82.64 45.35
  Q 83.36 45.38 83.11 44.70
  L 80.20 37.04
  Q 80.06 36.66 79.67 36.56
  Q 79.53 36.52 79.40 36.48
  Q 78.84 36.28 78.80 36.88
  Q 78.54 40.78 79.58 44.53
  Q 79.78 45.27 80.54 45.29
  Z
  M 50.07 37.47
  Q 50.50 38.18 51.16 38.59
  Q 51.96 39.10 51.51 38.26
  Q 51.02 37.35 50.52 37.02
  Q 49.30 36.19 50.07 37.47
  Z
  M 93.51 45.85
  Q 96.14 46.15 97.62 44.05
  Q 97.89 43.68 97.51 43.42
  L 93.36 40.53
  Q 92.92 40.23 92.49 40.53
  C 90.76 41.76 88.13 42.88 87.50 45.01
  Q 87.36 45.47 87.84 45.49
  C 89.80 45.56 91.27 45.59 93.51 45.85
  Z
  M 60.18 42.45
  Q 58.92 43.77 58.57 45.35
  Q 58.46 45.87 58.98 45.95
  L 59.31 46.00
  A 0.49 0.49 0.0 0 0 59.86 45.64
  L 60.82 42.14
  Q 60.97 41.61 60.48 41.88
  Q 60.16 42.06 60.18 42.45
  Z
  M 98.47 46.15
  L 103.44 46.46
  A 0.77 0.76 76.3 0 0 104.14 45.30
  Q 103.54 44.29 103.81 43.04
  A 0.26 0.26 0.0 0 0 103.32 42.86
  C 101.78 45.73 99.69 43.92 98.15 45.14
  Q 97.00 46.06 98.47 46.15
  Z
  M 105.88 45.18
  L 106.23 44.04
  Q 106.62 42.82 105.71 43.72
  Q 104.25 45.16 106.19 46.84
  Q 106.33 46.96 106.50 46.87
  Q 106.64 46.80 106.78 46.73
  A 0.23 0.22 -35.7 0 0 106.84 46.37
  Q 106.57 46.09 106.22 45.93
  Q 105.71 45.71 105.88 45.18
  Z
  M 117.77 45.06
  Q 116.43 44.19 114.83 44.42
  A 0.57 0.57 0.0 0 0 114.45 45.31
  L 114.64 45.59
  Q 114.95 46.02 115.48 45.95
  L 117.63 45.66
  Q 118.52 45.54 117.77 45.06
  Z
  M 70.87 51.79
  Q 72.95 51.49 75.01 51.78
  Q 77.97 52.19 79.55 52.10
  C 85.15 51.75 91.47 53.57 94.80 47.32
  Q 95.06 46.84 94.52 46.82
  L 86.98 46.49
  A 0.46 0.45 -75.8 0 0 86.54 46.76
  L 86.15 47.65
  A 0.45 0.45 0.0 0 1 85.33 47.67
  Q 85.18 47.36 85.25 47.03
  Q 85.38 46.41 84.75 46.41
  L 74.81 46.37
  Q 74.32 46.36 74.48 46.82
  Q 75.43 49.46 77.94 50.45
  Q 78.35 50.62 77.93 50.77
  C 75.56 51.64 74.31 48.36 73.22 46.81
  Q 72.89 46.35 72.32 46.37
  L 61.26 46.81
  Q 60.82 46.83 60.72 47.26
  L 59.87 50.56
  Q 59.74 51.08 60.27 51.19
  Q 71.28 53.42 82.51 54.00
  Q 83.11 54.03 83.12 54.63
  L 83.19 57.00
  Q 83.19 57.20 83.44 57.19
  L 83.44 57.19
  Q 83.60 57.18 83.61 56.99
  L 83.70 54.54
  A 0.59 0.59 0.0 0 1 84.36 53.98
  L 84.87 54.04
  Q 85.56 54.12 85.54 54.82
  Q 85.47 57.24 85.66 59.86
  Q 85.66 59.87 85.68 59.87
  L 85.98 59.87
  Q 86.21 59.87 86.21 59.64
  L 86.23 54.54
  Q 86.23 54.18 86.58 54.16
  L 88.76 54.04
  A 0.48 0.48 0.0 0 1 89.26 54.51
  L 89.26 59.51
  Q 89.26 60.20 89.95 60.23
  L 90.23 60.24
  A 0.49 0.49 0.0 0 0 90.73 59.75
  L 90.74 54.74
  A 0.62 0.62 0.0 0 1 91.36 54.12
  L 91.71 54.12
  Q 92.20 54.12 92.19 54.60
  L 92.16 59.47
  Q 92.15 60.28 92.97 60.26
  L 93.44 60.24
  A 0.68 0.68 0.0 0 0 94.10 59.57
  L 94.16 54.50
  Q 94.16 54.18 94.49 54.15
  L 94.97 54.12
  Q 95.33 54.10 95.33 54.46
  L 95.40 59.56
  Q 95.41 60.22 96.06 60.23
  L 96.52 60.24
  A 0.51 0.50 -88.9 0 0 97.04 59.73
  L 97.05 54.42
  Q 97.05 54.19 97.29 54.19
  L 97.59 54.18
  A 0.32 0.32 0.0 0 1 97.91 54.50
  L 97.91 59.75
  Q 97.91 60.24 98.41 60.23
  L 98.83 60.22
  Q 99.30 60.20 99.25 59.73
  L 98.87 56.23
  A 1.63 1.62 79.1 0 1 100.04 54.49
  Q 100.96 54.24 101.19 53.27
  Q 101.32 52.74 100.77 52.74
  C 93.21 52.78 85.60 52.96 78.06 52.28
  Q 74.47 51.96 70.87 51.89
  Q 70.33 51.87 70.87 51.79
  Z
  M 116.40 48.87
  Q 116.05 48.93 116.26 49.47
  A 0.43 0.43 0.0 0 0 116.77 49.73
  Q 117.44 49.55 117.45 49.10
  Q 117.45 49.01 117.37 48.95
  Q 117.33 48.93 117.29 48.91
  Q 117.20 48.85 117.31 48.89
  Q 119.06 49.49 120.30 49.92
  Q 121.30 50.26 120.92 49.28
  L 120.25 47.57
  A 1.49 1.47 77.9 0 0 118.82 46.63
  Q 117.43 46.67 116.20 47.20
  A 0.75 0.75 0.0 0 0 115.75 47.90
  Q 115.76 48.57 116.40 48.81
  Q 116.52 48.85 116.40 48.87
  Z
  M 57.12 48.80
  L 57.12 47.76
  Q 57.12 47.18 56.54 47.24
  Q 55.09 47.41 53.76 48.03
  A 0.54 0.54 0.0 0 0 53.73 49.00
  Q 55.92 50.20 58.40 50.58
  Q 58.83 50.65 58.97 50.23
  L 59.90 47.47
  Q 60.12 46.84 59.45 46.90
  L 58.57 46.97
  Q 57.91 47.03 57.87 47.69
  L 57.81 48.91
  Q 57.80 48.97 57.75 48.97
  L 57.30 48.97
  Q 57.12 48.97 57.12 48.80
  Z
  M 103.17 47.97
  A 0.46 0.46 0.0 0 0 102.74 47.53
  L 96.78 47.02
  Q 96.29 46.98 96.04 47.41
  Q 94.71 49.75 92.53 51.31
  A 0.37 0.37 0.0 0 0 92.75 51.99
  L 100.79 51.92
  Q 101.80 51.91 102.35 51.06
  Q 103.27 49.66 103.17 47.97
  Z
  M 112.12 48.59
  Q 112.30 50.43 111.34 51.99
  A 0.20 0.09 28.4 0 0 111.48 52.17
  L 111.49 52.17
  Q 111.69 52.27 111.71 52.23
  Q 112.87 50.22 112.61 47.93
  A 0.70 0.69 88.5 0 0 111.97 47.32
  L 109.00 47.10
  Q 108.81 47.09 108.82 47.33
  L 108.82 47.34
  Q 108.82 47.38 109.00 47.41
  L 111.35 47.78
  Q 112.05 47.89 112.12 48.59
  Z
  M 108.07 48.88
  Q 107.14 48.32 106.03 48.23
  Q 105.15 48.15 104.63 48.87
  L 103.05 51.11
  A 0.50 0.49 14.5 0 0 103.51 51.88
  L 110.54 51.13
  A 1.00 1.00 0.0 0 0 110.44 49.14
  L 108.92 49.12
  Q 108.46 49.12 108.07 48.88
  Z
  M 103.76 54.43
  L 103.71 59.53
  Q 103.70 60.12 104.28 60.19
  L 104.70 60.25
  A 0.46 0.46 0.0 0 0 105.21 59.80
  L 105.24 54.27
  Q 105.24 54.08 105.44 54.08
  L 105.83 54.08
  Q 106.13 54.08 106.13 54.38
  L 106.21 59.75
  A 0.24 0.24 0.0 0 0 106.45 59.99
  L 106.75 59.99
  Q 107.24 59.99 107.24 59.50
  L 107.33 54.21
  A 0.34 0.34 0.0 0 1 107.67 53.87
  L 108.13 53.87
  A 0.38 0.38 0.0 0 1 108.51 54.26
  L 108.47 59.36
  Q 108.47 59.66 108.78 59.68
  L 109.09 59.70
  Q 109.54 59.72 109.57 59.27
  C 109.68 57.32 108.94 54.22 110.55 52.86
  Q 110.92 52.54 110.63 52.16
  Q 110.38 51.84 110.00 51.91
  Q 106.25 52.63 102.73 52.74
  A 0.81 0.81 0.0 0 0 101.94 53.56
  L 102.01 59.88
  Q 102.02 60.14 102.27 60.18
  L 102.72 60.26
  Q 102.99 60.31 102.99 60.03
  L 103.02 54.51
  Q 103.03 54.29 103.24 54.29
  L 103.63 54.29
  Q 103.76 54.29 103.76 54.43
  Z
  M 121.95 52.94
  Q 121.91 51.88 121.27 51.99
  Q 119.51 52.31 117.91 53.15
  Q 117.19 53.52 118.00 53.54
  L 121.29 53.61
  A 0.65 0.64 -0.8 0 0 121.95 52.94
  Z
  M 101.09 60.08
  L 101.23 55.60
  A 0.21 0.21 0.0 0 0 101.03 55.38
  L 100.94 55.38
  A 1.84 1.32 -88.1 0 0 99.56 57.17
  L 99.52 58.39
  A 1.84 1.32 -88.1 0 0 100.78 60.28
  L 100.87 60.28
  A 0.21 0.21 0.0 0 0 101.09 60.08
  Z
  M 120.77 56.79
  L 119.00 57.22
  Q 118.00 57.46 118.99 57.75
  Q 120.19 58.09 121.08 57.47
  A 0.38 0.38 0.0 0 0 120.77 56.79
  Z
  M 55.80 57.90
  A 0.18 0.18 0.0 0 0 55.66 58.23
  C 60.25 61.36 72.74 61.45 78.17 61.14
  Q 78.33 61.13 78.33 60.97
  L 78.33 60.96
  Q 78.33 60.79 78.26 60.79
  Q 66.90 60.31 55.80 57.90
  Z
  M 98.68 63.96
  Q 98.49 65.76 98.71 67.56
  Q 98.80 68.34 99.57 68.19
  L 99.90 68.13
  A 0.52 0.52 0.0 0 0 100.31 67.55
  Q 100.03 65.51 100.19 64.86
  Q 101.07 61.17 101.48 64.94
  Q 101.56 65.66 101.43 67.49
  A 0.48 0.48 0.0 0 0 101.95 68.00
  L 102.32 67.97
  A 0.48 0.48 0.0 0 0 102.76 67.49
  L 102.74 63.58
  A 0.52 0.52 0.0 0 1 103.22 63.06
  L 103.59 63.03
  Q 103.93 63.01 103.92 63.34
  L 103.88 67.43
  Q 103.87 67.68 104.13 67.65
  L 104.38 67.62
  Q 104.63 67.59 104.64 67.34
  L 104.83 62.67
  Q 104.86 62.13 104.32 62.15
  C 100.93 62.27 97.32 62.72 94.17 62.74
  Q 81.79 62.79 69.41 62.78
  Q 69.37 62.78 69.37 62.74
  Q 69.38 61.32 69.37 62.92
  Q 69.37 63.10 69.54 63.11
  L 79.14 63.98
  Q 79.64 64.02 79.64 64.53
  L 79.62 67.94
  A 0.59 0.59 0.0 0 0 80.19 68.53
  L 80.83 68.54
  A 0.62 0.61 -89.1 0 0 81.46 67.92
  L 81.42 64.71
  Q 81.41 64.05 82.06 64.05
  L 82.33 64.06
  Q 83.04 64.06 83.03 64.77
  L 82.94 68.01
  Q 82.93 68.60 83.51 68.59
  L 97.69 68.34
  Q 98.21 68.33 98.19 67.81
  L 98.09 64.02
  Q 98.09 63.80 98.32 63.82
  L 98.59 63.85
  A 0.10 0.10 0.0 0 1 98.68 63.96
  Z
  M 54.16 66.77
  Q 54.11 66.25 53.51 66.28
  Q 49.29 66.45 45.58 67.06
  A 0.44 0.44 0.0 0 0 45.31 67.77
  Q 45.78 68.36 47.52 68.63
  Q 62.41 70.92 77.47 69.99
  Q 77.50 69.99 77.50 69.96
  Q 77.49 69.94 77.49 69.91
  Q 77.49 69.83 77.41 69.83
  Q 66.48 69.68 57.24 68.36
  Q 56.00 68.18 54.58 67.41
  Q 54.20 67.21 54.16 66.77
  Z
  M 98.87 71.19
  Q 99.13 72.45 99.02 74.92
  Q 98.99 75.62 99.68 75.67
  L 100.01 75.70
  A 0.45 0.45 0.0 0 0 100.50 75.25
  L 100.52 71.26
  Q 100.52 70.91 100.86 70.87
  L 101.23 70.82
  Q 101.70 70.77 101.71 71.24
  L 101.75 75.01
  Q 101.75 75.47 102.21 75.47
  L 102.51 75.47
  A 0.25 0.25 0.0 0 0 102.76 75.23
  L 102.88 71.01
  Q 102.89 70.59 103.26 70.39
  Q 103.52 70.24 103.72 70.02
  Q 104.14 69.57 103.52 69.62
  L 92.72 70.55
  Q 91.58 70.64 91.59 71.79
  L 91.61 75.00
  Q 91.62 76.13 92.75 76.05
  L 97.94 75.68
  Q 98.52 75.64 98.51 75.05
  L 98.42 71.37
  Q 98.42 71.28 98.50 71.23
  L 98.72 71.11
  Q 98.84 71.05 98.87 71.19
  Z
  M 88.2324 71.3774
  A 0.51 0.51 0.0 0 0 87.7206 70.8692
  L 87.2606 70.8708
  A 0.51 0.51 0.0 0 0 86.7524 71.3826
  L 86.7676 75.7426
  A 0.51 0.51 0.0 0 0 87.2794 76.2508
  L 87.7394 76.2492
  A 0.51 0.51 0.0 0 0 88.2476 75.7374
  L 88.2324 71.3774
  Z
  M 91.03 71.28
  A 0.53 0.53 0.0 0 0 90.50 70.75
  L 89.82 70.75
  A 0.53 0.53 0.0 0 0 89.29 71.28
  L 89.29 75.66
  A 0.53 0.53 0.0 0 0 89.82 76.19
  L 90.50 76.19
  A 0.53 0.53 0.0 0 0 91.03 75.66
  L 91.03 71.28
  Z
  M 84.0235 76.3699
  A 2.69 0.38 89.5 0 0 84.3800 73.6767
  A 2.69 0.38 89.5 0 0 83.9765 70.9901
  A 2.69 0.38 89.5 0 0 83.6200 73.6833
  A 2.69 0.38 89.5 0 0 84.0235 76.3699
  Z
  M 121.17 75.36
  L 124.79 75.44
  Q 125.50 75.46 125.04 74.91
  Q 124.34 74.08 123.22 73.91
  Q 122.74 73.84 122.35 74.14
  Q 121.83 74.55 121.26 74.26
  Q 120.83 74.04 120.87 74.52
  L 120.92 75.13
  Q 120.94 75.36 121.17 75.36
  Z
  M 45.93 75.53
  C 48.41 77.48 56.77 77.71 60.11 77.73
  C 65.91 77.77 71.67 78.30 77.45 77.55
  Q 77.50 77.54 77.50 77.49
  Q 77.49 77.46 77.49 77.44
  Q 77.49 77.35 77.41 77.35
  C 63.91 77.03 54.75 77.06 46.09 75.18
  A 0.20 0.20 0.0 0 0 45.93 75.53
  Z
  M 105.51 80.27
  Q 105.46 82.76 105.58 85.60
  Q 105.58 85.79 105.68 85.88
  Q 105.84 86.04 106.16 86.01
  A 0.58 0.57 -2.8 0 0 106.68 85.44
  L 106.74 80.43
  Q 106.75 79.61 107.57 79.54
  L 108.71 79.45
  A 0.79 0.79 0.0 0 1 109.55 80.38
  Q 109.18 82.42 109.49 84.93
  Q 109.63 86.04 109.88 84.95
  C 110.58 81.89 109.66 79.96 109.29 77.30
  Q 109.23 76.88 108.81 76.80
  Q 105.75 76.16 103.11 77.42
  C 101.02 78.42 99.82 78.58 97.75 78.70
  Q 75.89 80.01 54.00 79.25
  Q 50.82 79.14 47.67 78.51
  Q 47.57 78.49 47.55 78.59
  L 47.48 78.95
  Q 47.44 79.19 47.68 79.21
  L 56.71 79.99
  A 0.75 0.74 -89.1 0 1 57.39 80.70
  L 57.58 84.71
  A 0.02 0.02 0.0 0 0 57.62 84.72
  Q 58.16 82.59 58.02 80.96
  Q 57.96 80.19 58.72 80.22
  L 61.90 80.34
  Q 62.56 80.37 62.62 81.03
  L 62.92 84.01
  Q 63.07 85.54 63.36 84.03
  Q 63.66 82.49 63.47 81.17
  Q 63.37 80.49 64.06 80.48
  L 67.14 80.45
  Q 67.85 80.45 67.98 81.15
  L 68.49 84.01
  Q 68.81 85.78 68.99 83.99
  L 69.26 81.20
  Q 69.33 80.48 70.05 80.48
  L 72.93 80.50
  Q 73.61 80.50 73.66 81.18
  L 73.90 84.26
  A 0.28 0.28 0.0 0 0 74.46 84.27
  L 74.82 81.17
  Q 74.90 80.50 75.58 80.50
  L 78.47 80.49
  Q 78.94 80.49 78.95 80.97
  L 79.01 85.29
  Q 79.02 86.05 79.76 86.19
  L 80.02 86.24
  A 0.35 0.35 0.0 0 0 80.44 85.90
  L 80.50 81.00
  Q 80.51 80.51 81.00 80.51
  L 82.25 80.50
  Q 82.74 80.50 82.74 81.00
  L 82.75 85.48
  A 0.58 0.57 -85.3 0 0 83.23 86.05
  L 83.73 86.12
  Q 84.44 86.23 84.45 85.52
  L 84.48 80.98
  Q 84.48 80.55 84.92 80.54
  L 85.25 80.53
  A 0.50 0.50 0.0 0 1 85.76 81.03
  L 85.77 85.18
  Q 85.77 85.84 86.38 86.07
  L 86.69 86.19
  Q 87.59 86.52 87.60 85.56
  L 87.64 80.88
  Q 87.64 80.58 87.94 80.56
  L 88.29 80.53
  Q 88.82 80.49 88.83 81.02
  L 88.91 85.55
  Q 88.91 85.95 89.30 86.03
  L 89.77 86.13
  A 0.42 0.41 -83.2 0 0 90.27 85.73
  L 90.39 80.75
  Q 90.39 80.44 90.70 80.40
  L 91.13 80.34
  Q 91.31 80.32 91.32 80.50
  L 91.48 85.67
  A 0.47 0.47 0.0 0 0 91.95 86.13
  L 92.37 86.13
  Q 93.07 86.13 93.07 85.44
  L 93.07 80.75
  Q 93.07 80.56 93.26 80.54
  L 93.73 80.49
  Q 94.00 80.47 94.00 80.73
  L 94.11 85.67
  A 0.48 0.47 2.8 0 0 94.53 86.13
  L 94.98 86.18
  Q 95.70 86.26 95.71 85.52
  L 95.73 80.75
  A 0.22 0.22 0.0 0 1 95.95 80.53
  L 96.32 80.51
  Q 96.59 80.50 96.59 80.77
  L 96.65 85.55
  Q 96.65 85.96 97.05 86.02
  L 97.57 86.10
  Q 98.33 86.21 98.33 85.43
  L 98.32 80.69
  A 0.28 0.27 -5.0 0 1 98.55 80.42
  L 98.91 80.35
  Q 99.12 80.31 99.13 80.53
  L 99.25 85.37
  A 0.78 0.77 90.0 0 0 100.00 86.13
  L 100.29 86.14
  A 0.68 0.68 0.0 0 0 101.00 85.45
  L 100.93 80.77
  A 0.44 0.44 0.0 0 1 101.34 80.32
  L 101.72 80.29
  A 0.43 0.43 0.0 0 1 102.19 80.72
  L 102.20 85.69
  A 0.43 0.43 0.0 0 0 102.59 86.12
  L 103.00 86.16
  A 0.67 0.66 3.1 0 0 103.74 85.50
  L 103.75 80.57
  Q 103.75 80.12 104.19 80.03
  L 105.01 79.85
  A 0.42 0.42 0.0 0 1 105.51 80.27
  Z
  M 111.63 77.29
  L 110.55 76.91
  Q 109.74 76.63 109.99 77.45
  L 110.31 78.54
  A 0.56 0.56 0.0 0 0 111.29 78.71
  L 111.84 77.98
  A 0.45 0.45 0.0 0 0 111.63 77.29
  Z
  M 99.14 89.62
  Q 99.39 89.62 99.39 89.88
  L 99.32 93.00
  A 0.44 0.44 0.0 0 0 99.73 93.45
  L 100.07 93.48
  Q 100.83 93.54 100.84 92.77
  L 100.88 89.41
  A 0.32 0.32 0.0 0 1 101.18 89.09
  L 101.48 89.07
  Q 101.94 89.03 101.95 89.50
  L 102.01 92.98
  Q 102.01 93.20 102.23 93.20
  L 102.67 93.20
  Q 102.84 93.20 102.84 93.03
  L 102.92 88.68
  Q 102.93 88.21 102.46 88.22
  Q 82.85 88.58 63.25 88.33
  Q 55.47 88.24 47.73 86.91
  A 1.20 1.19 -85.2 0 1 46.74 85.73
  L 46.76 79.00
  Q 46.76 78.96 46.79 78.94
  Q 46.91 78.85 47.05 78.76
  Q 47.49 78.48 47.11 78.11
  L 46.73 77.74
  A 0.75 0.75 0.0 0 0 45.46 78.28
  L 45.48 85.72
  A 2.19 2.19 0.0 0 0 47.18 87.84
  Q 52.61 89.10 57.75 89.22
  Q 70.05 89.52 82.37 89.40
  Q 83.19 89.39 83.20 90.21
  L 83.23 93.76
  Q 83.23 93.79 83.26 93.79
  L 83.56 93.79
  Q 83.77 93.79 83.77 93.58
  L 83.74 90.18
  Q 83.73 89.35 84.56 89.38
  L 85.51 89.42
  Q 86.31 89.46 86.30 90.26
  L 86.27 93.31
  Q 86.26 94.12 87.07 94.14
  L 87.38 94.15
  A 0.50 0.50 0.0 0 0 87.90 93.66
  L 87.93 90.02
  A 0.62 0.61 -3.1 0 1 88.48 89.41
  L 88.86 89.37
  A 0.36 0.36 0.0 0 1 89.26 89.73
  L 89.27 93.25
  Q 89.27 93.99 90.00 94.00
  L 91.37 94.02
  Q 92.01 94.03 92.01 93.38
  L 92.03 89.75
  Q 92.03 89.68 92.26 89.70
  L 92.27 89.70
  Q 92.37 89.71 92.37 89.87
  L 92.39 93.00
  Q 92.40 93.97 93.36 93.91
  L 97.73 93.62
  Q 98.52 93.57 98.53 92.77
  L 98.54 89.92
  Q 98.54 89.62 98.83 89.62
  L 99.14 89.62
  Z
  M 121.25 87.49
  Q 121.40 87.62 121.58 87.62
  A 0.08 0.08 0.0 0 1 121.65 87.73
  Q 121.58 87.93 121.44 88.06
  Q 121.34 88.16 121.43 88.26
  L 121.80 88.64
  Q 122.28 89.13 122.39 88.45
  Q 122.63 86.93 123.89 86.11
  A 0.25 0.25 0.0 0 0 123.70 85.66
  Q 122.28 85.97 120.83 85.77
  Q 120.29 85.69 119.95 85.28
  Q 117.78 82.69 114.32 82.37
  Q 113.82 82.33 113.81 82.83
  L 113.78 85.68
  A 1.89 1.88 -2.8 0 1 112.09 87.53
  L 106.41 88.13
  A 0.72 0.71 -3.1 0 0 105.77 88.84
  L 105.77 92.54
  Q 105.77 93.08 106.29 93.22
  L 108.47 93.79
  A 0.93 0.92 25.9 0 0 109.43 93.46
  L 115.89 85.03
  A 0.63 0.63 0.0 0 1 116.86 84.99
  Q 118.99 87.33 120.60 87.78
  Q 120.78 87.83 120.91 87.78
  Q 121.10 87.71 121.13 87.53
  Q 121.15 87.40 121.25 87.49
  Z
  M 114.15 95.06
  Q 116.12 92.66 118.45 90.88
  A 1.58 1.58 0.0 0 1 120.37 90.89
  Q 121.36 91.65 122.64 91.81
  A 0.81 0.80 -63.7 0 0 123.31 91.58
  L 125.16 89.64
  A 0.51 0.51 0.0 0 0 125.10 88.87
  Q 124.77 88.63 124.39 88.80
  Q 124.21 88.88 124.05 89.15
  C 122.44 91.79 118.15 88.05 117.12 86.61
  A 0.62 0.62 0.0 0 0 116.07 86.69
  Q 114.28 90.18 111.15 92.64
  C 108.79 94.50 109.16 97.40 109.31 100.00
  A 0.65 0.64 -17.3 0 0 110.29 100.51
  C 112.53 99.16 112.86 96.63 114.15 95.06
  Z
  M 127.47 86.80
  C 127.86 87.56 127.95 88.49 128.04 89.12
  Q 128.23 90.43 128.77 89.22
  Q 129.37 87.85 128.11 86.57
  Q 128.01 86.48 127.90 86.45
  Q 127.75 86.42 127.63 86.45
  Q 127.34 86.53 127.47 86.80
  Z
  M 120.88 108.94
  Q 118.75 101.30 124.22 96.05
  Q 124.63 95.65 124.64 95.07
  Q 124.66 94.20 124.98 93.36
  Q 125.25 92.64 124.56 92.98
  Q 121.55 94.42 119.50 91.94
  Q 119.28 91.67 119.06 91.94
  L 112.15 100.18
  A 0.42 0.42 0.0 0 0 112.44 100.87
  Q 113.63 100.93 114.52 101.68
  A 1.07 1.05 20.4 0 1 114.90 102.49
  L 114.89 109.10
  Q 114.89 109.56 114.56 109.87
  Q 113.89 110.51 112.99 110.81
  A 0.72 0.71 -9.0 0 0 112.49 111.49
  L 112.50 116.76
  A 1.25 1.21 -21.6 0 1 112.09 117.67
  Q 110.88 118.77 109.24 118.96
  Q 108.75 119.01 108.75 119.51
  L 108.76 121.74
  Q 108.76 122.21 109.24 122.21
  L 127.50 122.26
  Q 128.06 122.26 127.92 121.72
  L 124.72 109.74
  Q 124.56 109.12 123.92 109.16
  L 121.35 109.28
  Q 120.98 109.30 120.88 108.94
  Z
  M 98.79 96.99
  Q 98.89 98.67 98.71 100.34
  Q 98.62 101.20 99.48 101.23
  L 99.76 101.23
  A 0.71 0.70 -88.8 0 0 100.49 100.52
  L 100.48 96.73
  A 0.31 0.31 0.0 0 1 100.76 96.42
  L 101.03 96.38
  Q 101.25 96.35 101.26 96.57
  L 101.27 100.45
  Q 101.27 100.89 101.70 100.88
  L 102.19 100.86
  A 0.56 0.55 -0.5 0 0 102.74 100.31
  L 102.79 96.35
  A 0.30 0.28 -4.8 0 1 103.04 96.07
  L 103.47 95.99
  Q 103.74 95.95 103.74 96.22
  L 103.75 100.35
  Q 103.75 100.97 104.35 100.81
  L 104.69 100.72
  Q 105.00 100.64 105.00 100.32
  L 105.03 95.95
  A 0.51 0.50 -73.2 0 1 105.81 95.53
  L 106.03 95.68
  A 0.65 0.63 -74.9 0 1 106.32 96.20
  L 106.40 100.47
  Q 106.40 100.48 106.61 100.49
  Q 106.66 100.49 106.71 100.47
  Q 106.93 100.42 106.93 100.25
  L 106.87 95.54
  A 1.12 1.12 0.0 0 0 105.59 94.45
  Q 100.93 95.11 96.25 95.19
  Q 78.25 95.51 60.26 94.80
  C 57.43 94.69 54.53 94.07 51.70 93.63
  Q 51.46 93.59 51.46 93.83
  L 51.48 94.28
  A 0.38 0.38 0.0 0 0 51.77 94.65
  C 61.75 96.93 73.21 96.52 83.42 96.43
  A 0.57 0.56 0.5 0 1 83.99 97.00
  L 83.97 100.81
  A 0.69 0.69 0.0 0 0 84.56 101.49
  L 85.00 101.55
  A 0.31 0.31 0.0 0 0 85.36 101.25
  L 85.44 97.02
  A 0.56 0.55 -90.0 0 1 85.98 96.47
  L 86.48 96.47
  Q 87.00 96.46 87.00 96.98
  L 87.00 101.03
  Q 87.00 101.55 87.53 101.54
  L 97.68 101.25
  Q 98.34 101.23 98.34 100.57
  L 98.38 97.00
  A 0.21 0.21 0.0 0 1 98.79 96.99
  Z
  M 132.31 96.95
  A 0.26 0.26 0.0 0 0 132.71 96.65
  Q 132.10 94.96 130.29 94.62
  A 0.35 0.35 0.0 0 0 130.02 95.24
  L 132.31 96.95
  Z
  M 32.31 96.26
  L 36.96 97.61
  A 0.14 0.14 0.0 0 0 37.13 97.51
  L 37.14 97.48
  A 2.40 1.05 16.1 0 0 35.12 95.81
  L 34.82 95.72
  A 2.40 1.05 16.1 0 0 32.22 96.06
  L 32.21 96.09
  A 0.14 0.14 0.0 0 0 32.31 96.26
  Z
  M 132.30 98.32
  C 131.25 97.29 128.67 95.79 127.29 96.35
  A 0.53 0.53 0.0 0 0 127.19 97.28
  Q 129.70 98.96 131.48 101.39
  Q 132.19 102.36 132.53 101.21
  L 132.80 100.31
  A 1.99 1.98 -59.3 0 0 132.30 98.32
  Z
  M 126.3967 97.8619
  A 0.26 0.26 0.0 0 0 126.1549 97.5848
  L 126.0751 97.5794
  A 0.26 0.26 0.0 0 0 125.7981 97.8211
  L 125.1233 107.7181
  A 0.26 0.26 0.0 0 0 125.3651 107.9952
  L 125.4449 108.0006
  A 0.26 0.26 0.0 0 0 125.7219 107.7589
  L 126.3967 97.8619
  Z
  M 35.19 103.57
  L 36.40 103.14
  A 0.40 0.40 0.0 0 0 36.27 102.36
  Q 33.94 102.31 32.19 100.86
  Q 31.71 100.46 31.67 101.09
  Q 31.52 103.22 30.72 105.19
  Q 30.59 105.51 30.66 105.74
  Q 30.81 106.26 31.33 106.28
  A 0.58 0.57 21.4 0 0 31.75 106.10
  Q 32.86 104.84 34.29 104.00
  Q 34.72 103.74 35.19 103.57
  Z
  M 109.78 103.23
  L 110.02 108.95
  A 0.27 0.27 0.0 0 0 110.28 109.21
  L 110.66 109.22
  Q 110.83 109.23 110.83 109.05
  L 110.77 103.73
  A 0.63 0.62 -1.4 0 1 111.38 103.10
  L 111.69 103.10
  A 0.56 0.56 0.0 0 1 112.26 103.68
  L 112.10 108.40
  Q 112.09 108.45 112.15 108.45
  L 112.41 108.44
  Q 112.54 108.43 112.54 108.31
  L 112.85 102.67
  A 0.80 0.80 0.0 0 0 111.99 101.83
  Q 103.01 102.52 95.25 102.60
  C 82.58 102.73 69.44 103.39 56.82 102.33
  C 54.45 102.13 49.64 100.69 47.01 101.87
  Q 45.18 102.69 47.18 102.83
  Q 62.45 103.91 77.79 103.76
  A 0.49 0.49 0.0 0 1 78.28 104.24
  L 78.29 106.01
  Q 78.30 107.02 78.63 106.06
  Q 78.91 105.25 78.71 104.44
  Q 78.55 103.76 79.25 103.75
  L 80.95 103.74
  Q 81.61 103.74 81.62 104.39
  L 81.74 109.61
  Q 81.74 109.62 81.75 109.62
  L 82.06 109.62
  Q 82.24 109.62 82.25 109.43
  L 82.31 104.22
  Q 82.32 103.75 82.78 103.76
  L 84.00 103.77
  A 0.48 0.48 0.0 0 1 84.47 104.25
  L 84.50 109.53
  Q 84.50 109.81 84.78 109.77
  L 85.23 109.72
  Q 85.29 109.71 85.30 109.64
  L 85.40 104.44
  Q 85.41 103.84 86.02 103.81
  L 86.39 103.79
  Q 86.89 103.77 86.88 104.27
  L 86.86 109.49
  Q 86.85 109.80 87.16 109.81
  L 87.51 109.82
  Q 87.87 109.83 87.88 109.47
  L 88.00 104.24
  Q 88.01 103.81 88.44 103.81
  L 88.80 103.82
  Q 89.21 103.82 89.22 104.24
  L 89.35 109.67
  Q 89.36 109.85 89.54 109.88
  L 89.87 109.92
  A 0.44 0.44 0.0 0 0 90.38 109.48
  L 90.36 104.23
  Q 90.36 104.06 90.52 104.05
  L 91.21 104.01
  Q 91.44 103.99 91.44 104.22
  L 91.50 109.43
  Q 91.50 109.87 91.95 109.84
  L 92.47 109.79
  Q 92.94 109.76 92.94 109.28
  L 92.99 104.22
  A 0.36 0.36 0.0 0 1 93.41 103.86
  L 93.74 103.92
  Q 94.00 103.97 94.00 104.23
  L 94.02 109.28
  Q 94.02 109.78 94.53 109.79
  L 94.91 109.80
  Q 95.63 109.82 95.63 109.10
  L 95.63 104.23
  Q 95.63 104.04 95.82 104.04
  L 96.39 104.03
  Q 96.56 104.03 96.56 104.20
  L 96.46 109.22
  Q 96.45 109.74 96.97 109.74
  L 97.57 109.74
  Q 98.13 109.74 98.13 109.18
  L 98.11 104.26
  A 0.39 0.39 0.0 0 1 98.49 103.87
  L 98.78 103.87
  Q 98.91 103.87 98.91 103.99
  L 99.00 109.33
  Q 99.00 109.65 99.33 109.64
  L 102.99 109.44
  Q 103.20 109.43 103.16 109.22
  Q 102.69 106.69 103.18 104.12
  Q 103.20 104.02 103.25 104.02
  Q 103.39 104.02 103.53 104.02
  Q 103.66 104.02 103.66 104.15
  L 103.62 109.07
  Q 103.62 109.51 104.06 109.54
  L 104.51 109.58
  Q 104.88 109.60 104.89 109.24
  L 105.03 103.91
  A 0.31 0.30 -2.2 0 1 105.30 103.62
  L 105.57 103.60
  Q 105.90 103.56 105.90 103.90
  L 105.89 109.26
  A 0.35 0.34 87.7 0 0 106.26 109.61
  L 106.69 109.58
  Q 106.95 109.56 106.95 109.31
  L 107.09 103.75
  A 0.37 0.36 -88.4 0 1 107.46 103.39
  L 107.80 103.40
  Q 107.99 103.41 107.99 103.60
  L 108.03 109.07
  Q 108.03 109.65 108.56 109.40
  L 108.83 109.28
  Q 108.95 109.22 108.95 109.10
  L 109.04 103.62
  Q 109.04 103.41 109.23 103.31
  L 109.61 103.13
  Q 109.78 103.04 109.78 103.23
  Z
  M 129.14 104.75
  Q 129.82 105.53 129.74 104.51
  Q 129.66 103.27 127.92 102.67
  Q 127.11 102.39 127.67 103.04
  L 129.14 104.75
  Z
  M 41.97 106.51
  A 0.42 0.42 0.0 0 0 42.21 105.79
  Q 40.55 104.22 38.43 103.27
  Q 37.95 103.05 37.54 103.38
  L 34.88 105.54
  Q 34.47 105.88 34.44 106.41
  Q 34.42 106.87 34.72 107.13
  Q 35.05 107.42 35.83 107.29
  Q 38.35 106.86 41.97 106.51
  Z
  M 134.98 122.69
  C 134.49 120.50 134.34 118.69 133.80 116.22
  C 133.25 113.64 134.87 108.70 135.63 106.08
  A 0.81 0.79 25.5 0 0 135.31 105.20
  L 133.24 103.79
  Q 132.71 103.43 132.36 103.98
  Q 130.22 107.34 126.47 108.52
  Q 126.05 108.65 126.14 109.09
  L 128.86 122.13
  Q 128.91 122.38 129.17 122.40
  L 134.76 122.95
  Q 135.05 122.98 134.98 122.69
  Z
  M 25.29 104.36
  Q 23.89 105.19 24.29 106.73
  Q 24.58 107.87 24.85 106.72
  Q 25.10 105.70 25.77 104.95
  Q 27.42 103.10 25.29 104.36
  Z
  M 75.37 106.63
  Q 75.63 105.70 75.48 104.76
  Q 75.33 103.82 75.06 104.73
  Q 74.72 105.93 75.20 107.09
  Q 75.30 107.33 75.44 107.11
  Q 75.57 106.90 75.37 106.63
  Z
  M 49.11 110.62
  Q 49.68 111.12 50.57 111.18
  Q 51.18 111.22 50.84 111.72
  Q 50.02 112.92 48.61 113.13
  Q 47.96 113.23 48.27 112.65
  Q 48.66 111.92 48.31 111.38
  Q 47.96 110.84 47.02 110.76
  Q 45.34 110.63 43.64 111.31
  Q 43.41 111.40 43.49 111.64
  L 43.58 111.90
  A 0.19 0.03 2.8 0 0 43.75 111.94
  L 46.47 112.12
  A 0.18 0.18 0.0 0 1 46.47 112.48
  L 41.27 112.96
  A 1.01 1.01 0.0 0 0 40.45 114.39
  Q 41.12 115.79 42.89 116.05
  A 0.08 0.08 0.0 0 1 42.96 116.15
  L 42.87 116.47
  Q 42.78 116.83 42.42 116.72
  Q 39.93 115.97 38.78 113.55
  A 0.42 0.42 0.0 0 0 38.04 113.53
  Q 37.36 114.74 35.97 114.47
  A 0.32 0.32 0.0 0 1 35.91 113.86
  Q 36.64 113.55 37.24 113.01
  A 0.34 0.34 0.0 0 0 37.01 112.41
  Q 35.32 112.42 33.83 111.58
  Q 33.36 111.31 33.74 110.91
  Q 34.36 110.26 35.23 109.99
  A 0.44 0.44 0.0 0 0 35.42 109.26
  L 35.11 108.93
  A 0.94 0.94 0.0 0 0 33.88 108.84
  Q 32.43 109.94 30.61 109.76
  Q 30.08 109.71 29.85 110.18
  L 29.63 110.62
  Q 29.41 111.08 29.77 111.44
  Q 31.00 112.65 31.20 114.39
  A 1.06 1.04 18.9 0 0 31.53 115.05
  L 33.91 117.31
  A 0.98 0.98 0.0 0 1 34.22 117.95
  L 34.35 119.31
  A 0.69 0.68 0.5 0 0 34.96 119.93
  L 37.29 120.18
  Q 37.82 120.24 37.79 119.71
  L 37.71 118.22
  Q 37.66 117.22 38.66 117.26
  C 42.85 117.42 56.18 116.41 57.90 112.08
  A 2.06 2.05 24.0 0 0 56.90 109.48
  C 50.99 106.55 42.94 106.89 36.68 108.09
  Q 35.85 108.25 36.29 108.97
  L 36.69 109.63
  A 1.31 1.31 0.0 0 0 37.83 110.26
  Q 39.47 110.22 41.45 110.37
  C 43.47 110.53 44.64 109.71 46.41 108.95
  Q 46.97 108.72 47.20 109.28
  Q 47.53 110.10 48.17 109.70
  A 0.30 0.25 -50.3 0 1 48.33 109.67
  Q 49.00 109.75 48.94 110.11
  Q 48.88 110.41 49.11 110.62
  Z
  M 28.08 109.33
  Q 27.92 108.60 27.35 108.14
  Q 26.75 107.67 26.96 108.40
  Q 27.36 109.75 28.14 110.51
  A 0.30 0.30 0.0 0 0 28.57 110.08
  L 28.39 109.89
  Q 28.15 109.66 28.08 109.33
  Z
  M 15.51 116.20
  Q 15.83 113.37 17.58 111.13
  Q 18.85 109.49 17.00 110.43
  L 13.11 112.40
  A 0.51 0.51 0.0 0 0 12.93 113.15
  L 15.19 116.28
  A 0.18 0.18 0.0 0 0 15.51 116.20
  Z
  M 18.73 111.10
  Q 17.98 111.52 18.83 111.69
  Q 19.99 111.92 21.46 111.20
  A 0.32 0.32 0.0 0 0 21.37 110.59
  Q 19.98 110.40 18.73 111.10
  Z
  M 83.6912 111.2826
  A 0.26 0.26 0.0 0 0 83.4353 111.0185
  L 59.4382 110.6416
  A 0.26 0.26 0.0 0 0 59.1742 110.8974
  L 59.1688 111.2374
  A 0.26 0.26 0.0 0 0 59.4247 111.5015
  L 83.4218 111.8784
  A 0.26 0.26 0.0 0 0 83.6858 111.6226
  L 83.6912 111.2826
  Z
  M 41.5497 111.5238
  A 1.76 0.68 1.1 0 0 39.8031 110.8101
  A 1.76 0.68 1.1 0 0 38.0303 111.4562
  A 1.76 0.68 1.1 0 0 39.7769 112.1699
  A 1.76 0.68 1.1 0 0 41.5497 111.5238
  Z
  M 26.75 112.78
  L 25.95 113.26
  A 0.97 0.97 0.0 0 0 25.95 114.93
  Q 28.04 116.18 30.49 116.65
  Q 31.95 116.93 31.06 115.74
  L 27.90 111.54
  Q 27.60 111.15 27.41 111.59
  L 27.05 112.44
  A 0.71 0.69 -4.4 0 1 26.75 112.78
  Z
  M 107.68 113.49
  L 107.64 116.95
  Q 107.64 117.54 108.22 117.40
  L 108.56 117.31
  Q 108.78 117.26 108.78 117.03
  L 108.87 113.28
  Q 108.89 112.73 109.41 112.55
  Q 109.59 112.49 109.80 112.49
  Q 110.23 112.49 110.36 112.07
  Q 110.44 111.84 110.25 111.67
  Q 109.96 111.40 109.57 111.44
  C 97.70 112.61 86.10 113.03 74.18 113.29
  Q 73.95 113.29 73.94 113.52
  L 73.93 113.78
  Q 73.93 113.85 73.99 113.85
  L 82.79 114.32
  Q 83.25 114.34 83.26 114.80
  L 83.28 117.84
  A 0.62 0.61 3.1 0 0 83.83 118.45
  L 84.27 118.50
  Q 84.70 118.54 84.71 118.11
  L 84.77 114.70
  A 0.56 0.56 0.0 0 1 85.29 114.15
  L 85.67 114.12
  Q 86.27 114.07 86.27 114.67
  L 86.27 117.73
  Q 86.27 118.45 86.98 118.43
  L 103.57 118.07
  Q 104.20 118.05 104.23 117.43
  L 104.43 113.45
  Q 104.43 113.43 104.45 113.43
  L 104.74 113.44
  Q 104.88 113.45 104.88 113.59
  L 104.91 117.24
  Q 104.91 117.74 105.42 117.74
  L 105.90 117.74
  Q 106.39 117.74 106.38 117.25
  L 106.34 113.69
  A 0.53 0.52 -4.3 0 1 106.80 113.16
  L 107.24 113.11
  A 0.39 0.38 -3.9 0 1 107.68 113.49
  Z
  M 16.76 115.77
  Q 16.65 116.44 17.27 116.15
  L 21.22 114.29
  A 0.61 0.60 -54.9 0 0 21.02 113.14
  L 17.96 112.88
  A 0.77 0.76 7.4 0 0 17.14 113.51
  L 16.76 115.77
  Z
  M 61.24 117.74
  Q 61.31 117.69 61.37 117.62
  Q 62.10 116.86 62.07 116.73
  Q 61.78 114.99 59.89 114.86
  Q 59.31 114.83 59.03 115.34
  C 58.76 115.85 58.76 116.18 58.21 116.57
  C 49.74 122.64 36.59 120.75 26.92 120.34
  Q 26.30 120.31 26.78 120.70
  C 28.65 122.23 32.38 122.66 34.78 122.96
  Q 35.26 123.02 35.28 123.51
  L 35.35 125.17
  Q 35.38 125.79 36.00 125.85
  L 39.05 126.13
  A 0.60 0.60 0.0 0 0 39.69 125.45
  L 39.49 124.03
  Q 39.42 123.48 39.97 123.45
  C 47.24 123.04 58.27 123.10 63.85 117.48
  A 1.82 1.82 0.0 0 0 63.86 114.91
  Q 62.09 113.11 59.58 112.92
  Q 59.24 112.90 59.18 113.23
  L 59.08 113.75
  Q 59.00 114.16 59.42 114.14
  Q 61.33 114.03 62.52 115.55
  Q 62.88 116.02 62.66 116.58
  Q 62.31 117.49 61.43 117.90
  Q 60.43 118.37 61.24 117.74
  Z
  M 23.43 114.89
  Q 23.89 117.48 24.52 119.56
  A 0.17 0.17 0.0 0 0 24.86 119.50
  Q 24.73 117.05 23.74 114.80
  Q 23.19 113.52 23.43 114.89
  Z
  M 20.26 118.72
  L 17.34 118.06
  Q 16.54 117.88 16.70 118.68
  L 16.78 119.14
  Q 16.88 119.64 17.38 119.56
  L 20.24 119.12
  A 0.21 0.20 -42.4 0 0 20.26 118.72
  Z
  M 66.76 119.86
  Q 72.72 120.76 78.07 119.89
  Q 79.97 119.59 78.05 119.56
  L 66.75 119.44
  Q 66.57 119.44 66.56 119.60
  L 66.56 119.61
  Q 66.54 119.82 66.76 119.86
  Z
  M 106.08 119.72
  A 0.38 0.38 0.0 0 0 105.35 119.57
  Q 104.43 121.50 105.22 123.49
  Q 105.56 124.34 106.04 123.52
  Q 106.21 123.23 106.08 119.72
  Z
  M 104.1040 120.0557
  A 0.46 0.46 0.0 0 0 103.6554 119.5846
  L 103.3355 119.5768
  A 0.46 0.46 0.0 0 0 102.8644 120.0254
  L 102.7760 123.6443
  A 0.46 0.46 0.0 0 0 103.2246 124.1154
  L 103.5445 124.1232
  A 0.46 0.46 0.0 0 0 104.0156 123.6746
  L 104.1040 120.0557
  Z
  M 100.07 123.17
  Q 99.75 121.74 100.17 120.53
  A 0.43 0.43 0.0 0 0 99.75 119.96
  L 97.46 120.04
  Q 96.72 120.06 96.73 120.79
  L 96.74 123.98
  Q 96.75 124.46 97.22 124.49
  Q 98.64 124.57 100.07 124.19
  Q 100.43 124.09 100.79 124.18
  Q 101.26 124.29 101.71 124.24
  A 0.74 0.73 -3.0 0 0 102.37 123.51
  L 102.37 120.01
  Q 102.37 119.63 102.00 119.70
  L 100.74 119.96
  Q 100.35 120.03 100.38 120.43
  Q 100.47 121.73 100.33 123.15
  Q 100.24 123.96 100.07 123.17
  Z
  M 38.23 129.49
  Q 48.97 129.67 58.96 125.90
  C 61.01 125.13 65.52 122.92 65.22 120.53
  Q 65.14 119.86 64.79 120.44
  C 60.02 128.24 35.60 127.74 27.34 125.03
  Q 26.85 124.87 26.96 125.38
  Q 27.50 127.94 29.83 128.93
  Q 30.31 129.13 30.37 129.66
  L 30.52 131.10
  A 0.89 0.87 88.8 0 0 31.33 131.89
  L 37.19 132.36
  Q 37.80 132.41 37.78 131.80
  L 37.72 130.01
  Q 37.71 129.49 38.23 129.49
  Z
  M 93.1620 120.9158
  A 0.59 0.59 0.0 0 0 92.5689 120.3289
  L 92.1489 120.3311
  A 0.59 0.59 0.0 0 0 91.5620 120.9242
  L 91.5780 123.9842
  A 0.59 0.59 0.0 0 0 92.1711 124.5711
  L 92.5911 124.5689
  A 0.59 0.59 0.0 0 0 93.1780 123.9758
  L 93.1620 120.9158
  Z
  M 96.2149 120.9366
  A 0.73 0.73 0.0 0 0 95.4823 120.2092
  L 95.0023 120.2109
  A 0.73 0.73 0.0 0 0 94.2749 120.9434
  L 94.2851 123.8834
  A 0.73 0.73 0.0 0 0 95.0177 124.6108
  L 95.4977 124.6091
  A 0.73 0.73 0.0 0 0 96.2251 123.8766
  L 96.2149 120.9366
  Z
  M 89.1116 124.7600
  A 2.21 0.56 89.7 0 0 89.6600 122.5471
  A 2.21 0.56 89.7 0 0 89.0884 120.3400
  A 2.21 0.56 89.7 0 0 88.5400 122.5529
  A 2.21 0.56 89.7 0 0 89.1116 124.7600
  Z
  M 68.06 124.42
  L 67.68 123.82
  Q 66.67 122.23 66.53 124.26
  C 66.38 126.49 62.47 128.92 60.51 129.71
  C 49.84 134.03 35.36 134.43 24.18 131.09
  Q 23.75 130.96 23.56 130.55
  L 23.08 129.50
  Q 22.83 128.96 22.30 129.22
  Q 20.43 130.11 21.27 131.77
  Q 21.59 132.39 20.97 132.07
  C 20.32 131.74 20.03 131.13 20.29 130.39
  Q 20.93 128.60 22.81 127.76
  A 0.15 0.15 0.0 0 0 22.88 127.55
  L 22.66 127.19
  Q 22.53 126.97 22.33 127.13
  L 18.63 130.03
  A 0.89 0.88 -27.5 0 0 18.33 130.96
  C 19.43 134.76 26.53 135.68 29.78 135.98
  A 0.45 0.44 -82.1 0 1 30.17 136.50
  Q 29.95 137.73 30.26 138.95
  Q 30.40 139.48 30.95 139.50
  L 35.19 139.62
  A 0.47 0.47 0.0 0 0 35.67 139.06
  L 35.20 136.75
  Q 35.08 136.21 35.64 136.16
  C 46.95 135.22 56.67 133.21 66.82 128.20
  Q 67.37 127.92 67.51 128.52
  L 68.10 130.91
  Q 68.23 131.44 67.78 131.74
  C 63.94 134.32 59.28 135.90 54.90 137.28
  Q 54.78 137.32 54.80 137.45
  L 54.81 137.45
  Q 54.84 137.58 54.96 137.56
  C 58.81 136.95 71.94 133.38 71.11 128.36
  C 70.70 125.82 70.36 122.28 67.83 121.94
  Q 67.07 121.84 67.61 122.39
  Q 68.36 123.16 68.50 124.26
  Q 68.64 125.34 68.06 124.42
  Z
  M 20.80 122.90
  C 19.75 122.65 18.89 122.26 17.84 122.65
  A 0.26 0.25 -45.4 0 0 17.84 123.13
  Q 19.40 123.65 21.02 123.11
  Q 21.16 123.07 21.04 123.00
  Q 20.93 122.93 20.80 122.90
  Z
  M 127.57 128.95
  L 127.55 130.66
  A 0.68 0.67 3.3 0 0 128.15 131.33
  L 128.90 131.41
  A 0.37 0.36 -87.2 0 0 129.30 131.04
  L 129.33 127.50
  A 0.32 0.31 44.8 0 1 129.96 127.50
  L 130.02 130.87
  A 0.38 0.38 0.0 0 0 130.34 131.23
  L 130.82 131.30
  A 0.39 0.38 3.9 0 0 131.26 130.92
  L 131.29 127.23
  A 0.13 0.13 0.0 0 1 131.40 127.10
  L 131.98 127.01
  Q 132.23 126.97 132.23 127.23
  L 132.25 130.75
  A 0.41 0.40 -3.7 0 0 132.71 131.15
  L 133.02 131.11
  Q 133.55 131.05 133.59 130.51
  L 133.81 126.94
  A 0.15 0.15 0.0 0 1 134.01 126.81
  L 134.28 126.91
  Q 134.68 127.06 134.69 127.49
  L 134.77 130.52
  Q 134.78 130.90 135.15 130.89
  L 135.55 130.87
  A 0.33 0.33 0.0 0 0 135.87 130.52
  L 135.72 126.72
  A 0.27 0.27 0.0 0 1 136.03 126.44
  L 136.58 126.52
  Q 136.85 126.55 136.86 126.83
  L 136.97 130.42
  Q 136.98 130.61 137.17 130.59
  L 137.55 130.55
  Q 137.61 130.55 137.61 130.49
  L 137.56 126.90
  Q 137.55 126.47 137.94 126.30
  L 139.31 125.68
  A 0.64 0.63 -53.6 0 0 139.13 124.47
  L 129.57 123.35
  A 0.44 0.44 0.0 0 0 129.09 123.91
  L 129.29 124.68
  Q 129.43 125.17 129.93 125.22
  L 131.58 125.41
  Q 131.99 125.45 131.61 125.63
  Q 131.42 125.71 131.22 125.71
  A 1.05 0.02 0.1 0 0 130.26 125.73
  Q 129.05 126.02 127.80 125.93
  Q 127.08 125.87 127.74 125.58
  Q 127.89 125.51 128.04 125.42
  Q 128.40 125.22 128.47 124.81
  Q 128.76 123.25 127.51 123.28
  Q 123.13 123.38 118.70 123.18
  Q 118.21 123.16 118.52 123.55
  C 119.56 124.88 119.15 129.16 119.02 130.59
  Q 118.94 131.40 119.75 131.39
  L 126.64 131.38
  Q 127.49 131.38 127.35 130.55
  Q 127.23 129.85 127.43 128.93
  Q 127.57 128.29 127.57 128.95
  Z
  M 109.43 124.33
  Q 107.08 125.35 104.50 125.52
  Q 89.71 126.52 74.49 126.05
  A 0.72 0.71 0.0 0 0 73.75 126.78
  L 73.87 134.06
  Q 73.88 134.20 74.02 134.20
  L 74.30 134.18
  Q 74.50 134.18 74.50 133.98
  L 74.53 127.73
  Q 74.54 127.24 75.02 127.23
  L 78.71 127.17
  A 0.55 0.54 88.9 0 1 79.26 127.71
  L 79.32 134.01
  A 0.42 0.41 0.7 0 0 79.73 134.42
  L 80.05 134.43
  A 0.69 0.69 0.0 0 0 80.75 133.74
  L 80.75 128.00
  Q 80.75 127.24 81.50 127.23
  L 84.74 127.21
  A 0.53 0.52 89.5 0 1 85.27 127.74
  L 85.27 133.49
  Q 85.27 134.39 86.17 134.45
  L 86.45 134.47
  A 0.51 0.50 -87.8 0 0 86.98 133.97
  L 86.98 127.46
  A 0.30 0.30 0.0 0 1 87.29 127.16
  L 91.06 127.25
  Q 91.36 127.26 91.37 127.56
  L 91.38 133.72
  A 0.60 0.59 0.5 0 0 91.97 134.31
  L 92.82 134.31
  A 0.63 0.62 90.0 0 0 93.44 133.68
  L 93.48 127.46
  A 0.32 0.32 0.0 0 1 93.79 127.15
  L 94.21 127.15
  Q 94.53 127.15 94.53 127.46
  L 94.54 133.82
  Q 94.54 134.35 95.07 134.36
  L 96.05 134.38
  Q 96.75 134.39 96.75 133.70
  L 96.75 127.44
  Q 96.75 127.12 97.06 127.12
  L 97.50 127.12
  A 0.38 0.37 90.0 0 1 97.87 127.50
  L 97.89 133.75
  Q 97.89 134.37 98.50 134.37
  L 99.48 134.37
  Q 100.08 134.37 100.08 133.77
  L 100.13 127.50
  A 0.40 0.40 0.0 0 1 100.50 127.10
  L 100.99 127.06
  A 0.43 0.42 87.6 0 1 101.45 127.49
  L 101.48 133.80
  Q 101.48 134.37 102.05 134.37
  L 102.93 134.37
  Q 103.49 134.37 103.49 133.82
  L 103.49 127.50
  A 0.38 0.38 0.0 0 1 103.87 127.12
  L 104.46 127.12
  Q 104.80 127.12 104.80 127.46
  L 104.75 133.78
  Q 104.75 134.31 105.28 134.34
  L 106.12 134.39
  A 0.59 0.59 0.0 0 0 106.74 133.80
  L 106.75 127.50
  Q 106.75 127.01 107.24 126.95
  L 107.98 126.86
  Q 108.70 126.77 108.70 127.49
  L 108.70 133.75
  Q 108.70 134.25 109.20 134.24
  L 109.51 134.24
  A 0.52 0.52 0.0 0 0 110.02 133.72
  L 109.99 127.22
  Q 109.99 126.68 110.53 126.58
  L 112.43 126.24
  Q 112.95 126.15 112.96 126.68
  L 113.01 133.43
  Q 113.02 133.65 113.23 133.69
  L 113.64 133.77
  Q 114.13 133.87 114.13 133.36
  L 114.14 126.53
  A 0.64 0.63 -3.0 0 1 114.71 125.90
  Q 115.90 125.77 116.13 125.65
  Q 119.15 124.13 115.75 123.78
  L 109.19 123.10
  A 0.43 0.43 0.0 0 0 108.84 123.82
  Q 109.08 124.08 109.40 124.12
  Q 109.80 124.17 109.43 124.33
  Z
  M 25.03 123.81
  A 0.30 0.30 0.0 0 0 24.51 123.79
  L 23.27 125.80
  A 0.30 0.30 0.0 0 0 23.38 126.22
  L 26.70 128.14
  A 0.30 0.30 0.0 0 0 27.11 127.74
  L 25.03 123.81
  Z
  M 132.42 134.00
  L 132.49 137.72
  Q 132.50 138.19 132.97 138.20
  L 133.54 138.22
  A 0.54 0.53 -87.8 0 0 134.08 137.71
  L 134.25 133.90
  Q 134.26 133.77 134.38 133.72
  L 134.73 133.56
  Q 135.00 133.44 135.00 133.74
  L 135.01 137.78
  Q 135.01 138.04 135.28 138.06
  L 135.75 138.09
  Q 136.37 138.12 136.37 137.50
  L 136.37 134.17
  Q 136.37 133.68 136.84 133.51
  L 137.31 133.33
  A 0.28 0.28 0.0 0 1 137.68 133.62
  L 137.39 137.31
  Q 137.36 137.75 137.80 137.83
  L 138.28 137.90
  A 0.43 0.42 -86.1 0 0 138.77 137.47
  L 138.64 133.56
  A 0.74 0.72 81.9 0 1 139.17 132.84
  L 140.50 132.48
  Q 140.74 132.41 140.70 132.17
  L 140.64 131.86
  Q 140.64 131.84 140.62 131.84
  Q 130.16 132.97 119.63 132.69
  Q 119.09 132.68 119.10 133.21
  L 119.11 136.47
  A 0.80 0.79 80.6 0 1 118.56 137.24
  Q 118.07 137.40 117.74 137.72
  Q 117.18 138.24 117.94 138.23
  L 131.60 138.11
  Q 132.06 138.11 132.05 137.65
  L 131.99 134.19
  Q 131.99 134.04 132.13 133.97
  L 132.39 133.85
  Q 132.41 133.84 132.42 134.00
  Z
  M 113.08 136.51
  Q 86.56 138.40 60.00 137.00
  Q 59.46 136.97 59.82 137.38
  Q 60.44 138.10 61.50 138.14
  Q 84.04 139.05 106.57 137.93
  C 108.67 137.82 110.96 137.06 113.22 136.88
  Q 113.23 136.88 113.22 136.87
  L 113.19 136.60
  Q 113.18 136.50 113.08 136.51
  Z"
/>
<path fill="#d1d1d1" d="
  M 96.63 93.05
  Q 96.63 93.09 96.63 93.13
  Q 96.63 93.13 96.62 93.13
  Q 95.97 93.06 96.60 93.00
  Q 96.62 93.00 96.62 92.98
  L 96.62 90.11
  Q 96.62 89.61 96.80 90.08
  Q 96.96 90.51 96.91 90.93
  C 96.82 91.71 97.03 92.23 96.65 92.96
  Q 96.63 93.00 96.63 93.05
  Z"
/>
<ellipse fill="#d1d1d1" cx="0.00" cy="0.00" transform="translate(101.05,106.34) rotate(89.9)" rx="2.64" ry="0.49"/>
<path fill="#d1d1d1" d="
  M 56.59 111.26
  A 0.14 0.13 66.9 0 1 56.83 111.36
  Q 56.73 112.34 55.75 112.76
  Q 55.31 112.95 55.60 112.57
  L 56.59 111.26
  Z"
/>
<ellipse fill="#d1d1d1" cx="0.00" cy="0.00" transform="translate(69.40,128.14) rotate(80.5)" rx="1.91" ry="0.53"/>
<path fill="#d1d1d1" d="
  M 107.87 140.94
  C 109.32 140.45 112.94 141.12 114.62 141.12
  Q 114.63 141.12 114.63 141.12
  Q 114.63 141.12 114.63 141.12
  Q 114.63 141.12 114.62 141.12
  Q 111.28 141.14 107.90 141.12
  Q 107.33 141.12 107.87 140.94
  Z"
/>
</svg>
