<?xml version="1.0" encoding="UTF-8" standalone="no"?>
<!DOCTYPE svg PUBLIC "-//W3C//DTD SVG 1.1//EN" "http://www.w3.org/Graphics/SVG/1.1/DTD/svg11.dtd">
<svg xmlns="http://www.w3.org/2000/svg" version="1.1" viewBox="0.00 0.00 160.00 160.00">
<path fill="#e8e8e8" d="
  M 132.98 83.68
  A 54.78 54.78 0.0 0 1 78.20 138.46
  A 54.78 54.78 0.0 0 1 23.42 83.68
  A 54.78 54.78 0.0 0 1 78.20 28.90
  A 54.78 54.78 0.0 0 1 132.98 83.68
  Z
  M 79.4814 129.8720
  A 46.25 45.73 88.4 0 0 123.9022 82.3631
  A 46.25 45.73 88.4 0 0 76.8986 37.4080
  A 46.25 45.73 88.4 0 0 32.4778 84.9169
  A 46.25 45.73 88.4 0 0 79.4814 129.8720
  Z"
/>
<path fill="#e8e8e8" d="
  M 102.41 65.91
  Q 99.01 65.97 97.85 64.66
  C 88.04 53.59 70.40 53.10 59.87 63.27
  C 57.94 65.13 56.56 65.99 54.04 65.96
  A 0.53 0.53 0.0 0 0 53.50 66.49
  L 53.48 99.24
  Q 53.48 99.73 52.99 99.74
  C 44.83 99.82 38.07 101.46 38.11 90.40
  C 38.13 83.25 36.38 74.76 46.76 74.90
  Q 47.52 74.91 47.51 74.15
  Q 47.47 67.66 47.54 60.80
  C 47.57 57.42 48.79 55.28 51.16 53.18
  C 67.54 38.58 91.09 38.99 106.62 54.63
  C 110.39 58.43 108.86 69.33 108.91 74.52
  Q 108.92 75.08 109.48 75.03
  C 117.37 74.42 118.33 79.43 118.26 86.15
  C 118.22 90.25 119.22 94.83 115.95 98.00
  Q 115.59 98.35 115.48 98.84
  C 112.79 111.08 103.65 118.28 92.23 122.01
  Q 91.84 122.14 91.20 122.89
  A 2.10 2.10 0.0 0 1 90.30 123.49
  L 83.43 125.77
  A 3.82 3.82 0.0 0 1 78.59 123.31
  L 78.42 122.78
  Q 77.24 119.13 80.83 117.80
  C 83.60 116.78 87.20 115.33 90.03 116.27
  A 1.57 1.51 -44.5 0 0 91.04 116.26
  C 98.80 113.57 105.62 108.80 108.96 100.81
  A 0.77 0.77 0.0 0 0 108.25 99.75
  L 103.50 99.75
  Q 103.01 99.75 103.01 99.26
  L 103.00 66.48
  A 0.58 0.57 -0.5 0 0 102.41 65.91
  Z"
/>
<path fill="#e8e8e8" d="
  M 58.32 73.46
  C 65.79 56.12 92.49 56.61 98.46 74.81
  C 100.00 79.49 99.36 85.98 99.37 91.36
  Q 99.40 97.65 98.25 100.73
  C 93.41 113.73 77.78 117.23 66.40 110.73
  C 60.97 107.63 56.73 100.80 56.81 94.50
  Q 56.90 87.88 56.98 81.27
  Q 57.04 76.42 58.32 73.46
  Z
  M 86.30 93.83
  A 8.15 8.15 0.0 0 0 78.15 85.68
  A 8.15 8.15 0.0 0 0 70.00 93.83
  A 8.15 8.15 0.0 0 0 78.15 101.98
  A 8.15 8.15 0.0 0 0 86.30 93.83
  Z"
/>
</svg>
